<?xml version="1.0" encoding="UTF-8" standalone="no"?><!-- Generator: Gravit.io --><svg xmlns="http://www.w3.org/2000/svg" xmlns:xlink="http://www.w3.org/1999/xlink" style="isolation:isolate" viewBox="0 0 50 50" width="50pt" height="50pt"><defs><clipPath id="_clipPath_pD7Yc3k3Y5RbZ0Htaqm3d2h28WiKAnSn"><rect width="50" height="50"/></clipPath></defs><g clip-path="url(#_clipPath_pD7Yc3k3Y5RbZ0Htaqm3d2h28WiKAnSn)"><g><path d=" M 19.55 28.896 C 19.23 29.131 18.794 29.302 18.391 29.205 C 17.918 28.982 17.622 28.657 17.398 28.333 C 17.083 27.628 17.149 27.018 17.967 26.199 C 18.511 25.828 19.114 25.92 19.599 26.364 C 20.084 26.808 20.387 27.494 20.144 27.98 C 20.07 28.173 19.966 28.59 19.55 28.896 Z " fill="none" vector-effect="non-scaling-stroke" stroke-width="1" stroke="rgb(255,255,255)" stroke-linejoin="miter" stroke-linecap="square" stroke-miterlimit="3"/><path d=" M 36.222 9.107 C 34.837 7.648 33.996 7.301 32.487 6.46 C 31.529 5.928 30.751 5.642 30.014 5.273 C 29.171 4.852 28.412 4.611 27.589 4.333 C 26.625 3.921 25.909 3.719 24.918 3.492 C 23.978 3.294 23.514 3.183 22.098 3.047 C 21.264 3.047 20.388 2.942 19.328 3.047 C 17.967 3.22 17.485 3.276 16.056 3.609 C 14.642 4.083 14.558 4.18 12.944 4.806 L 9.458 6.98" fill="none" vector-effect="non-scaling-stroke" stroke-width="1" stroke="rgb(255,255,255)" stroke-linejoin="miter" stroke-linecap="square" stroke-miterlimit="3"/><path d=" M 40.445 37.678 C 39.79 39.011 38.898 40.327 37.855 41.371 C 36.682 42.543 35.591 43.386 34.359 44.207 C 32.98 45.126 32.321 45.379 31.069 46.005" fill="none" vector-effect="non-scaling-stroke" stroke-width="1" stroke="rgb(255,255,255)" stroke-linejoin="miter" stroke-linecap="square" stroke-miterlimit="3"/><path d=" M 20.787 31.511 Q 20.556 31.469 19.859 31.419 Q 19.052 31.097 19.052 31.097 C 18.795 30.994 18.415 30.848 18.162 30.721 C 17.846 30.563 17.494 30.317 17.244 30.067 C 17.053 29.877 16.687 29.45 16.548 29.219 C 16.214 28.712 16.123 28.334 16.061 27.939 C 15.914 27.374 15.824 26.448 15.824 25.615 C 15.824 24.239 17.416 23.151 18.462 22.802 C 19.776 22.364 20.84 22.355 21.9 22.885 C 22.371 23.12 22.922 23.725 23.329 24.239 C 23.832 24.876 24.015 25.389 24.164 25.983 C 24.479 27.263 24.536 28.148 24.182 29.211 C 23.57 30.38 22.873 31.02 22.067 31.289 C 21.978 31.318 21.106 31.57 20.787 31.511 Z " fill="none" vector-effect="non-scaling-stroke" stroke-width="1" stroke="rgb(255,255,255)" stroke-linejoin="miter" stroke-linecap="square" stroke-miterlimit="3"/><path d=" M 21.959 31.681 C 21.32 31.91 19.936 31.688 19.428 31.542 C 19.146 31.472 18.903 31.351 18.621 31.257 C 18.385 31.178 18.087 31.014 17.868 30.85 C 17.628 30.67 16.861 30.186 16.659 29.887 C 15.866 28.676 15.725 28.453 15.532 26.992 C 15.532 26.387 15.381 26.026 15.518 25.323 C 15.616 24.824 15.624 24.43 15.978 23.931 C 16.284 23.625 17.129 23.035 17.407 22.868 C 18.158 22.418 18.914 22.343 19.715 22.143 C 20.811 21.869 22.21 22.592 22.749 23.132 C 23.774 24.157 23.997 24.632 24.399 25.837 C 24.771 26.954 24.91 28.375 24.464 29.267 C 24.084 30.027 23.895 30.378 23.347 30.93 C 22.911 31.287 22.401 31.595 21.959 31.681 Z " fill="none" vector-effect="non-scaling-stroke" stroke-width="1" stroke="rgb(255,255,255)" stroke-linejoin="miter" stroke-linecap="square" stroke-miterlimit="3"/><path d=" M 15.927 23.973 C 16.706 22.86 18.34 22.354 19.546 21.558 C 20.534 21.558 21.696 21.414 22.774 21.684 C 23.837 22.215 24.409 22.456 24.992 23.33 C 25.672 24.498 26.021 25.18 26.176 26.233 C 26.249 26.732 26.188 27.846 25.83 28.521 C 25.672 29.014 25.485 29.433 25.322 29.596 C 24.522 30.396 23.608 30.948 22.749 31.377 L 22.597 31.443" fill="none" vector-effect="non-scaling-stroke" stroke-width="1" stroke="rgb(255,255,255)" stroke-linejoin="miter" stroke-linecap="square" stroke-miterlimit="3"/><path d=" M 15.375 20.979 C 15.194 20.812 15.101 20.506 15.059 20.172 C 15.119 19.621 15.245 19.36 15.579 19.123 C 15.892 18.899 16.308 18.83 16.747 18.977 C 17.289 19.247 17.466 19.825 17.389 20.34 C 17.287 21.015 16.836 21.326 16.019 21.289 C 15.74 21.256 15.512 21.113 15.375 20.979 Z " fill="none" vector-effect="non-scaling-stroke" stroke-width="1" stroke="rgb(255,255,255)" stroke-linejoin="miter" stroke-linecap="square" stroke-miterlimit="3"/><path d=" M 20.336 19.403 C 20.088 19.199 20.028 19.152 19.939 18.737 C 19.896 18.538 19.872 18.531 19.913 18.251 C 19.952 18.135 20.005 17.952 20.132 17.845 C 20.277 17.721 20.503 17.68 20.639 17.657 C 21.112 17.578 21.447 17.981 21.518 18.418 C 21.586 18.833 21.424 19.174 21.004 19.416 C 20.872 19.482 20.756 19.502 20.336 19.403 Z " fill="none" vector-effect="non-scaling-stroke" stroke-width="1" stroke="rgb(255,255,255)" stroke-linejoin="miter" stroke-linecap="square" stroke-miterlimit="3"/><path d=" M 26.427 21.076 C 26.2 21.572 25.797 21.639 25.434 21.688 C 24.906 21.595 24.614 21.389 24.377 21.104 C 24.108 20.566 24.071 20.104 24.409 19.696 C 24.6 19.466 24.87 19.295 25.162 19.251 C 25.657 19.258 25.685 19.221 26.121 19.518 C 26.585 19.981 26.603 20.519 26.427 21.076 Z " fill="none" vector-effect="non-scaling-stroke" stroke-width="1" stroke="rgb(255,255,255)" stroke-linejoin="miter" stroke-linecap="square" stroke-miterlimit="3"/><path d=" M 28.236 25.63 C 27.827 25.573 27.656 25.417 27.509 25.09 C 27.365 24.693 27.516 24.203 27.763 24.056 C 28.438 23.65 29.192 24.327 28.884 25.045 C 28.853 25.118 28.836 25.193 28.792 25.259 C 28.672 25.406 28.446 25.568 28.236 25.63 Z " fill="none" vector-effect="non-scaling-stroke" stroke-width="1" stroke="rgb(255,255,255)" stroke-linejoin="miter" stroke-linecap="square" stroke-miterlimit="3"/><path d=" M 28.152 30.595 C 27.688 30.302 27.438 29.591 27.737 28.895 C 27.779 28.798 27.84 28.743 27.96 28.63 C 28.181 28.5 28.909 28.369 29.28 28.739 C 29.645 29.104 29.675 29.406 29.683 29.698 C 29.69 29.99 29.675 30.273 29.346 30.52 C 28.878 30.871 28.465 30.767 28.152 30.595 Z " fill="none" vector-effect="non-scaling-stroke" stroke-width="1" stroke="rgb(255,255,255)" stroke-linejoin="miter" stroke-linecap="square" stroke-miterlimit="3"/><path d=" M 25.507 32.942 L 25.586 32.819 L 25.812 32.708 Q 26.114 32.697 26.114 32.697 C 26.288 32.767 26.391 32.869 26.441 32.984 C 26.531 33.192 26.502 33.486 26.353 33.67 C 26.2 33.856 25.924 33.93 25.746 33.86 C 25.646 33.821 25.559 33.722 25.507 33.542 C 25.477 33.44 25.441 33.432 25.437 33.274 Q 25.472 33.095 25.507 32.942 Z " fill="none" vector-effect="non-scaling-stroke" stroke-width="1" stroke="rgb(255,255,255)" stroke-linejoin="miter" stroke-linecap="square" stroke-miterlimit="3"/><path d=" M 22.321 35.154 C 22.061 35.5 21.838 35.549 21.562 35.665 C 21.319 35.747 20.88 35.602 20.771 35.533 C 19.994 35.047 20.064 33.799 20.639 33.224 C 21.088 32.925 21.467 33.076 21.76 33.224 C 22.036 33.385 22.321 33.62 22.42 33.95 C 22.458 34.046 22.518 34.781 22.321 35.154 Z " fill="none" vector-effect="non-scaling-stroke" stroke-width="1" stroke="rgb(255,255,255)" stroke-linejoin="miter" stroke-linecap="square" stroke-miterlimit="3"/><path d=" M 16.757 33.232 C 16.47 33.18 16.292 33.068 16.219 32.895 C 16.185 32.726 16.188 32.553 16.251 32.416 C 16.349 32.175 16.534 31.999 16.701 31.966 C 17.026 31.938 17.227 32.174 17.317 32.316 C 17.446 32.576 17.478 32.85 17.341 33.033 C 17.225 33.157 17.031 33.264 16.757 33.232 Z " fill="none" vector-effect="non-scaling-stroke" stroke-width="1" stroke="rgb(255,255,255)" stroke-linejoin="miter" stroke-linecap="square" stroke-miterlimit="3"/><path d=" M 14.796 29.007 C 14.684 29.339 14.656 29.35 14.57 29.464 C 14.409 29.663 14.241 29.703 13.822 29.679 C 13.549 29.664 13.285 29.598 13.185 29.464 C 12.893 29.075 12.88 28.659 13.027 28.341 C 13.274 27.808 13.973 27.548 14.57 28.145 C 14.878 28.453 14.878 28.763 14.796 29.007 Z " fill="none" vector-effect="non-scaling-stroke" stroke-width="1" stroke="rgb(255,255,255)" stroke-linejoin="miter" stroke-linecap="square" stroke-miterlimit="3"/><path d=" M 13.399 24.387 C 13.26 24.258 13.213 24.105 13.185 23.858 C 13.181 23.488 13.533 23.309 13.713 23.264 C 14.113 23.164 14.336 23.465 14.336 23.8 C 14.336 23.972 14.277 24.154 14.153 24.294 C 14.063 24.397 13.723 24.564 13.399 24.387 Z " fill="none" vector-effect="non-scaling-stroke" stroke-width="1" stroke="rgb(255,255,255)" stroke-linejoin="miter" stroke-linecap="square" stroke-miterlimit="3"/><path d=" M 16.27 35.194 C 14.878 34.109 14.572 33.747 13.449 32.433 C 12.671 31.456 12.077 30.853 11.66 29.582 C 11.261 28.478 11.196 28.237 11.008 27.123 C 11.008 26.7 10.81 25.425 10.81 25.111 C 10.752 24.427 10.971 23.745 11.078 23.008 C 11.181 22.487 11.47 21.763 11.48 21.667 C 11.845 20.51 12.168 19.68 12.859 18.989 C 13.769 18.079 14.467 17.449 15.395 16.874 C 16.415 16.28 18.033 16.043 19.229 15.779 C 20.253 15.779 20.75 15.773 21.591 15.922 C 22.531 16.07 23.978 16.602 24.745 17.01 C 26.217 17.863 26.13 17.782 27.243 18.618 C 28.384 19.583 29.025 20.126 29.516 20.863 C 30.24 21.949 30.579 22.829 31.061 23.792 C 31.584 24.838 31.634 26.1 31.683 27.115 C 31.72 28.351 31.741 29.34 31.597 30.244 C 31.337 31.394 30.626 32.829 30.069 33.527 C 29.673 34.028 29.37 34.307 29.043 34.733 C 28.539 35.35 27.955 35.888 27.301 36.325 C 26.241 37.031 25.091 37.075 24.135 37.314 C 22.896 37.624 21.783 37.497 20.837 37.182 C 19.541 36.75 18.58 36.515 17.538 35.995 C 17.324 35.887 16.485 35.33 16.27 35.194 Z " fill="none" vector-effect="non-scaling-stroke" stroke-width="1" stroke="rgb(255,255,255)" stroke-linejoin="miter" stroke-linecap="square" stroke-miterlimit="3"/><path d=" M 12.822 18.989 C 14.071 17.777 15.236 16.762 16.78 15.835 C 17.8 15.353 19.156 14.953 20.045 14.953 C 20.999 14.953 22.376 14.898 23.145 15.283 C 24.256 15.687 24.882 15.937 25.856 16.355 C 27.039 16.995 27.744 17.505 28.57 18.033 C 29.502 18.827 30.065 19.499 30.754 20.445 C 31.394 21.537 31.856 22.155 32.332 23.299 C 32.623 24.425 32.908 25.494 32.908 26.562 C 32.908 27.716 32.908 28.769 32.908 29.794 C 32.908 31.117 32.106 32.254 31.588 33.29 C 31.113 34.241 29.836 35.096 29.082 35.599 C 28.32 36.107 27.077 36.497 26.854 36.632" fill="none" vector-effect="non-scaling-stroke" stroke-width="1" stroke="rgb(255,255,255)" stroke-linejoin="miter" stroke-linecap="square" stroke-miterlimit="3"/><path d=" M 18.66 38.435 C 18.66 38.435 16.747 37.446 16.747 37.446 C 16.525 37.261 16.25 37.156 16.021 36.984 C 15.754 36.783 15.469 36.63 15.23 36.391 C 15.016 36.177 14.741 36.041 14.504 35.863 C 13.317 34.857 12.403 33.958 11.595 32.977 C 10.778 32.077 10.25 30.85 9.755 29.596 C 9.359 28.475 9.112 28.079 8.963 26.364 C 8.891 26.012 8.857 25.658 8.844 25.308 C 8.817 24.521 8.897 23.751 8.897 23.066 C 9.137 21.827 9.469 20.339 9.953 19.372 C 10.395 18.488 11.409 17.334 12.221 16.396 C 13.208 15.646 14.113 14.796 15.226 14.087 C 16.718 13.462 17.21 13.205 18.065 13.015 C 19.185 12.919 19.981 12.678 20.903 12.71 C 21.934 12.71 22.434 12.973 23.602 13.224 C 24.841 13.53 25.697 14.011 26.353 14.295 C 27.274 14.883 28.134 15.427 28.818 15.876 C 29.581 16.317 31.135 17.213 31.456 17.855 C 31.835 18.613 30.957 20.079 31.786 20.494 C 32.153 20.677 33.435 22.583 33.435 22.868 C 33.435 23.899 33.43 24.771 33.831 25.573 C 34.222 26.356 34.359 27.539 34.359 28.277 C 34.359 28.59 33.945 29.026 33.897 29.267 C 33.766 29.923 34.095 30.498 34.095 31.114 C 34.095 32.105 33.539 33.038 33.17 33.775 C 32.734 34.563 32.094 35.259 31.195 36.177 C 30.167 37.179 29.357 37.601 28.681 37.81 C 27.476 38.421 26.803 38.533 25.536 38.825 C 24.368 39.145 23.264 39.128 22.585 39.128 C 21.55 39.128 20.776 38.957 19.846 38.756 C 19.268 38.652 18.577 38.367 18.66 38.435 Z " fill="none" vector-effect="non-scaling-stroke" stroke-width="1" stroke="rgb(255,255,255)" stroke-linejoin="miter" stroke-linecap="square" stroke-miterlimit="3"/><path d=" M 8.477 40.211 C 8.297 40.064 8.241 40.005 8.005 39.81 C 7.483 39.34 7.601 39.427 7.142 38.923 C 6.823 38.619 6.623 38.407 6.48 38.234 C 6.099 37.691 6.044 37.634 5.197 36.446 C 4.925 36.103 4.902 36.064 4.589 35.584 C 3.963 34.45 3.973 34.443 3.225 32.895 C 2.658 31.761 2.315 30.792 1.971 29.761 C 1.543 28.244 1.549 28.181 1.147 25.853 C 0.949 23.318 0.949 23.318 1.159 21.401 C 1.605 17.653 1.444 19.075 1.84 17.393 C 2.562 15.948 2.285 15.464 3.522 13.139 C 4.487 11.74 4.725 11.061 5.995 9.973 C 7.386 8.632 7.88 8.278 8.666 7.575 C 9.515 6.844 11.066 6.077 12.086 5.632 C 13.348 5.112 13.941 4.939 14.966 4.597 C 15.91 4.282 17.062 4.059 17.986 3.962 C 19.173 3.814 19.266 3.795 20.917 3.758 C 21.993 3.851 22.568 3.925 23.718 4.11 C 24.813 4.259 26.149 4.63 26.971 4.861 C 27.876 5.313 28.941 5.627 29.807 5.916 C 30.944 6.295 31.775 6.933 32.644 7.367 C 33.646 7.868 34.389 8.438 35.282 8.884 C 36.405 9.446 34.471 10.685 34.161 10.995 C 33.618 11.538 33.029 11.741 32.776 12.248 C 32.594 12.612 32.527 12.703 32.116 12.908 C 30.836 13.548 31.997 14.359 32.776 14.359 C 33.323 14.359 33.22 14.919 33.369 15.217 C 33.774 16.027 34.158 15.347 34.689 15.612 C 35.319 15.928 35.018 16.402 35.018 16.932 C 35.018 17.278 34.26 16.865 34.095 17.196 C 33.619 18.148 32.715 18.703 32.248 19.636 C 31.59 20.953 33.171 21.253 33.171 22.143 C 33.171 23.112 33.633 23.917 33.633 24.781 C 33.633 25.774 34.359 26.551 34.359 27.42 C 34.359 28.337 34.161 29.017 34.161 29.926 C 34.161 30.833 35.183 32.103 35.942 32.103 C 37.366 32.103 36.998 32.83 37.459 33.752 C 37.938 34.709 36.416 35.294 36.931 36.325 C 37.604 37.67 37.472 37.736 38.712 37.116 C 38.978 36.983 39.466 37.434 39.57 37.512 C 39.682 37.596 40.368 37.707 40.493 37.644 C 40.549 37.616 41.417 37.216 41.417 37.248 C 41.176 38.234 40.202 39.111 39.784 39.73 C 39.339 40.314 39.067 40.716 38.671 41.09 C 37.801 41.94 34.741 44.326 33.155 45.036 C 32.452 45.335 31.402 45.956 31.077 46.013 C 30.014 46.297 28.764 46.562 27.499 46.681 C 26.482 46.761 24.886 46.834 24.85 46.835 C 22.995 46.872 23.653 46.848 21.566 46.724 C 19.804 46.446 18.83 46.201 17.893 45.889 C 16.659 45.478 15.588 44.978 14.665 44.516 C 13.558 43.963 12.753 43.253 11.827 42.754 C 10.551 41.873 10.649 41.984 9.591 41.066 C 8.935 40.592 8.769 40.489 8.477 40.211 Z " fill="none" vector-effect="non-scaling-stroke" stroke-width="1" stroke="rgb(255,255,255)" stroke-linejoin="miter" stroke-linecap="square" stroke-miterlimit="3"/><path d=" M 34.961 21.697 C 35.512 22.886 35.283 24.333 35.752 25.507 C 35.752 26.376 36.049 27.109 36.049 27.881 C 36.049 28.581 37.375 28.579 37.879 28.327 C 38.649 27.942 39.638 28.003 40.205 27.436 C 41.03 26.61 41.342 25.712 41.342 24.715 C 41.342 23.788 40.819 23.202 40.254 22.637 C 39.494 21.877 38.823 21.872 38.077 21.5 C 37.456 21.189 35.968 21.516 35.505 21.747 C 35.2 21.899 35.087 21.903 34.961 21.697 Z " fill="none" vector-effect="non-scaling-stroke" stroke-width="1" stroke="rgb(255,255,255)" stroke-linejoin="miter" stroke-linecap="square" stroke-miterlimit="3"/><path d=" M 33.971 17.839 C 35.145 18.107 36.238 18.546 36.544 19.768 C 36.593 19.867 36.346 21.45 36.346 21.45" fill="none" vector-effect="non-scaling-stroke" stroke-width="1" stroke="rgb(255,255,255)" stroke-linejoin="miter" stroke-linecap="square" stroke-miterlimit="3"/><path d=" M 37.583 28.623 C 37.326 28.623 37.958 28.975 38.127 29.168 C 38.492 29.585 38.644 30.435 38.424 30.949 C 38.283 31.276 38.242 31.526 37.978 31.79 C 37.721 32.047 37.435 32.383 37.187 32.383" fill="none" vector-effect="non-scaling-stroke" stroke-width="1" stroke="rgb(255,255,255)" stroke-linejoin="miter" stroke-linecap="square" stroke-miterlimit="3"/><path d=" M 33.328 20.114 C 33.328 20.114 33.674 22.242 33.674 22.242 C 33.599 22.542 33.387 22.781 33.328 23.132 C 33.328 23.909 33.656 25.007 33.872 25.655 C 34.018 26.092 34.042 28.178 34.466 28.178 C 34.948 28.178 35.674 29.802 35.851 30.157 C 36.125 30.704 38.043 29.889 36.94 29.613 C 36.597 29.527 36.049 27.985 36.049 27.832 C 36.049 26.742 35.455 25.796 35.455 24.814 C 35.455 23.85 35.159 23.071 35.159 22.242 C 35.159 21.476 34.763 20.858 34.763 20.213 C 34.763 19.29 33.229 19.961 33.229 20.263 L 33.328 20.114 Z " fill="none" vector-effect="non-scaling-stroke" stroke-width="1" stroke="rgb(255,255,255)" stroke-linejoin="miter" stroke-linecap="square" stroke-miterlimit="3"/><path d=" M 33.427 19.917 C 33.427 19.917 33.823 19.174 33.823 19.174 C 34.074 19.049 34.552 19.012 34.812 19.174 C 35.334 19.501 35.253 19.977 35.06 20.461 C 35.01 20.56 34.812 20.708 34.812 20.708" fill="none" vector-effect="non-scaling-stroke" stroke-width="1" stroke="rgb(255,255,255)" stroke-linejoin="miter" stroke-linecap="square" stroke-miterlimit="3"/><path d=" M 35.406 29.415 C 35.406 29.415 35.455 30.256 35.455 30.256 C 35.576 30.401 35.783 30.606 35.95 30.701 C 36.531 31.033 37.378 30.79 37.484 30.157 C 37.484 29.575 36.962 29.328 35.406 29.415 Z " fill="none" vector-effect="non-scaling-stroke" stroke-width="1" stroke="rgb(255,255,255)" stroke-linejoin="miter" stroke-linecap="square" stroke-miterlimit="3"/><path d=" M 34.12 17.839 C 33.424 18.575 32.438 19.126 32.438 20.213 C 32.667 20.901 33.279 21.786 33.279 22.341 C 33.279 23.126 33.575 23.818 33.575 24.468 C 33.575 25.415 34.268 26.293 34.268 27.139 C 34.268 27.515 34.298 28.099 34.367 28.376 C 34.45 28.708 34.961 28.834 34.961 29.168 C 34.961 30.231 34.646 30.634 35.455 31.443 C 36.057 32.045 36.625 32.235 37.335 32.235" fill="none" vector-effect="non-scaling-stroke" stroke-width="1" stroke="rgb(255,255,255)" stroke-linejoin="miter" stroke-linecap="square" stroke-miterlimit="3"/><path d=" M 35.06 12.347 C 35.06 12.347 34.614 14.029 34.614 14.029 C 34.763 14.848 35.554 13.749 35.554 14.771 C 35.691 15.045 35.737 15.318 35.802 15.514" fill="none" vector-effect="non-scaling-stroke" stroke-width="1" stroke="rgb(255,255,255)" stroke-linejoin="miter" stroke-linecap="square" stroke-miterlimit="3"/><path d=" M 35.01 12.446 C 35.01 12.446 37.385 11.754 37.385 11.754 C 37.679 11.639 37.94 11.53 38.226 11.407 C 38.505 11.288 38.742 11.122 39.017 11.012 C 39.261 10.931 40.029 10.242 40.056 10.27" fill="none" vector-effect="non-scaling-stroke" stroke-width="1" stroke="rgb(255,255,255)" stroke-linejoin="miter" stroke-linecap="square" stroke-miterlimit="3"/><path d=" M 40.106 10.369 C 40.139 10.632 40.172 10.896 40.205 11.16 C 40.221 11.226 40.238 11.292 40.106 10.369 Z " fill="none" vector-effect="non-scaling-stroke" stroke-width="1" stroke="rgb(255,255,255)" stroke-linejoin="miter" stroke-linecap="square" stroke-miterlimit="3"/><path d=" M 35.159 10.121 C 36.61 9.788 36.028 8.361 36.742 7.648 C 37.597 7.22 38.13 6.955 38.968 6.955 C 39.939 6.955 40.107 7.993 40.6 7.747 C 41.623 7.235 41.591 8.689 41.788 9.082 C 41.955 9.417 42.37 9.496 42.579 9.775 C 42.652 9.872 42.756 10.775 42.876 10.715 C 43.568 10.369 44.25 10.369 44.904 10.369 C 45.567 10.369 45.947 11.513 46.191 12.001 C 46.582 12.784 47.079 13.332 47.427 14.029 C 47.828 14.83 47.922 15.629 47.922 16.404 C 47.922 17.142 47.332 18.139 47.724 18.531 C 48.472 19.279 47.724 20.042 47.724 20.609 C 47.724 21.428 47.576 22.14 47.576 22.835 C 47.576 23.129 48.318 22.91 48.318 23.528 C 48.318 23.85 48.636 23.971 48.862 24.122 C 49.796 24.744 49.951 25.134 49.951 26.051 C 49.951 26.938 50 27.768 50 28.574 C 50 29.253 49.837 30.384 49.604 30.85 C 49.275 31.508 48.484 32.069 48.021 32.532 C 47.553 33 46.448 33.799 46.24 34.214 C 45.894 34.907 45.956 35.573 45.647 36.193 C 45.155 37.175 44.679 36.924 43.964 37.281 C 43.349 37.589 42.505 37.33 41.936 37.33 C 41.729 37.33 41.293 37.155 41.293 37.33" fill="none" vector-effect="non-scaling-stroke" stroke-width="1" stroke="rgb(255,255,255)" stroke-linejoin="miter" stroke-linecap="square" stroke-miterlimit="3"/><path d=" M 42.678 10.814 C 41.531 10.656 40.77 11.125 39.809 11.605 C 39.168 11.926 37.805 12.545 37.236 12.545 C 36.221 12.545 36.239 13.816 36.544 14.425 C 36.872 15.081 36.486 15.826 36.643 16.453 C 36.763 16.934 36.88 17.269 36.989 17.542 C 37.184 18.028 37.655 17.933 37.879 18.383 C 38.316 19.255 38.424 20.116 38.819 20.906 C 39.012 21.292 39.135 21.586 39.265 21.846 C 39.44 22.197 40.125 22.132 40.304 22.489 C 40.648 23.178 41.392 23.661 41.392 24.418 C 41.392 25.132 41.414 26.078 40.947 26.546 C 40.468 27.024 40.234 28.039 40.501 28.574 C 40.681 28.934 40.877 30.495 40.749 30.751 C 40.475 31.299 40.254 32.467 40.254 32.977 C 40.254 34.051 41.244 34.282 41.244 35.005 C 41.244 35.953 41.765 36.501 42.678 36.044 C 43.616 35.575 43.972 36.136 44.558 35.549 C 44.657 35.451 46.537 34.164 46.537 34.164" fill="none" vector-effect="non-scaling-stroke" stroke-width="1" stroke="rgb(255,255,255)" stroke-linejoin="miter" stroke-linecap="square" stroke-miterlimit="3"/><path d=" M 39.759 19.719 C 39.759 19.719 40.65 19.917 40.65 19.917 C 41.161 19.777 41.819 19.851 42.282 19.62 C 42.564 19.479 42.923 19.423 43.222 19.323 C 43.742 19.323 45.121 18.129 45.251 17.74 C 45.493 17.014 46.11 15.761 46.883 15.761 C 48.123 15.761 46.982 16.957 46.982 17.344 C 46.982 18.292 46.492 18.671 46.141 19.372 C 46.092 19.471 45.35 20.213 45.35 20.213" fill="none" vector-effect="non-scaling-stroke" stroke-width="1" stroke="rgb(255,255,255)" stroke-linejoin="miter" stroke-linecap="square" stroke-miterlimit="3"/><path d=" M 47.18 18.432 C 46.766 18.61 46.414 19.792 46.042 20.164 C 45.779 20.427 45.579 20.556 45.399 20.856" fill="none" vector-effect="non-scaling-stroke" stroke-width="1" stroke="rgb(255,255,255)" stroke-linejoin="miter" stroke-linecap="square" stroke-miterlimit="3"/><path d=" M 46.438 20.164 C 46.731 21.094 46.998 22.529 46.488 23.38 C 45.876 24.602 45.597 22.664 45.597 22.192 C 45.597 21.726 45.236 19.751 45.498 19.62 C 46.467 19.135 46.143 18.233 46.636 17.74 C 47.021 17.355 47.245 16.72 47.427 16.355" fill="none" vector-effect="non-scaling-stroke" stroke-width="1" stroke="rgb(255,255,255)" stroke-linejoin="miter" stroke-linecap="square" stroke-miterlimit="3"/><path d=" M 46.784 19.372 C 46.898 20.607 47.682 22.003 47.477 23.231 C 47.477 23.804 46.68 23.732 46.488 23.577" fill="none" vector-effect="non-scaling-stroke" stroke-width="1" stroke="rgb(255,255,255)" stroke-linejoin="miter" stroke-linecap="square" stroke-miterlimit="3"/><path d=" M 44.954 24.666 C 44.274 23.306 44.017 22.173 44.261 20.708 C 44.261 19.561 45.243 21.723 45.35 22.044 C 45.692 23.072 45.844 24.021 45.844 24.963 C 45.844 25.778 45.399 26.828 45.399 25.556 C 45.399 24.928 45.063 24.775 44.954 24.666 Z " fill="none" vector-effect="non-scaling-stroke" stroke-width="1" stroke="rgb(255,255,255)" stroke-linejoin="miter" stroke-linecap="square" stroke-miterlimit="3"/><path d=" M 42.134 19.372 C 42.134 19.372 42.035 18.482 42.035 18.482 C 41.794 18.096 41.618 17.619 41.293 17.295 C 40.96 16.962 40.095 16.936 39.66 16.998 C 39.095 16.998 37.955 17.084 37.533 17.295 C 37.434 17.344 37.236 17.344 37.236 17.344" fill="none" vector-effect="non-scaling-stroke" stroke-width="1" stroke="rgb(255,255,255)" stroke-linejoin="miter" stroke-linecap="square" stroke-miterlimit="3"/><path d=" M 38.127 18.037 C 38.127 18.037 39.067 17.938 39.067 17.938 C 39.826 17.684 40.545 17.492 41.342 17.492" fill="none" vector-effect="non-scaling-stroke" stroke-width="1" stroke="rgb(255,255,255)" stroke-linejoin="miter" stroke-linecap="square" stroke-miterlimit="3"/><path d=" M 36.593 17.393 C 35.752 17.874 35.039 17.694 34.169 17.839" fill="none" vector-effect="non-scaling-stroke" stroke-width="1" stroke="rgb(255,255,255)" stroke-linejoin="miter" stroke-linecap="square" stroke-miterlimit="3"/><line x1="37.335" y1="18.284" x2="35.752" y2="18.63" vector-effect="non-scaling-stroke" stroke-width="1" stroke="rgb(255,255,255)" stroke-linejoin="miter" stroke-linecap="square" stroke-miterlimit="3"/><line x1="36.494" y1="19.917" x2="38.424" y2="19.917" vector-effect="non-scaling-stroke" stroke-width="1" stroke="rgb(255,255,255)" stroke-linejoin="miter" stroke-linecap="square" stroke-miterlimit="3"/><line x1="38.869" y1="31.74" x2="40.353" y2="31.542" vector-effect="non-scaling-stroke" stroke-width="1" stroke="rgb(255,255,255)" stroke-linejoin="miter" stroke-linecap="square" stroke-miterlimit="3"/><path d=" M 40.749 31.691 C 40.749 31.691 43.321 31.196 43.321 31.196 C 43.647 31.131 43.872 30.993 44.113 30.8 C 45.18 30.267 44.398 29.217 43.668 29.217 C 43.189 29.217 41.263 29.781 41.095 29.613" fill="none" vector-effect="non-scaling-stroke" stroke-width="1" stroke="rgb(255,255,255)" stroke-linejoin="miter" stroke-linecap="square" stroke-miterlimit="3"/><line x1="38.671" y1="30.355" x2="40.749" y2="29.712" vector-effect="non-scaling-stroke" stroke-width="1" stroke="rgb(255,255,255)" stroke-linejoin="miter" stroke-linecap="square" stroke-miterlimit="3"/><path d=" M 46.042 28.92 C 46.042 28.92 46.042 29.86 46.042 29.86 C 45.984 30.559 45.844 31.222 45.844 31.938 C 45.844 32.252 45.797 32.568 45.745 32.878 C 45.745 33.71 44.393 34.313 43.866 34.313 C 43.103 34.313 41.938 34.734 41.392 34.461 L 41.293 34.412" fill="none" vector-effect="non-scaling-stroke" stroke-width="1" stroke="rgb(255,255,255)" stroke-linejoin="miter" stroke-linecap="square" stroke-miterlimit="3"/><path d=" M 37.533 33.422 C 37.533 33.422 38.424 33.373 38.424 33.373 C 39.25 33.579 39.072 34.56 39.759 34.56 C 40.083 34.56 40.392 34.5 40.699 34.461 C 40.853 34.461 41.028 34.423 41.095 34.412" fill="none" vector-effect="non-scaling-stroke" stroke-width="1" stroke="rgb(255,255,255)" stroke-linejoin="miter" stroke-linecap="square" stroke-miterlimit="3"/><path d=" M 45.943 28.92 C 45.943 28.92 46.883 28.722 46.883 28.722 C 47.116 29.536 46.815 30.763 46.685 31.542 C 46.411 32.364 46.141 33.602 46.141 34.313 L 46.141 34.412 L 46.141 34.511" fill="none" vector-effect="non-scaling-stroke" stroke-width="1" stroke="rgb(255,255,255)" stroke-linejoin="miter" stroke-linecap="square" stroke-miterlimit="3"/><path d=" M 43.964 34.362 C 43.964 34.362 44.36 35.797 44.36 35.797 C 44.441 35.837 45.991 34.734 46.24 34.61 C 46.347 34.503 46.446 34.305 46.438 34.313" fill="none" vector-effect="non-scaling-stroke" stroke-width="1" stroke="rgb(255,255,255)" stroke-linejoin="miter" stroke-linecap="square" stroke-miterlimit="3"/><path d=" M 46.586 24.221 C 46.586 24.221 46.586 26.348 46.586 26.348 C 46.728 26.773 47.233 26.744 47.625 26.744 C 48.135 26.744 48.568 26.447 48.961 26.447" fill="none" vector-effect="non-scaling-stroke" stroke-width="1" stroke="rgb(255,255,255)" stroke-linejoin="miter" stroke-linecap="square" stroke-miterlimit="3"/><path d=" M 47.873 27.782 C 47.587 27.701 47.922 28.376 47.922 28.673 C 47.922 29.41 47.625 30.154 47.625 30.899" fill="none" vector-effect="non-scaling-stroke" stroke-width="1" stroke="rgb(255,255,255)" stroke-linejoin="miter" stroke-linecap="square" stroke-miterlimit="3"/><path d=" M 48.021 27.585 C 48.021 27.585 48.071 29.563 48.071 29.563 C 48.056 29.67 48.028 30.277 47.972 30.503 C 47.898 30.8 47.821 31.104 47.724 31.394" fill="none" vector-effect="non-scaling-stroke" stroke-width="1" stroke="rgb(255,255,255)" stroke-linejoin="miter" stroke-linecap="square" stroke-miterlimit="3"/><path d=" M 17.72 26.373 L 18.981 24.418 L 21.504 25.037 L 22.395 27.956 L 21.133 29.563 L 18.511 29.242" fill="none" vector-effect="non-scaling-stroke" stroke-width="1" stroke="rgb(255,255,255)" stroke-linejoin="miter" stroke-linecap="square" stroke-miterlimit="3"/><path d=" M 18.882 24.418 L 19.699 24.047 L 21.95 24.493 L 23.063 27.337 L 22.444 27.956" fill="none" vector-effect="non-scaling-stroke" stroke-width="1" stroke="rgb(255,255,255)" stroke-linejoin="miter" stroke-linecap="square" stroke-miterlimit="3"/><line x1="21.554" y1="25.062" x2="21.9" y2="24.567" vector-effect="non-scaling-stroke" stroke-width="1" stroke="rgb(255,255,255)" stroke-linejoin="miter" stroke-linecap="square" stroke-miterlimit="3"/><line x1="18.255" y1="26.039" x2="19.24" y2="25.489" vector-effect="non-scaling-stroke" stroke-width="1" stroke="rgb(255,255,255)" stroke-linejoin="miter" stroke-linecap="square" stroke-miterlimit="3"/><path d=" M 19.253 25.482 C 20.115 25.415 20.706 25.709 21.136 26.447 C 21.347 27.226 21.396 27.445 21.087 28.051 C 20.469 28.367 19.303 29.149 19.037 29.155" fill="none" vector-effect="non-scaling-stroke" stroke-width="1" stroke="rgb(255,255,255)" stroke-linejoin="miter" stroke-linecap="square" stroke-miterlimit="3"/><path d=" M 21.14 31.456 C 20.163 31.513 17.874 30.12 17.275 29.366 C 16.84 28.496 16.51 27.739 16.465 26.892 C 16.38 26.051 16.405 25.161 16.687 24.598 C 16.883 24.205 17.776 23.005 18.141 22.925" fill="none" vector-effect="non-scaling-stroke" stroke-width="1" stroke="rgb(255,255,255)" stroke-linejoin="miter" stroke-linecap="square" stroke-miterlimit="3"/></g></g></svg>