<?xml version="1.0" encoding="UTF-8" standalone="no"?><!-- Generator: Gravit.io --><svg xmlns="http://www.w3.org/2000/svg" xmlns:xlink="http://www.w3.org/1999/xlink" style="isolation:isolate" viewBox="0 0 50 50" width="50pt" height="50pt"><defs><clipPath id="_clipPath_6Q3TlnP1jBKg59VBz4eibSXNQOfCktfS"><rect width="50" height="50"/></clipPath></defs><g clip-path="url(#_clipPath_6Q3TlnP1jBKg59VBz4eibSXNQOfCktfS)"><path d=" M 27.469 50.062 C 34.281 41.188 41.854 33.948 50.156 28.312" fill="none" vector-effect="non-scaling-stroke" stroke-width="2" stroke="rgb(255,255,255)" stroke-linejoin="miter" stroke-linecap="square" stroke-miterlimit="3"/><path d=" M 12.281 27.187 L 16.688 31.312 L 31.688 17.344 L 27.188 12.469 C 20.344 16.688 15.948 14.604 13.969 6.188 C 8.747 2.967 5.569 1.977 4.406 3.188 C 2.893 4.34 3.257 7.422 5.438 12.375 C 14.184 14.371 16.475 19.319 12.281 27.187 Z " fill="none" vector-effect="non-scaling-stroke" stroke-width="1" stroke="rgb(255,255,255)" stroke-linejoin="miter" stroke-linecap="square" stroke-miterlimit="3"/><path d=" M 17.938 32.891 L 33 18.375 L 31 16.438 L 15.922 30.359 L 17.938 32.891 Z " fill="none" vector-effect="non-scaling-stroke" stroke-width="1" stroke="rgb(255,255,255)" stroke-linejoin="miter" stroke-linecap="square" stroke-miterlimit="3"/><path d=" M 18.25 32.875 C 21.438 35.156 25.416 39.354 27.469 43.125 L 41.906 27.844 C 38.181 26.006 34.472 22.359 33.063 18.938 L 18.25 32.875 Z " fill="none" vector-effect="non-scaling-stroke" stroke-width="1" stroke="rgb(255,255,255)" stroke-linejoin="miter" stroke-linecap="square" stroke-miterlimit="3"/><mask id="_mask_6AoHqWEEEMz3LDSyBy3lLLMYkvQcMj8k"><ellipse vector-effect="non-scaling-stroke" cx="8.9375" cy="7.75" rx="2.3125" ry="2.5" fill="white" stroke="none"/></mask><ellipse vector-effect="non-scaling-stroke" cx="8.9375" cy="7.75" rx="2.3125" ry="2.5" fill="none"/><ellipse vector-effect="non-scaling-stroke" cx="8.9375" cy="7.75" rx="2.3125" ry="2.5" fill="none" mask="url(#_mask_6AoHqWEEEMz3LDSyBy3lLLMYkvQcMj8k)" stroke-width="2" stroke="rgb(255,255,255)" stroke-linejoin="miter" stroke-linecap="square" stroke-miterlimit="3"/><path d=" M 20.777 32.133 C 23.42 34.762 26.817 38.861 29.18 41.941" fill="none" vector-effect="non-scaling-stroke" stroke-width="0.5" stroke="rgb(255,255,255)" stroke-linejoin="miter" stroke-linecap="square" stroke-miterlimit="3"/><path d=" M 22.254 30.832 C 24.731 33.323 28.057 37.352 30.586 40.57" fill="none" vector-effect="non-scaling-stroke" stroke-width="0.5" stroke="rgb(255,255,255)" stroke-linejoin="miter" stroke-linecap="square" stroke-miterlimit="3"/><path d=" M 23.449 29.725 C 26.162 32.423 28.969 35.415 31.262 38.426" fill="none" vector-effect="non-scaling-stroke" stroke-width="0.5" stroke="rgb(255,255,255)" stroke-linejoin="miter" stroke-linecap="square" stroke-miterlimit="3"/><path d=" M 24.793 28.512 C 27.385 31.145 29.903 34.014 32.316 37.09" fill="none" vector-effect="non-scaling-stroke" stroke-width="0.5" stroke="rgb(255,255,255)" stroke-linejoin="miter" stroke-linecap="square" stroke-miterlimit="3"/><line x1="26.031" y1="27.156" x2="33.688" y2="35.895" vector-effect="non-scaling-stroke" stroke-width="0.5" stroke="rgb(255,255,255)" stroke-linejoin="miter" stroke-linecap="square" stroke-miterlimit="3"/><line x1="27.313" y1="26.031" x2="34.777" y2="34.523" vector-effect="non-scaling-stroke" stroke-width="0.5" stroke="rgb(255,255,255)" stroke-linejoin="miter" stroke-linecap="square" stroke-miterlimit="3"/><line x1="28.594" y1="24.969" x2="35.867" y2="33.258" vector-effect="non-scaling-stroke" stroke-width="0.5" stroke="rgb(255,255,255)" stroke-linejoin="miter" stroke-linecap="square" stroke-miterlimit="3"/><path d=" M 29.68 23.906 C 31.92 26.447 34.473 29.082 37.309 31.781" fill="none" vector-effect="non-scaling-stroke" stroke-width="0.5" stroke="rgb(255,255,255)" stroke-linejoin="miter" stroke-linecap="square" stroke-miterlimit="3"/><path d=" M 30.75 22.844 C 33.328 25.871 35.713 28.103 38.68 30.27" fill="none" vector-effect="non-scaling-stroke" stroke-width="0.5" stroke="rgb(255,255,255)" stroke-linejoin="miter" stroke-linecap="square" stroke-miterlimit="3"/><path d=" M 32.188 21.625 C 34.208 24.452 36.395 26.402 40.086 28.652" fill="none" vector-effect="non-scaling-stroke" stroke-width="0.5" stroke="rgb(255,255,255)" stroke-linejoin="miter" stroke-linecap="square" stroke-miterlimit="3"/><path d=" M 32.313 38.625 C 31.11 37.558 29.213 32.348 31.125 28.938 C 34.278 30.101 38.517 29.84 37.969 25.219 L 41.906 27.75 C 39.203 32.232 35.62 36.929 32.313 38.625 Z " fill="rgb(255,255,255)" vector-effect="non-scaling-stroke" stroke-width="1" stroke="rgb(255,255,255)" stroke-linejoin="miter" stroke-linecap="square" stroke-miterlimit="3"/></g></svg>