<?xml version="1.0" encoding="UTF-8" standalone="no"?><!-- Generator: Gravit.io --><svg xmlns="http://www.w3.org/2000/svg" xmlns:xlink="http://www.w3.org/1999/xlink" style="isolation:isolate" viewBox="0 0 50 50" width="50pt" height="50pt"><defs><clipPath id="_clipPath_OSHSbDLc7vSIPJnU1XXHl5gkbNy5UijC"><rect width="50" height="50"/></clipPath></defs><g clip-path="url(#_clipPath_OSHSbDLc7vSIPJnU1XXHl5gkbNy5UijC)"><g><path d=" M 32.812 17.101 C 35.089 16.991 37.308 16.755 39.544 16.308 L 39.853 16.308" fill="none" vector-effect="non-scaling-stroke" stroke-width="1" stroke="rgb(255,255,255)" stroke-linejoin="miter" stroke-linecap="square" stroke-miterlimit="3"/><path d=" M 33.403 17.988 C 35.625 17.795 37.758 17.25 39.976 17.111" fill="none" vector-effect="non-scaling-stroke" stroke-width="1" stroke="rgb(255,255,255)" stroke-linejoin="miter" stroke-linecap="square" stroke-miterlimit="3"/><path d=" M 33.995 18.778 C 35.821 18.608 37.613 18.158 39.42 18.037" fill="none" vector-effect="non-scaling-stroke" stroke-width="1" stroke="rgb(255,255,255)" stroke-linejoin="miter" stroke-linecap="square" stroke-miterlimit="3"/><path d=" M 34.29 19.466 C 35.908 19.703 37.453 18.978 39.05 18.778" fill="none" vector-effect="non-scaling-stroke" stroke-width="1" stroke="rgb(255,255,255)" stroke-linejoin="miter" stroke-linecap="square" stroke-miterlimit="3"/><path d=" M 34.586 20.353 C 36.019 19.968 37.458 19.786 38.926 19.705" fill="none" vector-effect="non-scaling-stroke" stroke-width="1" stroke="rgb(255,255,255)" stroke-linejoin="miter" stroke-linecap="square" stroke-miterlimit="3"/><path d=" M 35.159 21.064 C 36.225 20.979 37.271 20.724 38.309 20.508" fill="none" vector-effect="non-scaling-stroke" stroke-width="1" stroke="rgb(255,255,255)" stroke-linejoin="miter" stroke-linecap="square" stroke-miterlimit="3"/><path d=" M 35.473 21.831 C 36.307 21.501 37.125 21.369 38 21.311" fill="none" vector-effect="non-scaling-stroke" stroke-width="1" stroke="rgb(255,255,255)" stroke-linejoin="miter" stroke-linecap="square" stroke-miterlimit="3"/><path d=" M 35.768 22.422 C 36.475 22.473 37.181 22.376 37.876 22.299" fill="none" vector-effect="non-scaling-stroke" stroke-width="1" stroke="rgb(255,255,255)" stroke-linejoin="miter" stroke-linecap="square" stroke-miterlimit="3"/><path d=" M 36.064 23.604 C 36.421 23.519 36.778 23.434 37.135 23.349 C 37.259 23.308 37.382 23.266 36.064 23.604 Z " fill="rgb(255,255,255)" vector-effect="non-scaling-stroke" stroke-width="1" stroke="rgb(255,255,255)" stroke-linejoin="miter" stroke-linecap="square" stroke-miterlimit="3"/><path d=" M 0.296 16.51 C 1.432 18.942 2.93 19.228 3.29 21.928 C 4.039 23.8 6.377 25.633 7.552 26.807 C 8.284 27.54 9.189 28.336 9.837 28.66" fill="none" vector-effect="non-scaling-stroke" stroke-width="1" stroke="rgb(255,255,255)" stroke-linejoin="miter" stroke-linecap="square" stroke-miterlimit="3"/><path d=" M 0.296 16.805 C 0.827 13.725 3.538 14.366 5.946 14.517 C 8.778 14.517 11.206 15.814 13.789 15.814 C 16.264 15.814 18.426 16.34 20.521 16.864" fill="none" vector-effect="non-scaling-stroke" stroke-width="1" stroke="rgb(255,255,255)" stroke-linejoin="miter" stroke-linecap="square" stroke-miterlimit="3"/><path d=" M 19.806 20.878 C 19.307 17.647 21.508 16.318 23.177 14.023 C 24.409 10.944 26.666 11.324 28.18 13.343 C 28.704 14.042 29.766 18.717 30.218 18.717" fill="none" vector-effect="non-scaling-stroke" stroke-width="1" stroke="rgb(255,255,255)" stroke-linejoin="miter" stroke-linecap="square" stroke-miterlimit="3"/><path d=" M 21.875 32.304 C 19.477 32.996 17.926 30.373 16.383 28.907" fill="none" vector-effect="non-scaling-stroke" stroke-width="1" stroke="rgb(255,255,255)" stroke-linejoin="miter" stroke-linecap="square" stroke-miterlimit="3"/><path d=" M 1.478 18.223 C 4.778 19.069 8.17 20.106 11.628 19.89 C 14.177 20.315 16.445 20.384 18.607 20.817 C 19.325 20.96 19.12 20.94 19.533 20.94" fill="none" vector-effect="non-scaling-stroke" stroke-width="1" stroke="rgb(255,255,255)" stroke-linejoin="miter" stroke-linecap="square" stroke-miterlimit="3"/><path d=" M 2.069 14.517 C 3.387 13.245 3.446 11.168 5.143 10.441" fill="none" vector-effect="non-scaling-stroke" stroke-width="1" stroke="rgb(255,255,255)" stroke-linejoin="miter" stroke-linecap="square" stroke-miterlimit="3"/><path d=" M 4.434 13.554 C 4.543 11.48 6.311 7.78 8.602 10.07" fill="none" vector-effect="non-scaling-stroke" stroke-width="1" stroke="rgb(255,255,255)" stroke-linejoin="miter" stroke-linecap="square" stroke-miterlimit="3"/><path d=" M 5.025 13.554 C 5.549 11.259 6.161 9.852 8.602 10.502" fill="none" vector-effect="non-scaling-stroke" stroke-width="1" stroke="rgb(255,255,255)" stroke-linejoin="miter" stroke-linecap="square" stroke-miterlimit="3"/><path d=" M 8.277 14.145 C 8.31 11.895 11.067 7.438 13.11 10.502" fill="none" vector-effect="non-scaling-stroke" stroke-width="1" stroke="rgb(255,255,255)" stroke-linejoin="miter" stroke-linecap="square" stroke-miterlimit="3"/><path d=" M 8.972 14.145 C 9.189 12.233 10.671 9.577 12.616 10.873" fill="none" vector-effect="non-scaling-stroke" stroke-width="1" stroke="rgb(255,255,255)" stroke-linejoin="miter" stroke-linecap="square" stroke-miterlimit="3"/><path d=" M 12.711 14.517 C 13.392 11.871 14.799 8.871 17.742 10.441" fill="none" vector-effect="non-scaling-stroke" stroke-width="1" stroke="rgb(255,255,255)" stroke-linejoin="miter" stroke-linecap="square" stroke-miterlimit="3"/><path d=" M 13.604 14.517 C 13.936 12.415 15.074 10.624 17.248 11.058" fill="none" vector-effect="non-scaling-stroke" stroke-width="1" stroke="rgb(255,255,255)" stroke-linejoin="miter" stroke-linecap="square" stroke-miterlimit="3"/><path d=" M 17.866 15.032 C 17.975 12.796 20.388 7.971 22.807 10.873" fill="none" vector-effect="non-scaling-stroke" stroke-width="1" stroke="rgb(255,255,255)" stroke-linejoin="miter" stroke-linecap="square" stroke-miterlimit="3"/><path d=" M 18.607 15.032 C 19.269 13.438 19.929 10.366 21.942 11.305" fill="none" vector-effect="non-scaling-stroke" stroke-width="1" stroke="rgb(255,255,255)" stroke-linejoin="miter" stroke-linecap="square" stroke-miterlimit="3"/><path d=" M 25.718 11.78 C 24.484 11.832 23.524 11.109 22.374 10.75" fill="none" vector-effect="non-scaling-stroke" stroke-width="1" stroke="rgb(255,255,255)" stroke-linejoin="miter" stroke-linecap="square" stroke-miterlimit="3"/><path d=" M 19.806 10.441 C 19.141 10.524 18.472 10.502 17.804 10.502" fill="none" vector-effect="non-scaling-stroke" stroke-width="1" stroke="rgb(255,255,255)" stroke-linejoin="miter" stroke-linecap="square" stroke-miterlimit="3"/><path d=" M 14.78 10.302 C 14.101 10.242 13.42 10.255 12.74 10.255" fill="none" vector-effect="non-scaling-stroke" stroke-width="1" stroke="rgb(255,255,255)" stroke-linejoin="miter" stroke-linecap="square" stroke-miterlimit="3"/><path d=" M 9.837 10.255 C 8.922 10.095 8.164 9.677 7.305 9.391" fill="none" vector-effect="non-scaling-stroke" stroke-width="1" stroke="rgb(255,255,255)" stroke-linejoin="miter" stroke-linecap="square" stroke-miterlimit="3"/><path d=" M 5.025 12.667 C 6.102 12.757 7.166 12.933 8.231 13.096" fill="none" vector-effect="non-scaling-stroke" stroke-width="1" stroke="rgb(255,255,255)" stroke-linejoin="miter" stroke-linecap="square" stroke-miterlimit="3"/><path d=" M 8.972 13.096 C 10.192 13.29 11.458 13.22 12.678 13.22" fill="none" vector-effect="non-scaling-stroke" stroke-width="1" stroke="rgb(255,255,255)" stroke-linejoin="miter" stroke-linecap="square" stroke-miterlimit="3"/><path d=" M 13.893 13.554 C 15.193 13.696 16.505 13.745 17.804 13.838" fill="none" vector-effect="non-scaling-stroke" stroke-width="1" stroke="rgb(255,255,255)" stroke-linejoin="miter" stroke-linecap="square" stroke-miterlimit="3"/><path d=" M 19.214 14.023 C 20.356 14.326 21.513 14.332 22.683 14.332" fill="none" vector-effect="non-scaling-stroke" stroke-width="1" stroke="rgb(255,255,255)" stroke-linejoin="miter" stroke-linecap="square" stroke-miterlimit="3"/><path d=" M 0 16.805 C 2.529 16.932 5.077 17.147 7.613 17.296 C 10.613 17.896 13.462 18.156 16.075 18.902 C 16.779 19.103 19.422 19.544 19.472 19.643" fill="none" vector-effect="non-scaling-stroke" stroke-width="1" stroke="rgb(255,255,255)" stroke-linejoin="miter" stroke-linecap="square" stroke-miterlimit="3"/><path d=" M 4.138 23.287 C 1.986 19.529 4.717 19.523 7.119 21.002 C 6.702 23.088 9.119 25.034 10.578 26.128 C 12.158 27.313 13.165 28.9 14.345 30.081" fill="none" vector-effect="non-scaling-stroke" stroke-width="1" stroke="rgb(255,255,255)" stroke-linejoin="miter" stroke-linecap="square" stroke-miterlimit="3"/><path d=" M 7.305 20.94 C 9.488 20.098 12.547 20.924 12.369 23.596 C 12.369 25.217 15.537 27.614 16.322 28.66 L 16.507 28.907" fill="none" vector-effect="non-scaling-stroke" stroke-width="1" stroke="rgb(255,255,255)" stroke-linejoin="miter" stroke-linecap="square" stroke-miterlimit="3"/><path d=" M 12.369 21.831 C 17.074 20.611 15.676 23.364 17.186 25.881 C 18.966 26.593 21.032 29.65 22.004 30.945 C 22.189 31.193 23.733 32.798 23.733 32.798" fill="none" vector-effect="non-scaling-stroke" stroke-width="1" stroke="rgb(255,255,255)" stroke-linejoin="miter" stroke-linecap="square" stroke-miterlimit="3"/><path d=" M 16.383 22.299 C 20.503 21.489 19.982 23.92 21.633 26.066 C 23.737 27.645 24.963 29.799 26.821 31.193 C 27.46 31.672 27.786 34.219 27.501 34.219" fill="none" vector-effect="non-scaling-stroke" stroke-width="1" stroke="rgb(255,255,255)" stroke-linejoin="miter" stroke-linecap="square" stroke-miterlimit="3"/><path d=" M 24.289 18.283 C 23.642 21.147 23.882 21.833 26.142 23.905 C 27.252 25.756 22.277 26.243 21.201 24.09 C 20.884 23.456 20.024 20.878 19.842 20.878" fill="none" vector-effect="non-scaling-stroke" stroke-width="1" stroke="rgb(255,255,255)" stroke-linejoin="miter" stroke-linecap="square" stroke-miterlimit="3"/><path d=" M 23.353 25.674 C 22.497 30.044 26.988 26.411 28.365 25.263" fill="none" vector-effect="non-scaling-stroke" stroke-width="1" stroke="rgb(255,255,255)" stroke-linejoin="miter" stroke-linecap="square" stroke-miterlimit="3"/><path d=" M 24.412 28.104 C 25.959 30.748 28.263 32.502 30.156 34.775" fill="none" vector-effect="non-scaling-stroke" stroke-width="1" stroke="rgb(255,255,255)" stroke-linejoin="miter" stroke-linecap="square" stroke-miterlimit="3"/><path d=" M 41.026 15.814 C 41.43 14.673 41.959 14.86 43.003 14.64" fill="none" vector-effect="non-scaling-stroke" stroke-width="1" stroke="rgb(255,255,255)" stroke-linejoin="miter" stroke-linecap="square" stroke-miterlimit="3"/><path d=" M 27.377 12.371 C 30.201 13.411 33.255 13.232 36.209 13.035 C 37.953 12.817 39.594 12.187 40.841 12.602 C 41.545 12.837 44.514 14.054 42.756 14.64" fill="none" vector-effect="non-scaling-stroke" stroke-width="1" stroke="rgb(255,255,255)" stroke-linejoin="miter" stroke-linecap="square" stroke-miterlimit="3"/><path d=" M 42.57 15.629 C 44.515 14.541 43.832 9.919 46.955 10.811 C 48.111 12.353 48.993 14.068 48.993 15.69" fill="none" vector-effect="non-scaling-stroke" stroke-width="1" stroke="rgb(255,255,255)" stroke-linejoin="miter" stroke-linecap="square" stroke-miterlimit="3"/><path d=" M 46.114 10.441 C 45.058 10.532 44.035 10.27 43.003 10.132" fill="none" vector-effect="non-scaling-stroke" stroke-width="1" stroke="rgb(255,255,255)" stroke-linejoin="miter" stroke-linecap="square" stroke-miterlimit="3"/><path d=" M 43.003 10.255 C 41.548 9.79 41.337 11.101 40.594 12.047" fill="none" vector-effect="non-scaling-stroke" stroke-width="1" stroke="rgb(255,255,255)" stroke-linejoin="miter" stroke-linecap="square" stroke-miterlimit="3"/><path d=" M 43.158 10.07 C 41.265 7.586 40.494 10.821 39.42 12.108" fill="none" vector-effect="non-scaling-stroke" stroke-width="1" stroke="rgb(255,255,255)" stroke-linejoin="miter" stroke-linecap="square" stroke-miterlimit="3"/><path d=" M 40.498 10.07 C 39.247 9.95 38.003 9.865 36.765 9.7" fill="none" vector-effect="non-scaling-stroke" stroke-width="1" stroke="rgb(255,255,255)" stroke-linejoin="miter" stroke-linecap="square" stroke-miterlimit="3"/><path d=" M 37.876 9.7 C 35.653 8.049 34.955 11.075 34.047 12.664" fill="none" vector-effect="non-scaling-stroke" stroke-width="1" stroke="rgb(255,255,255)" stroke-linejoin="miter" stroke-linecap="square" stroke-miterlimit="3"/><path d=" M 36.655 9.7 C 35.813 10.732 35.227 11.88 34.727 13.096" fill="none" vector-effect="non-scaling-stroke" stroke-width="1" stroke="rgb(255,255,255)" stroke-linejoin="miter" stroke-linecap="square" stroke-miterlimit="3"/><path d=" M 28.18 7.937 C 28.605 4.301 32.198 5.291 34.85 5.438 C 37.39 6.454 35.815 10.379 33.615 10.379 C 31.518 10.379 28.242 11.373 28.242 8.588 L 28.242 8.217 L 28.18 7.937 Z " fill="none" vector-effect="non-scaling-stroke" stroke-width="1" stroke="rgb(255,255,255)" stroke-linejoin="miter" stroke-linecap="square" stroke-miterlimit="3"/><path d=" M 34.047 5.277 C 31.454 5.236 28.859 5.253 26.265 5.253 C 23.787 5.253 19.947 4.486 18.051 5.623 C 15.411 7.208 17.1 10.194 19.472 10.194 L 19.78 10.194 L 20.089 10.194" fill="none" vector-effect="non-scaling-stroke" stroke-width="1" stroke="rgb(255,255,255)" stroke-linejoin="miter" stroke-linecap="square" stroke-miterlimit="3"/><path d=" M 22.683 10.441 C 25 10.542 27.28 10.564 29.6 10.564" fill="none" vector-effect="non-scaling-stroke" stroke-width="1" stroke="rgb(255,255,255)" stroke-linejoin="miter" stroke-linecap="square" stroke-miterlimit="3"/><path d=" M 31.33 10.564 C 30.924 11.231 30.493 11.939 30.033 12.541" fill="none" vector-effect="non-scaling-stroke" stroke-width="1" stroke="rgb(255,255,255)" stroke-linejoin="miter" stroke-linecap="square" stroke-miterlimit="3"/><path d=" M 30.447 10.441 C 30.097 11.224 29.584 11.908 29.106 12.602" fill="none" vector-effect="non-scaling-stroke" stroke-width="1" stroke="rgb(255,255,255)" stroke-linejoin="miter" stroke-linecap="square" stroke-miterlimit="3"/><path d=" M 28.18 10.441 C 27.958 11.052 27.766 11.681 27.562 12.294" fill="none" vector-effect="non-scaling-stroke" stroke-width="1" stroke="rgb(255,255,255)" stroke-linejoin="miter" stroke-linecap="square" stroke-miterlimit="3"/><path d=" M 29.106 6.164 C 31.212 6.479 35.852 4.976 35.653 8.156 C 34.992 9.477 29.39 10.416 28.489 9.514" fill="none" vector-effect="non-scaling-stroke" stroke-width="1" stroke="rgb(255,255,255)" stroke-linejoin="miter" stroke-linecap="square" stroke-miterlimit="3"/><path d=" M 29.265 16.51 C 29.923 16.317 30.597 16.195 31.268 16.061" fill="none" vector-effect="non-scaling-stroke" stroke-width="1" stroke="rgb(255,255,255)" stroke-linejoin="miter" stroke-linecap="square" stroke-miterlimit="3"/><path d=" M 6.996 34.589 C 9.041 35.543 11.041 36.535 13.357 36.689 C 15.777 36.689 15.333 34.219 16.445 33.107" fill="none" vector-effect="non-scaling-stroke" stroke-width="1" stroke="rgb(255,255,255)" stroke-linejoin="miter" stroke-linecap="square" stroke-miterlimit="3"/><path d=" M 10.642 30.995 C 13.01 32.02 15.457 32.665 17.866 33.601 C 20.174 34.525 22.404 34.774 24.412 35.578 C 25.271 35.921 27.024 36.212 27.377 36.566" fill="none" vector-effect="non-scaling-stroke" stroke-width="1" stroke="rgb(255,255,255)" stroke-linejoin="miter" stroke-linecap="square" stroke-miterlimit="3"/><path d=" M 13.893 36.998 C 14.692 37.541 15.54 37.807 16.445 38.048" fill="none" vector-effect="non-scaling-stroke" stroke-width="1" stroke="rgb(255,255,255)" stroke-linejoin="miter" stroke-linecap="square" stroke-miterlimit="3"/><path d=" M 18.175 33.951 C 18.032 35.688 16.808 36.623 16.692 38.357" fill="none" vector-effect="non-scaling-stroke" stroke-width="1" stroke="rgb(255,255,255)" stroke-linejoin="miter" stroke-linecap="square" stroke-miterlimit="3"/><path d=" M 18.175 41.636 C 20.454 40.728 19.917 37.924 20.707 35.948 C 20.83 35.639 21.139 34.713 21.139 34.713" fill="none" vector-effect="non-scaling-stroke" stroke-width="1" stroke="rgb(255,255,255)" stroke-linejoin="miter" stroke-linecap="square" stroke-miterlimit="3"/><path d=" M 20.707 37.793 C 21.821 38.252 22.776 38.672 23.98 38.913" fill="none" vector-effect="non-scaling-stroke" stroke-width="1" stroke="rgb(255,255,255)" stroke-linejoin="miter" stroke-linecap="square" stroke-miterlimit="3"/><path d=" M 23.98 40.454 C 23.817 38.789 24.047 37.119 24.474 35.516" fill="none" vector-effect="non-scaling-stroke" stroke-width="1" stroke="rgb(255,255,255)" stroke-linejoin="miter" stroke-linecap="square" stroke-miterlimit="3"/><path d=" M 15.371 35.578 C 15.91 36.061 16.533 36.259 17.186 36.504" fill="none" vector-effect="non-scaling-stroke" stroke-width="1" stroke="rgb(255,255,255)" stroke-linejoin="miter" stroke-linecap="square" stroke-miterlimit="3"/><defs><filter id="wzSwTpjWhWkgdvKQM2rRhA3tC1ZJJitF" x="-200%" y="-200%" width="400%" height="400%" filterUnits="objectBoundingBox" color-interpolation-filters="sRGB"><feGaussianBlur xmlns="http://www.w3.org/2000/svg" in="SourceGraphic" stdDeviation="2.146804531419514"/><feOffset xmlns="http://www.w3.org/2000/svg" dx="0" dy="0" result="pf_100_offsetBlur"/><feFlood xmlns="http://www.w3.org/2000/svg" flood-color="#000000" flood-opacity="0.65"/><feComposite xmlns="http://www.w3.org/2000/svg" in2="pf_100_offsetBlur" operator="in" result="pf_100_dropShadow"/><feBlend xmlns="http://www.w3.org/2000/svg" in="SourceGraphic" in2="pf_100_dropShadow" mode="normal"/></filter></defs><g filter="url(#wzSwTpjWhWkgdvKQM2rRhA3tC1ZJJitF)"><path d=" M 27.196 39.863 C 29.289 40.791 30.939 41.505 33.059 42.495 C 33.879 42.823 34.441 42.918 34.974 43.051" fill="none" vector-effect="non-scaling-stroke" stroke-width="1" stroke="rgb(255,255,255)" stroke-linejoin="miter" stroke-linecap="square" stroke-miterlimit="3"/></g><path d=" M 34.974 43.051 C 37.584 42.62 40.191 41.461 42.57 40.271 C 44.06 39.526 46.496 39.125 47.326 38.295" fill="none" vector-effect="non-scaling-stroke" stroke-width="1" stroke="rgb(255,255,255)" stroke-linejoin="miter" stroke-linecap="square" stroke-miterlimit="3"/><path d=" M 47.001 26.265 C 48.474 27.988 47.819 31.652 47.696 33.972 C 47.528 34.98 48.039 37.784 47.388 38.11" fill="none" vector-effect="non-scaling-stroke" stroke-width="1" stroke="rgb(255,255,255)" stroke-linejoin="miter" stroke-linecap="square" stroke-miterlimit="3"/><path d=" M 35.473 43.051 C 34.117 41.278 34.333 38.517 34.48 36.319 C 34.48 34.355 34.047 31.543 35.097 30.143 C 35.635 29.425 35.707 28.907 36.456 28.907" fill="none" vector-effect="non-scaling-stroke" stroke-width="1" stroke="rgb(255,255,255)" stroke-linejoin="miter" stroke-linecap="square" stroke-miterlimit="3"/><path d=" M 36.655 28.63 C 38.863 27.808 41.18 27.532 43.435 26.869 C 44.852 26.586 45.763 25.943 46.955 25.943" fill="none" vector-effect="non-scaling-stroke" stroke-width="1" stroke="rgb(255,255,255)" stroke-linejoin="miter" stroke-linecap="square" stroke-miterlimit="3"/><path d=" M 39.907 40.271 C 37.9 38.584 37.382 36.01 38 33.539 C 38.465 30.748 39.95 29.004 42.2 28.104 C 44.708 27.101 45.041 32.162 45.041 33.231 C 45.041 35.603 44.02 38.428 42.385 39.654 C 41.844 40.059 40.269 40.625 39.907 40.271 Z " fill="none" vector-effect="non-scaling-stroke" stroke-width="1" stroke="rgb(255,255,255)" stroke-linejoin="miter" stroke-linecap="square" stroke-miterlimit="3"/><path d=" M 43.435 28.63 C 42.592 29.922 42.483 31.33 42.385 32.798" fill="none" vector-effect="non-scaling-stroke" stroke-width="1" stroke="rgb(255,255,255)" stroke-linejoin="miter" stroke-linecap="square" stroke-miterlimit="3"/><path d=" M 41.68 28.63 C 41.029 30.132 41.187 31.46 41.953 32.737" fill="none" vector-effect="non-scaling-stroke" stroke-width="1" stroke="rgb(255,255,255)" stroke-linejoin="miter" stroke-linecap="square" stroke-miterlimit="3"/><path d=" M 39.907 29.896 C 39.78 31.518 40.386 32.644 41.891 33.045" fill="none" vector-effect="non-scaling-stroke" stroke-width="1" stroke="rgb(255,255,255)" stroke-linejoin="miter" stroke-linecap="square" stroke-miterlimit="3"/><path d=" M 38.429 31.881 C 39.145 33.493 39.92 33.785 41.459 33.478" fill="none" vector-effect="non-scaling-stroke" stroke-width="1" stroke="rgb(255,255,255)" stroke-linejoin="miter" stroke-linecap="square" stroke-miterlimit="3"/><path d=" M 38.429 34.246 C 39.496 35.167 40.204 34.456 41.335 33.972" fill="none" vector-effect="non-scaling-stroke" stroke-width="1" stroke="rgb(255,255,255)" stroke-linejoin="miter" stroke-linecap="square" stroke-miterlimit="3"/><path d=" M 38.133 36.504 C 39.358 36.074 40.378 35.284 41.15 34.281" fill="none" vector-effect="non-scaling-stroke" stroke-width="1" stroke="rgb(255,255,255)" stroke-linejoin="miter" stroke-linecap="square" stroke-miterlimit="3"/><path d=" M 38.724 38.357 C 40.191 37.477 40.781 36.001 41.15 34.404" fill="none" vector-effect="non-scaling-stroke" stroke-width="1" stroke="rgb(255,255,255)" stroke-linejoin="miter" stroke-linecap="square" stroke-miterlimit="3"/><path d=" M 40.498 40.271 C 41.859 38.437 41.489 36.359 41.212 34.281" fill="none" vector-effect="non-scaling-stroke" stroke-width="1" stroke="rgb(255,255,255)" stroke-linejoin="miter" stroke-linecap="square" stroke-miterlimit="3"/><path d=" M 43.158 38.604 C 43.302 37.35 42.446 35.812 41.459 35.022" fill="none" vector-effect="non-scaling-stroke" stroke-width="1" stroke="rgb(255,255,255)" stroke-linejoin="miter" stroke-linecap="square" stroke-miterlimit="3"/><path d=" M 41.953 35.133 C 43.108 34.115 43.683 34.928 44.608 35.639" fill="none" vector-effect="non-scaling-stroke" stroke-width="1" stroke="rgb(255,255,255)" stroke-linejoin="miter" stroke-linecap="square" stroke-miterlimit="3"/><path d=" M 42.57 33.601 C 43.86 33.74 44.039 34.417 44.608 35.392" fill="none" vector-effect="non-scaling-stroke" stroke-width="1" stroke="rgb(255,255,255)" stroke-linejoin="miter" stroke-linecap="square" stroke-miterlimit="3"/><path d=" M 42.57 33.416 C 43.314 32.886 44.072 32.972 44.855 32.86" fill="none" vector-effect="non-scaling-stroke" stroke-width="1" stroke="rgb(255,255,255)" stroke-linejoin="miter" stroke-linecap="square" stroke-miterlimit="3"/><path d=" M 42.57 33.045 C 43.174 31.962 43.826 30.99 44.67 30.266" fill="none" vector-effect="non-scaling-stroke" stroke-width="1" stroke="rgb(255,255,255)" stroke-linejoin="miter" stroke-linecap="square" stroke-miterlimit="3"/><path d=" M 42.2 35.133 C 41.122 34.886 41.638 32.943 42.385 32.86 C 42.743 32.82 43.171 35.754 42.2 35.133 Z " fill="none" vector-effect="non-scaling-stroke" stroke-width="1" stroke="rgb(255,255,255)" stroke-linejoin="miter" stroke-linecap="square" stroke-miterlimit="3"/><path d=" M 29.856 40.749 C 29.919 39.564 29.998 38.372 30.156 37.183" fill="none" vector-effect="non-scaling-stroke" stroke-width="1" stroke="rgb(255,255,255)" stroke-linejoin="miter" stroke-linecap="square" stroke-miterlimit="3"/><path d=" M 30.447 34.589 C 30.973 32.754 30.808 29.067 32.812 28.351" fill="none" vector-effect="non-scaling-stroke" stroke-width="1" stroke="rgb(255,255,255)" stroke-linejoin="miter" stroke-linecap="square" stroke-miterlimit="3"/><path d=" M 32.812 28.351 C 35.174 29.261 36.871 27.455 39.173 27.302 C 40.781 27.302 42.095 26.499 43.311 26.499" fill="none" vector-effect="non-scaling-stroke" stroke-width="1" stroke="rgb(255,255,255)" stroke-linejoin="miter" stroke-linecap="square" stroke-miterlimit="3"/><path d=" M 31.33 23.604 C 32.43 25.167 33.746 26.815 35.159 28.228" fill="none" vector-effect="non-scaling-stroke" stroke-width="1" stroke="rgb(255,255,255)" stroke-linejoin="miter" stroke-linecap="square" stroke-miterlimit="3"/><path d=" M 29.561 25.943 C 30.388 26.937 31.159 27.848 32.009 28.784" fill="none" vector-effect="non-scaling-stroke" stroke-width="1" stroke="rgb(255,255,255)" stroke-linejoin="miter" stroke-linecap="square" stroke-miterlimit="3"/><path d=" M 40.793 27.302 C 41.558 25.045 43.017 23.094 43.929 20.878" fill="none" vector-effect="non-scaling-stroke" stroke-width="1" stroke="rgb(255,255,255)" stroke-linejoin="miter" stroke-linecap="square" stroke-miterlimit="3"/><path d=" M 42.57 26.499 C 43.715 24.877 44.591 23.046 45.288 21.187" fill="none" vector-effect="non-scaling-stroke" stroke-width="1" stroke="rgb(255,255,255)" stroke-linejoin="miter" stroke-linecap="square" stroke-miterlimit="3"/><path d=" M 43.435 25.674 C 44.678 25.457 45.626 25.423 46.77 25.881" fill="none" vector-effect="non-scaling-stroke" stroke-width="1" stroke="rgb(255,255,255)" stroke-linejoin="miter" stroke-linecap="square" stroke-miterlimit="3"/><path d=" M 44.608 25.674 C 45.79 24.08 47.506 22.322 45.35 21.064" fill="none" vector-effect="non-scaling-stroke" stroke-width="1" stroke="rgb(255,255,255)" stroke-linejoin="miter" stroke-linecap="square" stroke-miterlimit="3"/><path d=" M 45.523 21.187 C 47.912 21.31 49.336 17.848 48.932 15.69 C 47.088 12.617 44.2 15.078 43.744 17.358 L 43.682 17.667" fill="none" vector-effect="non-scaling-stroke" stroke-width="1" stroke="rgb(255,255,255)" stroke-linejoin="miter" stroke-linecap="square" stroke-miterlimit="3"/><path d=" M 43.744 20.878 C 44.737 18.58 43.941 15.993 41.212 15.629" fill="none" vector-effect="non-scaling-stroke" stroke-width="1" stroke="rgb(255,255,255)" stroke-linejoin="miter" stroke-linecap="square" stroke-miterlimit="3"/><path d=" M 36.655 25.943 C 37.978 23.637 39.125 21.305 39.915 18.778 C 40.243 17.956 40.648 16.192 41.026 15.814" fill="none" vector-effect="non-scaling-stroke" stroke-width="1" stroke="rgb(255,255,255)" stroke-linejoin="miter" stroke-linecap="square" stroke-miterlimit="3"/><path d=" M 31.33 16.214 C 32.847 18.521 34.475 20.726 35.529 23.287 C 35.911 24.242 36.263 25.129 36.641 25.696" fill="none" vector-effect="non-scaling-stroke" stroke-width="1" stroke="rgb(255,255,255)" stroke-linejoin="miter" stroke-linecap="square" stroke-miterlimit="3"/><path d=" M 23.648 21.064 C 26.364 22.926 27.059 27.714 30.65 24.893 C 33.089 23.674 31.029 19.651 30.033 18.655 C 29.786 18.408 28.489 16.864 28.489 16.864" fill="none" vector-effect="non-scaling-stroke" stroke-width="1" stroke="rgb(255,255,255)" stroke-linejoin="miter" stroke-linecap="square" stroke-miterlimit="3"/><path d=" M 23.98 18.655 C 24.685 15.652 28.494 14.807 28.921 18.223 C 28.414 20.76 26.234 21.193 24.289 21.064" fill="none" vector-effect="non-scaling-stroke" stroke-width="1" stroke="rgb(255,255,255)" stroke-linejoin="miter" stroke-linecap="square" stroke-miterlimit="3"/><path d=" M 5.025 31.29 C 1.711 31.861 3.593 34.798 5.822 35.392 C 7.823 37.393 9.277 38.399 11.628 39.407 C 13.855 40.361 16.147 41.924 18.236 41.507 C 20.224 41.109 19.336 40.688 21.448 41.321 C 22.276 41.57 23.12 41.952 23.98 42.124 C 27.131 42.754 27.228 40.946 26.759 38.604 C 26.06 35.106 29.665 37.286 31.391 36.998 C 34.794 36.431 33.508 33.718 31.33 34.589 C 29.958 35.138 26.172 33.873 25.03 33.416 C 22.735 32.498 20.279 31.737 18.175 31.316 C 15.839 30.849 13.408 30.163 11.504 29.401 C 10.447 28.978 4.586 28.088 6.996 29.896 C 7.965 30.622 9.002 30.513 9.775 30.822 C 11.297 31.431 10.493 32.608 8.972 32.304 C 7.491 32.008 6.396 31.254 5.025 31.29 Z " fill="none" vector-effect="non-scaling-stroke" stroke-width="1" stroke="rgb(255,255,255)" stroke-linejoin="miter" stroke-linecap="square" stroke-miterlimit="3"/><path d=" M 7.095 31.881 C 9.053 32.379 11.926 35.087 13.234 32.798 L 13.419 32.551 L 13.604 32.304" fill="none" vector-effect="non-scaling-stroke" stroke-width="1" stroke="rgb(255,255,255)" stroke-linejoin="miter" stroke-linecap="square" stroke-miterlimit="3"/></g></g></svg>