<?xml version="1.0" encoding="UTF-8" standalone="no"?><!-- Generator: Gravit.io --><svg xmlns="http://www.w3.org/2000/svg" xmlns:xlink="http://www.w3.org/1999/xlink" style="isolation:isolate" viewBox="0 0 50 50" width="50pt" height="50pt"><defs><clipPath id="_clipPath_4EB2ebbNCDoNz7YmG3MOVvbI9PrJmLt0"><rect width="50" height="50"/></clipPath></defs><g clip-path="url(#_clipPath_4EB2ebbNCDoNz7YmG3MOVvbI9PrJmLt0)"><g clip-path="url(#_clipPath_M1QgXkJreVLua1Fc0Noa6cUJe7O5HYkv)"><text transform="matrix(1,0,0,1,13.432,46.555)" style="font-family:'News Cycle';font-weight:700;font-size:8px;font-style:normal;fill:#ffffff;stroke:none;">REAR</text></g><defs><clipPath id="_clipPath_M1QgXkJreVLua1Fc0Noa6cUJe7O5HYkv"><rect x="0" y="0" width="36.375" height="13.156" transform="matrix(1,0,0,1,4.938,36.5)"/></clipPath></defs><path d=" M 11.314 37.864 L 11.125 37.625 L 11 29.375 L 11.871 27.952" fill="none" vector-effect="non-scaling-stroke" stroke-width="1" stroke="rgb(255,255,255)" stroke-linejoin="miter" stroke-linecap="square" stroke-miterlimit="3"/><g><line x1="37.875" y1="29.375" x2="37.875" y2="37.467" vector-effect="non-scaling-stroke" stroke-width="1" stroke="rgb(255,255,255)" stroke-linejoin="miter" stroke-linecap="square" stroke-miterlimit="3"/><path d=" M 11.871 27.952 L 18.875 16.5 L 11.125 16.625 L 11.125 8.375 L 37.875 8.5 L 37.75 16.125 L 29.75 16.25 L 37.875 29.375" fill="none" vector-effect="non-scaling-stroke" stroke-width="1" stroke="rgb(255,255,255)" stroke-linejoin="miter" stroke-linecap="square" stroke-miterlimit="3"/></g><line x1="5.75" y1="38.125" x2="46" y2="38.25" vector-effect="non-scaling-stroke" stroke-width="1" stroke-dasharray="1,4" stroke="rgb(255,255,255)" stroke-linejoin="miter" stroke-linecap="square" stroke-miterlimit="3"/><path d=" M 2.25 31.375 L 6.375 32.5 L 11.5 19.375 L 7 18 L 2.25 31.375 Z " fill="rgb(255,255,255)" vector-effect="non-scaling-stroke" stroke-width="1" stroke="rgb(255,255,255)" stroke-linejoin="miter" stroke-linecap="square" stroke-miterlimit="3"/><path d=" M 38.625 32.375 L 42.75 33.5 L 47.875 20.375 L 43.375 19 L 38.625 32.375 Z " fill="rgb(255,255,255)" vector-effect="non-scaling-stroke" stroke-width="1" stroke="rgb(255,255,255)" stroke-linejoin="miter" stroke-linecap="square" stroke-miterlimit="3"/><line x1="9.375" y1="25.875" x2="13.088" y2="25.831" vector-effect="non-scaling-stroke" stroke-width="1" stroke="rgb(255,255,255)" stroke-linejoin="miter" stroke-linecap="square" stroke-miterlimit="3"/><line x1="35.472" y1="25.567" x2="41.125" y2="25.5" vector-effect="non-scaling-stroke" stroke-width="1" stroke="rgb(255,255,255)" stroke-linejoin="miter" stroke-linecap="square" stroke-miterlimit="3"/><path d=" M 18.625 16.5 L 30.469 16.25 L 29.156 19.531 C 28.438 20.01 27.875 20.02 27.188 19.156 L 27.438 17.938 L 27.5 16.406 L 21.719 16.406 C 21.166 17.561 20.884 18.415 21.281 19.313 C 20.615 19.438 20.177 19.468 19.5 19 C 19.466 18.15 19.184 17.327 18.625 16.5 Z " fill="rgb(255,255,255)" vector-effect="non-scaling-stroke" stroke-width="1" stroke="rgb(255,255,255)" stroke-linejoin="miter" stroke-linecap="square" stroke-miterlimit="3"/><path d=" M 18.625 37 C 18.677 32.698 19.336 30.305 24.188 28.125 C 30.305 30.164 30.094 33.188 30.25 36.75" fill="none" vector-effect="non-scaling-stroke" stroke-width="1" stroke="rgb(255,255,255)" stroke-linejoin="miter" stroke-linecap="square" stroke-miterlimit="3"/></g></svg>