<?xml version="1.0" encoding="UTF-8" standalone="no"?><!-- Generator: Gravit.io --><svg xmlns="http://www.w3.org/2000/svg" xmlns:xlink="http://www.w3.org/1999/xlink" style="isolation:isolate" viewBox="0 0 50 50" width="50pt" height="50pt"><defs><clipPath id="_clipPath_YPzY8kHEueHeSrMvluQYtgSTJSSE6SxG"><rect width="50" height="50"/></clipPath></defs><g clip-path="url(#_clipPath_YPzY8kHEueHeSrMvluQYtgSTJSSE6SxG)"><g clip-path="url(#_clipPath_u74nqPKAK7KnNpBFCZzDXq8sBPYRycyf)"><text transform="matrix(1,0,0,1,9.5,39.027)" style="font-family:'News Cycle';font-weight:700;font-size:4px;font-style:normal;fill:#ffffff;stroke:none;">10</text></g><defs><clipPath id="_clipPath_u74nqPKAK7KnNpBFCZzDXq8sBPYRycyf"><rect x="0" y="0" width="7" height="6.578" transform="matrix(1,0,0,1,9.5,34)"/></clipPath></defs><g clip-path="url(#_clipPath_ufDdkESGXOouu4LRXyUa1WQ4vb8wlhug)"><text transform="matrix(1,0,0,1,6.375,30.027)" style="font-family:'News Cycle';font-weight:700;font-size:4px;font-style:normal;fill:#ffffff;stroke:none;">30</text></g><defs><clipPath id="_clipPath_ufDdkESGXOouu4LRXyUa1WQ4vb8wlhug"><rect x="0" y="0" width="7" height="6.578" transform="matrix(1,0,0,1,6.375,25)"/></clipPath></defs><g clip-path="url(#_clipPath_kauUDsx9RH0pC9XxdkCNRcH3xw280iUR)"><text transform="matrix(1,0,0,1,8.75,22.027)" style="font-family:'News Cycle';font-weight:700;font-size:4px;font-style:normal;fill:#ffffff;stroke:none;">50</text></g><defs><clipPath id="_clipPath_kauUDsx9RH0pC9XxdkCNRcH3xw280iUR"><rect x="0" y="0" width="7" height="6.578" transform="matrix(1,0,0,1,8.75,17)"/></clipPath></defs><g clip-path="url(#_clipPath_JecEscDqjFGEAYB0bc3do8ORda6rzbpf)"><text transform="matrix(1,0,0,1,14.056,17.027)" style="font-family:'News Cycle';font-weight:700;font-size:4px;font-style:normal;fill:#ffffff;stroke:none;">70</text></g><defs><clipPath id="_clipPath_JecEscDqjFGEAYB0bc3do8ORda6rzbpf"><rect x="0" y="0" width="7" height="6.578" transform="matrix(1,0,0,1,14.056,12)"/></clipPath></defs><g clip-path="url(#_clipPath_cMUnkbKxPGQc2izqTubMuh2nnCsM62Du)"><text transform="matrix(1,0,0,1,22.772,13.367)" style="font-family:'News Cycle';font-weight:700;font-size:4px;font-style:normal;fill:#ffffff;stroke:none;">90</text></g><defs><clipPath id="_clipPath_cMUnkbKxPGQc2izqTubMuh2nnCsM62Du"><rect x="0" y="0" width="7" height="6.578" transform="matrix(1,0,0,1,22.772,8.34)"/></clipPath></defs><g clip-path="url(#_clipPath_HgONIy2Pb0oBLB4XoZ9Rl7SCRAEOQPDh)"><text transform="matrix(1,0,0,1,30,17.027)" style="font-family:'News Cycle';font-weight:700;font-size:4px;font-style:normal;fill:#ffffff;stroke:none;">110</text></g><defs><clipPath id="_clipPath_HgONIy2Pb0oBLB4XoZ9Rl7SCRAEOQPDh"><rect x="0" y="0" width="8" height="6.578" transform="matrix(1,0,0,1,30,12)"/></clipPath></defs><g clip-path="url(#_clipPath_VzpCycgw7V3EqMPbj9gKTQ95wF56Yp2I)"><text transform="matrix(1,0,0,1,35,22.047)" style="font-family:'News Cycle';font-weight:700;font-size:4px;font-style:normal;fill:#ffffff;stroke:none;">130</text></g><defs><clipPath id="_clipPath_VzpCycgw7V3EqMPbj9gKTQ95wF56Yp2I"><rect x="0" y="0" width="9" height="6.578" transform="matrix(1,0,0,1,35,17.02)"/></clipPath></defs><g clip-path="url(#_clipPath_m3pWQLmoJHTz0D5cbw7qHuq4T57h0MrW)"><text transform="matrix(1,0,0,1,37,30.027)" style="font-family:'News Cycle';font-weight:700;font-size:4px;font-style:normal;fill:#ffffff;stroke:none;">150</text></g><defs><clipPath id="_clipPath_m3pWQLmoJHTz0D5cbw7qHuq4T57h0MrW"><rect x="0" y="0" width="9" height="6.578" transform="matrix(1,0,0,1,37,25)"/></clipPath></defs><g clip-path="url(#_clipPath_m0MXMlbFgndkoVKCtyBMG67Aj70CDdbV)"><text transform="matrix(1,0,0,1,35.117,39.027)" style="font-family:'News Cycle';font-weight:700;font-size:4px;font-style:normal;fill:#ffffff;stroke:none;">170</text></g><defs><clipPath id="_clipPath_m0MXMlbFgndkoVKCtyBMG67Aj70CDdbV"><rect x="0" y="0" width="8" height="6.578" transform="matrix(1,0,0,1,35.117,34)"/></clipPath></defs><path d=" M 24.964 4.673 C 24.923 4.681 24.881 4.692 24.844 4.703 L 24.814 4.703 C 20.785 4.741 16.831 5.802 13.323 7.785 C 13.151 7.831 12.995 7.924 12.874 8.054 C 9.413 10.099 6.521 12.98 4.465 16.434 C 4.325 16.571 4.231 16.749 4.196 16.942 C 2.322 20.275 1.195 24.091 1.113 28.165 C 0.952 28.467 0.964 28.83 1.143 29.122 C 1.213 33.104 2.284 37.004 4.255 40.464 C 4.296 40.598 4.371 40.718 4.465 40.823 C 4.685 41.197 4.914 41.571 5.153 41.93 C 5.317 42.263 5.658 42.47 6.029 42.462 C 6.317 42.798 6.8 42.892 7.193 42.688 C 7.587 42.484 7.789 42.036 7.681 41.606 C 7.572 41.176 7.182 40.877 6.739 40.884 C 6.649 40.749 6.586 40.598 6.5 40.464 L 8.116 39.536 C 8.565 39.347 8.8 38.85 8.662 38.383 C 8.524 37.915 8.057 37.626 7.577 37.711 C 7.547 37.719 7.516 37.729 7.487 37.741 C 7.371 37.76 7.26 37.8 7.159 37.861 L 5.511 38.818 C 4.027 35.963 3.189 32.816 3.059 29.601 L 4.944 29.601 C 5.288 29.605 5.609 29.425 5.785 29.126 C 5.957 28.827 5.957 28.459 5.785 28.161 C 5.609 27.862 5.287 27.682 4.944 27.686 L 3.058 27.686 C 3.189 24.47 4.027 21.323 5.512 18.469 L 7.158 19.426 C 7.622 19.691 8.209 19.532 8.474 19.067 C 8.602 18.845 8.636 18.581 8.568 18.334 C 8.501 18.087 8.338 17.877 8.115 17.75 L 6.47 16.793 C 8.198 14.085 10.496 11.787 13.203 10.06 L 14.161 11.706 C 14.426 12.169 15.013 12.33 15.477 12.064 C 15.941 11.799 16.102 11.212 15.837 10.748 L 14.879 9.101 C 17.734 7.616 20.881 6.779 24.096 6.649 L 24.096 8.533 C 24.092 8.878 24.272 9.199 24.571 9.375 C 24.871 9.547 25.237 9.547 25.536 9.375 C 25.835 9.199 26.015 8.877 26.011 8.533 L 26.011 6.648 C 29.226 6.781 32.373 7.618 35.228 9.102 L 34.271 10.747 C 34.143 10.969 34.109 11.233 34.177 11.481 C 34.244 11.728 34.407 11.938 34.63 12.065 C 34.852 12.192 35.116 12.226 35.363 12.158 C 35.61 12.091 35.82 11.928 35.947 11.705 L 36.904 10.06 C 39.61 11.789 41.908 14.087 43.637 16.793 L 41.992 17.75 C 41.685 17.918 41.492 18.238 41.488 18.587 C 41.484 18.937 41.67 19.261 41.973 19.435 C 42.276 19.609 42.65 19.606 42.95 19.426 L 44.595 18.469 C 46.079 21.324 46.917 24.471 47.05 27.686 L 45.075 27.686 C 44.548 27.712 44.136 28.161 44.162 28.688 C 44.188 29.215 44.637 29.627 45.165 29.601 L 47.05 29.601 C 46.917 32.816 46.079 35.963 44.596 38.818 L 42.951 37.861 C 42.752 37.743 42.518 37.7 42.291 37.741 C 41.882 37.804 41.56 38.122 41.49 38.53 C 41.423 38.938 41.624 39.346 41.991 39.536 L 43.608 40.464 C 43.522 40.598 43.458 40.752 43.368 40.883 C 43.071 41.321 43.185 41.917 43.623 42.214 C 44.06 42.512 44.657 42.398 44.954 41.96 C 45.201 41.59 45.414 41.205 45.643 40.823 C 45.732 40.738 45.803 40.637 45.852 40.524 C 47.888 36.958 48.97 32.929 48.994 28.823 C 49.002 28.764 49.002 28.703 48.994 28.643 L 48.994 28.524 C 48.98 24.525 47.961 20.594 46.031 17.092 C 46.031 16.763 45.859 16.46 45.583 16.284 C 43.537 12.902 40.69 10.075 37.292 8.054 C 37.176 7.939 37.032 7.856 36.874 7.815 C 33.333 5.802 29.336 4.731 25.263 4.703 C 25.166 4.676 25.065 4.666 24.964 4.673 Z  M 40.108 19.726 L 27.658 24.634 C 26.886 24.124 25.98 23.853 25.054 23.855 C 22.42 23.855 20.266 26.01 20.266 28.643 C 20.266 31.277 22.42 33.431 25.054 33.431 C 27.687 33.431 29.842 31.277 29.842 28.643 L 29.842 28.614 L 40.316 20.084 L 40.108 19.726 Z  M 25.054 25.77 C 26.655 25.77 27.927 27.046 27.927 28.643 C 27.927 30.241 26.655 31.516 25.054 31.516 C 23.453 31.516 22.181 30.241 22.181 28.643 C 22.181 27.046 23.453 25.77 25.054 25.77 Z  M 15.297 40.135 C 14.84 40.222 14.512 40.627 14.52 41.092 L 14.52 44.923 C 14.52 45.45 14.951 45.881 15.477 45.881 L 34.63 45.881 C 35.157 45.881 35.588 45.45 35.588 44.923 L 35.588 41.092 C 35.588 40.566 35.157 40.135 34.63 40.135 L 15.297 40.135 Z  M 16.435 42.05 L 33.672 42.05 L 33.672 43.965 L 16.435 43.965 L 16.435 42.05 Z " fill="rgb(255,255,255)"/></g></svg>