<?xml version="1.0" encoding="UTF-8" standalone="no"?><!-- Generator: Gravit.io --><svg xmlns="http://www.w3.org/2000/svg" xmlns:xlink="http://www.w3.org/1999/xlink" style="isolation:isolate" viewBox="0 0 50 50" width="50pt" height="50pt"><defs><clipPath id="_clipPath_LUkcedUha8NcFhIeUIVdUsFyWWOvRYwp"><rect width="50" height="50"/></clipPath></defs><g clip-path="url(#_clipPath_LUkcedUha8NcFhIeUIVdUsFyWWOvRYwp)"><g><path d=" M 8.406 22.051 L 6.726 23.303 C 6.314 23.611 6.074 23.886 5.714 24.657 C 5.629 24.931 5.431 25.41 5.504 25.686 C 5.513 26.209 5.659 26.481 5.832 26.689 C 6.101 26.997 6.431 27.356 6.893 27.595 L 8.131 28.36 L 7.72 29.937 L 7.634 31.223 C 7.566 31.943 7.665 32.745 7.891 33.623 C 8.242 34.108 8.712 34.606 9.366 35.08 L 11.56 36.589 L 12.582 39.321 C 12.611 39.832 12.814 40.767 13 41.269 L 14.166 42.349 L 15.469 42.897 L 17.251 43.24 L 19.171 43.514 L 20.68 43.446 L 20.063 34.394 L 18.143 32.68 L 16.84 31.24 L 15.606 29.731 L 14.646 28.429 L 9.571 28.634 L 8.2 28.429" fill="none" vector-effect="non-scaling-stroke" stroke-width="1" stroke="rgb(255,255,255)" stroke-linejoin="miter" stroke-linecap="square" stroke-miterlimit="3"/><path d=" M 8.406 22.051 L 6.554 20.817 C 6.414 20.373 6.324 19.986 6.28 19.651 C 6.268 19.278 6.324 18.865 6.443 18.409 C 6.477 17.911 6.723 17.457 6.991 17.089 C 7.246 16.814 7.659 16.002 8.438 14.906 Q 9.159 13.891 10.875 11.656 C 12.281 10.156 13.148 9.58 14.851 8.2 C 15.66 7.609 16.203 7.141 17.389 6.554 C 18.859 5.828 20.142 5.532 21.454 5.185 C 22.591 4.934 23.459 4.78 24.589 4.703 C 25.39 4.686 26.082 4.78 27.259 4.915 C 28.879 5.185 30.229 5.532 31.617 6.149 C 32.851 6.728 34.144 7.576 35.629 8.68 C 37.062 9.91 38.289 11.077 38.969 12.063 C 39.684 13.002 40.777 14.104 41.625 15.406 C 42.074 16.096 42.538 17.139 42.875 17.594 C 43.326 18.025 43.271 18.524 43.656 19.219 C 43.7 19.601 43.82 19.989 43.688 20.281 C 43.411 20.894 43.443 21.332 43.111 21.559 L 41.594 22.737 C 42.439 23.341 43.034 23.738 43.439 24.143 C 43.96 24.625 44.2 25.223 44.243 25.66 C 44.226 26.354 44.046 26.738 43.651 27.263 L 42.211 28.634 L 41.594 28.977 L 42.074 30.829 C 42.126 31.489 42.106 32.113 42.053 32.731 C 41.658 33.875 41.217 34.546 41.046 34.737 C 40.899 34.93 40.397 35.343 39.537 35.971 C 38.931 36.496 38.492 36.852 38.123 36.974 C 37.85 37.055 36.317 39.635 36.074 40.24 C 36.017 40.726 35.641 41.316 34.943 42.006 C 33.649 42.608 32.272 42.968 30.807 43.081 L 28.776 43.197 L 29.457 34.531 L 31.651 32.474 L 33.503 30.691 L 34.737 29.457 L 35.286 28.909 L 41.663 28.977" fill="none" vector-effect="non-scaling-stroke" stroke-width="1" stroke="rgb(255,255,255)" stroke-linejoin="miter" stroke-linecap="square" stroke-miterlimit="3"/><path d=" M 8.406 22.051 L 15.674 20.886 L 17.153 19.996 C 17.388 19.504 17.749 18.984 18.233 18.434 C 18.687 17.98 19.161 17.565 19.651 17.183 C 20.091 16.888 20.775 16.483 21.203 16.319 C 21.867 16.049 22.716 15.797 23.389 15.676 C 24.146 15.546 25.074 15.512 25.921 15.576 C 26.694 15.676 27.429 15.87 28.291 16.154 L 30.006 16.977 C 31.06 17.75 31.894 18.558 32.504 19.399 L 33.134 20.337 L 34.189 21.091 L 34.943 21.503 L 41.594 22.669" fill="none" vector-effect="non-scaling-stroke" stroke-width="1" stroke="rgb(255,255,255)" stroke-linejoin="miter" stroke-linecap="square" stroke-miterlimit="3"/><mask id="_mask_KT3wbagxX31oNMDy8S5ex06qNfqvc2Oo"><ellipse vector-effect="non-scaling-stroke" cx="24.99999999999998" cy="24.72571428571427" rx="3.154285714285713" ry="3.222857142857144" fill="white" stroke="none"/></mask><ellipse vector-effect="non-scaling-stroke" cx="24.99999999999998" cy="24.72571428571427" rx="3.154285714285713" ry="3.222857142857144" fill="none"/><ellipse vector-effect="non-scaling-stroke" cx="24.99999999999998" cy="24.72571428571427" rx="3.154285714285713" ry="3.222857142857144" fill="none" mask="url(#_mask_KT3wbagxX31oNMDy8S5ex06qNfqvc2Oo)" stroke-width="2" stroke="rgb(255,255,255)" stroke-linejoin="miter" stroke-linecap="square" stroke-miterlimit="3"/><mask id="_mask_8D9DPHCN7zswmbtd90VHX6hFfWetBaie"><ellipse vector-effect="non-scaling-stroke" cx="24.999999999999996" cy="24.554285714285705" rx="24" ry="23.554285714285705" fill="white" stroke="none"/></mask><ellipse vector-effect="non-scaling-stroke" cx="24.999999999999996" cy="24.554285714285705" rx="24" ry="23.554285714285705" fill="none"/><ellipse vector-effect="non-scaling-stroke" cx="24.999999999999996" cy="24.554285714285705" rx="24" ry="23.554285714285705" fill="none" mask="url(#_mask_8D9DPHCN7zswmbtd90VHX6hFfWetBaie)" stroke-width="4" stroke="rgb(255,255,255)" stroke-linejoin="miter" stroke-linecap="square" stroke-miterlimit="3"/><mask id="_mask_PjvdoZtwZziYNM3qTdg1Tsd3HjeURnqp"><ellipse vector-effect="non-scaling-stroke" cx="24.999999999999986" cy="24.48571428571427" rx="9.188571428571429" ry="9.017142857142854" fill="white" stroke="none"/></mask><ellipse vector-effect="non-scaling-stroke" cx="24.999999999999986" cy="24.48571428571427" rx="9.188571428571429" ry="9.017142857142854" fill="none"/><ellipse vector-effect="non-scaling-stroke" cx="24.999999999999986" cy="24.48571428571427" rx="9.188571428571429" ry="9.017142857142854" fill="none" mask="url(#_mask_PjvdoZtwZziYNM3qTdg1Tsd3HjeURnqp)" stroke-width="2" stroke="rgb(255,255,255)" stroke-linejoin="miter" stroke-linecap="square" stroke-miterlimit="3"/><path d=" M 20.637 43.48 C 23.227 44.952 25.938 44.869 28.763 43.223" fill="none" vector-effect="non-scaling-stroke" stroke-width="1" stroke="rgb(255,255,255)" stroke-linejoin="miter" stroke-linecap="square" stroke-miterlimit="3"/></g></g></svg>