<?xml version="1.0" encoding="UTF-8" standalone="no"?><!-- Generator: Gravit.io --><svg xmlns="http://www.w3.org/2000/svg" xmlns:xlink="http://www.w3.org/1999/xlink" style="isolation:isolate" viewBox="0 0 50 50" width="50pt" height="50pt"><defs><clipPath id="_clipPath_6CFOfGcZwCNM0K6b0afLm4xdlJk9Qgbi"><rect width="50" height="50"/></clipPath></defs><g clip-path="url(#_clipPath_6CFOfGcZwCNM0K6b0afLm4xdlJk9Qgbi)"><path d=" M 14.881 5.195 C 14.881 5.195 18.138 4.064 18.138 4.064 C 19.417 3.851 20.353 3.958 19.365 2.377 C 16.898 0.733 15.772 4.163 15.071 5.215 L 14.917 5.445 L 14.881 5.195 Z " fill="rgb(255,255,255)" vector-effect="non-scaling-stroke" stroke-width="1" stroke="rgb(0,0,0)" stroke-linejoin="miter" stroke-linecap="square" stroke-miterlimit="3"/><path d=" M 14.534 7.732 C 16.882 5.385 17.953 5.905 20.439 7.285 C 19.95 8.752 19.721 8.964 18.675 8.666 C 16.958 8.175 15.946 9.641 14.764 10.429 C 13.762 11.097 13.712 8.03 14.534 7.732 Z " fill="rgb(255,255,255)" vector-effect="non-scaling-stroke" stroke-width="1" stroke="rgb(0,0,0)" stroke-linejoin="miter" stroke-linecap="square" stroke-miterlimit="3"/><path d=" M 14.074 14.287 C 14.074 14.287 17.448 12.423 17.448 12.423 C 17.837 12.356 18.087 13.216 18.598 12.577 C 19.214 11.807 19.286 10.342 19.058 9.433 C 17.196 7.57 13.997 11.138 13.997 12.73 C 13.997 13.39 14.227 14.309 14.074 14.287 Z " fill="rgb(255,255,255)" vector-effect="non-scaling-stroke" stroke-width="1" stroke="rgb(0,0,0)" stroke-linejoin="miter" stroke-linecap="square" stroke-miterlimit="3"/><path d=" M 14.534 17.035 C 15.942 16.05 16.721 15.726 18.291 16.718 C 19.177 17.277 19.527 14.579 18.752 13.804 C 16.808 12.508 13.469 13.994 14.074 16.411 C 14.15 16.718 15.301 16.334 14.534 17.035 Z " fill="rgb(255,255,255)" vector-effect="non-scaling-stroke" stroke-width="1" stroke="rgb(0,0,0)" stroke-linejoin="miter" stroke-linecap="square" stroke-miterlimit="3"/><path d=" M 14.074 22.11 C 14.849 20.78 18.309 21.751 18.291 21.626 C 18.101 20.291 18.87 19.103 18.215 17.791 C 16.548 16.125 14.366 18.204 13.767 19.402 C 13.396 20.143 13.466 20.635 14.074 22.11 Z " fill="rgb(255,255,255)" vector-effect="non-scaling-stroke" stroke-width="1" stroke="rgb(0,0,0)" stroke-linejoin="miter" stroke-linecap="square" stroke-miterlimit="3"/><path d=" M 13.767 26.762 C 13.767 26.762 14.227 22.776 14.227 22.776 C 14.767 21.695 17.912 22.626 18.521 23.083 C 19.166 23.727 19.413 26.201 18.752 26.994 C 18.224 27.627 16.674 25.525 15.761 26.074 C 14.358 26.915 13.916 27.003 13.767 26.762 Z " fill="rgb(255,255,255)" vector-effect="non-scaling-stroke" stroke-width="1" stroke="rgb(0,0,0)" stroke-linejoin="miter" stroke-linecap="square" stroke-miterlimit="3"/><path d=" M 14.074 30.779 C 17.961 31.253 18.483 32.973 18.905 28.758 C 17.355 25.659 14.074 26.302 14.074 29.218 C 14.074 29.929 14.204 30.905 14.074 30.779 Z " fill="rgb(255,255,255)" vector-effect="non-scaling-stroke" stroke-width="1" stroke="rgb(0,0,0)" stroke-linejoin="miter" stroke-linecap="square" stroke-miterlimit="3"/><path d=" M 15.147 34.796 C 15.654 34.899 16.859 34.539 17.448 34.893 C 19.204 35.947 18.855 36.373 19.518 35.046 C 19.967 34.15 19.099 33.183 18.598 32.515 C 17.542 31.459 13.092 30.774 14.764 33.282 C 15.261 34.028 15.26 34.315 15.147 34.796 Z " fill="rgb(255,255,255)" vector-effect="non-scaling-stroke" stroke-width="1" stroke="rgb(0,0,0)" stroke-linejoin="miter" stroke-linecap="square" stroke-miterlimit="3"/><path d=" M 15.147 37.968 C 17.471 40.87 20.944 37.977 18.598 35.966 C 16.252 33.621 12.87 35.299 15.454 37.883 L 15.147 37.968 Z " fill="rgb(255,255,255)" vector-effect="non-scaling-stroke" stroke-width="1" stroke="rgb(0,0,0)" stroke-linejoin="miter" stroke-linecap="square" stroke-miterlimit="3"/><path d=" M 16.15 41.562 C 16.558 41.561 18.972 42.761 19.135 42.638 C 20.855 41.348 19.751 40.381 18.445 39.801 C 17.586 39.228 17.021 38.919 16.221 38.957 C 13.946 39.065 14.903 41.564 16.15 41.562 Z " fill="rgb(255,255,255)" vector-effect="non-scaling-stroke" stroke-width="1" stroke="rgb(0,0,0)" stroke-linejoin="miter" stroke-linecap="square" stroke-miterlimit="3"/><path d=" M 18.828 5.829 C 20.148 2.671 14.89 4.988 15.377 6.288 C 16.838 5.923 18.099 5.752 18.828 5.829 Z " fill="rgb(255,255,255)" vector-effect="non-scaling-stroke" stroke-width="1" stroke="rgb(0,0,0)" stroke-linejoin="miter" stroke-linecap="square" stroke-miterlimit="3"/><path d=" M 19.365 5.982 C 19.257 6.155 19.636 4.167 20.209 4.294 C 20.389 4.334 20.5 4.526 20.669 4.601 C 20.739 4.632 20.823 4.614 20.899 4.601 C 20.961 4.591 19.674 2.837 21.436 2.837 C 21.512 2.837 21.589 2.837 21.666 2.837 C 21.742 2.837 21.82 2.825 21.896 2.837 C 21.975 2.851 22.049 2.889 22.126 2.914 C 24.641 4.591 20.691 3.484 22.663 5.061 C 23.022 5.349 23.307 5.567 22.893 5.982 C 22.739 6.135 19.672 5.752 19.365 5.982 Z " fill="rgb(255,255,255)" vector-effect="non-scaling-stroke" stroke-width="1" stroke="rgb(0,0,0)" stroke-linejoin="miter" stroke-linecap="square" stroke-miterlimit="3"/><path d=" M 19.955 9.212 C 19.955 9.212 20.975 6.672 20.975 6.672 C 21.563 6.336 22.925 9.032 22.969 9.433 C 23.48 10.963 20.294 9.286 22.969 11.426 C 23.026 11.472 23.072 11.529 23.123 11.58 C 23.573 12.03 23.235 12.105 23.046 12.577 C 21.91 15.416 18.43 13.052 19.212 12.27 C 19.684 11.798 21.089 11.256 21.129 11.196 C 21.455 10.707 18.684 9.327 19.518 9.049 L 19.748 8.972 L 19.955 9.212 Z " fill="rgb(255,255,255)" vector-effect="non-scaling-stroke" stroke-width="1" stroke="rgb(0,0,0)" stroke-linejoin="miter" stroke-linecap="square" stroke-miterlimit="3"/><path d=" M 19.365 17.331 C 19.365 17.331 20.439 14.417 20.439 14.417 C 20.922 14.256 22.275 17.169 22.433 17.485 C 22.822 19.044 21.516 18.715 20.975 18.175 C 20.975 18.175 22.816 20.245 22.816 20.245 C 22.816 22.774 21.764 23.66 19.979 22.469 C 19.122 21.899 18.445 21.701 18.445 20.782 C 18.445 19.95 19.474 18.513 20.362 19.402 C 20.592 19.632 19.365 17.945 19.365 17.945 C 19.093 17.563 18.991 16.862 19.365 17.331 Z " fill="rgb(255,255,255)" vector-effect="non-scaling-stroke" stroke-width="1" stroke="rgb(0,0,0)" stroke-linejoin="miter" stroke-linecap="square" stroke-miterlimit="3"/><path d=" M 19.518 28.758 C 20.136 31.3 19.572 32.026 22.049 33.512 C 22.641 33.315 23.059 30.567 22.893 29.985 C 22.68 29.239 21.206 28.951 21.206 28.528 C 21.206 27.077 23.162 30.146 22.663 27.147 C 22.65 27.072 22.663 26.994 22.663 26.917 C 22.663 26.573 22.592 26.251 22.509 25.92 C 21.973 23.773 19.748 23.445 19.748 25.46 C 19.748 27.139 21.199 29.341 20.439 28.834 C 20.209 28.681 19.365 28.451 19.518 28.758 Z " fill="rgb(255,255,255)" vector-effect="non-scaling-stroke" stroke-width="1" stroke="rgb(0,0,0)" stroke-linejoin="miter" stroke-linecap="square" stroke-miterlimit="3"/><path d=" M 21.436 37.193 C 23.914 39.899 22.83 34.405 21.512 33.819 C 18.214 33.819 20.31 36.654 20.745 37.96 C 20.822 38.19 19.365 38.727 19.365 38.727 C 19.365 39.843 20.642 40.559 21.589 40.874 C 22.971 41.335 22.668 40.043 22.969 39.34 C 22.969 39.34 22.356 37.423 21.436 37.193 Z " fill="rgb(255,255,255)" vector-effect="non-scaling-stroke" stroke-width="1" stroke="rgb(0,0,0)" stroke-linejoin="miter" stroke-linecap="square" stroke-miterlimit="3"/><path d=" M 20.669 41.351 C 21.76 41.657 23.103 42.138 23.66 43.252 C 23.66 43.252 22.126 43.635 22.126 43.635 C 22.126 43.635 23.66 44.479 23.66 44.479 C 24.217 46.708 18.962 46.072 19.442 44.632 C 19.941 43.134 21.689 44.068 19.902 42.638 C 19.83 42.58 19.719 42.564 19.672 42.485 C 19.405 42.04 20.14 41.556 20.362 41.334 L 20.515 41.181 L 20.669 41.351 Z " fill="rgb(255,255,255)" vector-effect="non-scaling-stroke" stroke-width="1" stroke="rgb(0,0,0)" stroke-linejoin="miter" stroke-linecap="square" stroke-miterlimit="3"/><path d=" M 20.975 45.791 C 21.802 46.226 22.449 46.523 23.199 47.086 C 24.393 47.981 22.701 48.006 22.279 48.006 C 22.202 48.006 22.049 47.929 22.049 48.006 C 22.049 48.089 23.805 48.073 23.429 48.543 C 23.372 48.615 23.276 48.645 23.199 48.696 C 22.282 49.002 21.44 48.696 20.745 48.696 C 18.694 48.696 20.854 47.262 20.745 47.009 C 20.7 46.904 20.592 46.817 20.592 46.702 C 20.592 45.706 20.525 45.724 20.975 45.791 Z " fill="rgb(255,255,255)" vector-effect="non-scaling-stroke" stroke-width="1" stroke="rgb(0,0,0)" stroke-linejoin="miter" stroke-linecap="square" stroke-miterlimit="3"/><path d=" M 16.361 44.172 C 13.74 42.497 18.625 41.86 19.212 43.328 C 19.462 43.953 18.768 45.043 18.598 45.552 C 20.535 47.489 17.956 47.464 16.911 46.549 C 16.2 45.927 16.381 45.023 15.761 44.402 L 15.607 44.248 L 16.361 44.172 Z " fill="rgb(255,255,255)" vector-effect="non-scaling-stroke" stroke-width="1" stroke="rgb(0,0,0)" stroke-linejoin="miter" stroke-linecap="square" stroke-miterlimit="3"/><path d=" M 22.433 2.377 C 21.541 2.706 19.298 2.426 20.669 1.227 C 21.005 0.933 20.589 0.537 21.896 0.537 C 22.814 0.537 23.334 0.911 22.279 1.227 C 23.979 1.793 22.876 2.149 22.433 2.377 Z " fill="rgb(255,255,255)" vector-effect="non-scaling-stroke" stroke-width="1" stroke="rgb(0,0,0)" stroke-linejoin="miter" stroke-linecap="square" stroke-miterlimit="3"/><path d=" M 19.442 0.92 C 19.442 0.92 17.908 0.92 17.908 0.92 C 17.918 0.88 19.938 0.8 19.979 0.92 C 20.118 1.34 18.057 2.038 17.755 1.534 C 17.715 1.468 17.755 1.38 17.755 1.304 C 18.179 0.879 18.261 1.044 19.442 0.92 Z " fill="rgb(255,255,255)" vector-effect="non-scaling-stroke" stroke-width="1" stroke="rgb(0,0,0)" stroke-linejoin="miter" stroke-linecap="square" stroke-miterlimit="3"/><path d=" M 26.087 0.92 C 25.526 1.502 22.018 0 24.35 0 C 26.816 0 25.472 0.537 24.81 0.537 L 25.117 0.613 L 26.087 0.92 Z " fill="rgb(255,255,255)" vector-effect="non-scaling-stroke" stroke-width="1" stroke="rgb(0,0,0)" stroke-linejoin="miter" stroke-linecap="square" stroke-miterlimit="3"/><path d=" M 24.81 1.534 C 25.558 0.029 28.5 1.934 26.727 2.377 C 25.559 2.669 25.495 2.987 26.727 3.911 C 26.414 4.224 23.852 3.84 23.506 3.681 C 21.188 2.611 26.413 2.377 24.426 2.377 C 23.175 2.377 25.077 1.417 24.81 1.534 Z " fill="rgb(255,255,255)" vector-effect="non-scaling-stroke" stroke-width="1" stroke="rgb(0,0,0)" stroke-linejoin="miter" stroke-linecap="square" stroke-miterlimit="3"/><path d=" M 24.81 5.215 C 22.835 3.09 28.873 4.258 26.804 5.982 C 26.471 6.259 26.545 6.439 26.497 6.825 C 26.497 7.828 25.729 6.941 25.27 7.285 C 25.27 7.285 26.497 8.512 26.497 8.512 C 26.539 8.582 26.56 8.663 26.574 8.742 C 26.586 8.818 26.62 8.911 26.574 8.972 C 26.525 9.037 26.423 9.036 26.344 9.049 C 26.268 9.062 26.189 9.062 26.114 9.049 C 23.616 8.633 28.046 9.271 25.653 8.972 C 25.524 8.956 25.399 8.912 25.27 8.896 C 25.194 8.886 25.115 8.911 25.04 8.896 C 21.44 8.176 23.736 7.093 23.736 5.368 C 23.736 4.985 24.733 4.755 24.81 5.215 Z " fill="rgb(255,255,255)" vector-effect="non-scaling-stroke" stroke-width="1" stroke="rgb(0,0,0)" stroke-linejoin="miter" stroke-linecap="square" stroke-miterlimit="3"/><path d=" M 24.58 11.196 C 21.884 9.053 25.882 8.588 26.957 9.663 C 27.312 10.728 27.88 11.615 27.34 12.423 C 27.34 12.423 26.114 15.261 26.114 15.261 C 23.33 15.261 27.086 15.179 26.497 16.948 C 26.474 17.016 26.411 17.074 26.344 17.101 C 26.344 17.101 25.883 17.178 25.883 17.178 C 25.808 17.191 25.726 17.202 25.653 17.178 C 23.995 16.625 20.79 16.267 22.279 14.034 C 23.269 12.549 23.89 12.058 24.58 11.196 Z " fill="rgb(255,255,255)" vector-effect="non-scaling-stroke" stroke-width="1" stroke="rgb(0,0,0)" stroke-linejoin="miter" stroke-linecap="square" stroke-miterlimit="3"/><path d=" M 25.04 20.245 C 21.495 18.66 25.467 15.791 26.574 18.558 C 28.009 20.472 26.727 22.025 26.727 23.926 C 26.727 25.615 24.81 23.381 24.81 24.463 C 24.81 24.999 26.43 25.029 26.65 25.69 C 27.638 28.654 23.4 25.814 22.969 25.383 C 22.266 24.68 22.902 22.805 23.506 22.546 C 24.125 22.281 23.754 21.189 23.966 20.552 C 24.086 20.193 24.966 20.32 25.04 20.245 Z " fill="rgb(255,255,255)" vector-effect="non-scaling-stroke" stroke-width="1" stroke="rgb(0,0,0)" stroke-linejoin="miter" stroke-linecap="square" stroke-miterlimit="3"/><path d=" M 23.199 28.834 C 23.02 25.956 25.987 27.367 27.34 28.528 C 27.34 29.729 27.975 29.899 27.417 30.828 C 26.892 31.704 26.344 32.29 26.344 33.282 C 26.344 34.188 24.817 34.371 24.963 34.663 C 25.237 35.21 26.557 35.026 26.88 35.429 C 27.046 35.637 26.825 35.989 26.65 36.12 C 25.489 36.991 22.15 35.511 22.586 34.202 C 22.663 33.972 23.66 29.601 23.66 29.601 C 23.977 29.495 25.347 30.404 25.347 29.755 C 25.347 29.755 23.353 28.834 23.199 28.834 Z " fill="rgb(255,255,255)" vector-effect="non-scaling-stroke" stroke-width="1" stroke="rgb(0,0,0)" stroke-linejoin="miter" stroke-linecap="square" stroke-miterlimit="3"/><path d=" M 23.966 37.883 C 24.095 35.037 27.273 36.806 28.107 38.267 C 28.981 39.14 27.169 39.463 26.88 40.184 C 26.405 41.372 28.165 41.718 26.114 41.718 C 26.033 41.718 25.92 41.722 25.883 41.794 C 25.847 41.867 25.879 42.025 25.96 42.025 C 27.996 42.025 26.812 43.996 25.04 43.405 C 24.963 43.379 24.888 43.35 24.81 43.328 C 24.708 43.299 24.608 43.265 24.503 43.252 C 24.151 43.208 23.9 43.233 23.583 43.021 C 22.766 42.477 24.069 38.389 24.503 38.497 C 24.82 38.576 25.557 38.743 25.5 38.574 C 25.5 38.574 24.503 38.037 23.966 37.883 Z " fill="rgb(255,255,255)" vector-effect="non-scaling-stroke" stroke-width="1" stroke="rgb(0,0,0)" stroke-linejoin="miter" stroke-linecap="square" stroke-miterlimit="3"/><path d=" M 25.5 44.945 C 22.088 43.918 26.082 42.896 27.571 44.172 C 28.162 45.06 26.874 45.199 27.034 46.319 C 27.133 47.014 25.96 46.43 25.96 46.549 C 25.96 46.893 27.853 46.385 27.11 47.623 C 27.073 47.685 27.027 47.794 26.957 47.776 C 26.074 47.555 23.815 47.251 23.66 46.472 C 23.66 46.472 25.193 45.245 25.193 45.245 C 25.117 45.015 25.347 44.632 25.5 44.945 Z " fill="rgb(255,255,255)" vector-effect="non-scaling-stroke" stroke-width="1" stroke="rgb(0,0,0)" stroke-linejoin="miter" stroke-linecap="square" stroke-miterlimit="3"/><path d=" M 24.35 48.006 C 25.124 47.911 27.207 47.528 27.724 48.39 C 28.2 49.184 26.163 48.727 26.114 48.926 C 25.956 49.558 27.813 49.15 26.42 49.847 C 25.741 49.847 22.975 50.041 24.273 49.003 C 24.273 49.003 24.503 47.776 24.35 48.006 Z " fill="rgb(255,255,255)" vector-effect="non-scaling-stroke" stroke-width="1" stroke="rgb(0,0,0)" stroke-linejoin="miter" stroke-linecap="square" stroke-miterlimit="3"/><path d=" M 28.107 0.613 C 28.982 0.381 29.817 0.312 30.715 0.537 C 30.715 0.537 29.258 0.997 29.258 0.997 C 29.326 1.168 30.766 2.008 29.794 2.147 C 29.302 2.218 29.165 2.002 28.798 1.917 C 28.473 1.701 27.412 1.133 27.34 0.92 C 27.247 0.64 28.337 0.929 28.337 0.844 C 28.337 0.768 27.599 0.623 27.571 0.537 C 27.548 0.468 27.652 0.383 27.724 0.383 C 27.975 0.383 28.474 0.584 28.107 0.613 Z " fill="rgb(255,255,255)" vector-effect="non-scaling-stroke" stroke-width="1" stroke="rgb(0,0,0)" stroke-linejoin="miter" stroke-linecap="square" stroke-miterlimit="3"/><path d=" M 30.316 2.837 C 29.423 2.545 28.055 1.586 27.264 2.377 C 26.822 2.82 28.91 3.708 28.491 3.988 C 27.995 4.318 27.07 2.986 27.801 4.448 C 28.137 5.458 29.269 6.277 30.025 5.521 C 31.247 4.299 28.855 3.662 29.718 3.834 C 31.479 4.187 30.438 2.744 30.316 2.837 Z " fill="rgb(255,255,255)" vector-effect="non-scaling-stroke" stroke-width="1" stroke="rgb(0,0,0)" stroke-linejoin="miter" stroke-linecap="square" stroke-miterlimit="3"/><path d=" M 30.715 6.825 C 29.97 6.419 28.255 4.977 27.417 5.982 C 26.282 7.344 27.934 7.724 28.414 8.589 C 29.316 9.491 27.042 7.865 27.264 8.972 C 27.486 10.085 28.465 10.71 29.181 11.426 C 29.543 11.789 30.161 10.237 30.255 9.816 C 30.36 9.342 29.104 8.206 29.334 7.975 C 29.594 7.715 29.994 8.542 30.255 8.282 C 30.408 8.129 30.715 6.288 30.715 6.825 Z " fill="rgb(255,255,255)" vector-effect="non-scaling-stroke" stroke-width="1" stroke="rgb(0,0,0)" stroke-linejoin="miter" stroke-linecap="square" stroke-miterlimit="3"/><path d=" M 30.715 13.441 C 28.68 9.956 25.849 14.819 27.954 15.721 C 28.638 15.949 29.166 16.733 29.411 17.101 C 29.411 17.101 27.724 15.644 27.724 15.644 C 27.561 15.753 27.653 17.195 27.724 17.408 C 28.03 18.326 28.158 18.788 28.567 19.402 C 29.718 21.127 29.327 20.1 30.331 19.095 C 30.857 18.57 31.033 17.423 30.715 17.025 C 30.417 16.652 29.477 15.438 29.794 15.491 C 29.941 15.515 30.463 15.561 30.561 15.414 C 30.715 15.184 30.715 12.883 30.715 13.441 Z " fill="rgb(255,255,255)" vector-effect="non-scaling-stroke" stroke-width="1" stroke="rgb(0,0,0)" stroke-linejoin="miter" stroke-linecap="square" stroke-miterlimit="3"/><path d=" M 30.025 25.07 C 34.348 23.86 29.013 19.917 27.877 21.242 C 27.877 22.432 26.452 24.166 27.494 25 C 27.943 25.359 28.84 25.237 29.104 25.767 C 29.191 25.94 29.336 26.458 28.874 26.304 C 25.833 25.29 27.65 27.612 28.721 29.218 C 30.197 31.432 31.619 27.506 30.715 26.15 C 30.415 25.7 30.138 24.617 30.025 25.07 Z " fill="rgb(255,255,255)" vector-effect="non-scaling-stroke" stroke-width="1" stroke="rgb(0,0,0)" stroke-linejoin="miter" stroke-linecap="square" stroke-miterlimit="3"/><path d=" M 31.584 32.047 C 29.435 30.848 26.012 30.932 27.571 34.049 C 29.607 35.407 25.917 35.616 28.337 38.037 C 29.877 39.576 31.727 36.358 30.025 35.506 C 28.79 34.889 30.441 33.916 30.791 33.666 C 31.037 33.49 32.024 31.442 31.584 32.047 Z " fill="rgb(255,255,255)" vector-effect="non-scaling-stroke" stroke-width="1" stroke="rgb(0,0,0)" stroke-linejoin="miter" stroke-linecap="square" stroke-miterlimit="3"/><path d=" M 30.331 39.801 C 28.837 38.916 28.928 38.602 27.34 40.031 C 25.419 41.76 30.201 41.827 28.031 42.791 C 27.051 43.036 28.533 44.998 29.258 44.709 C 29.534 44.598 30.515 43.385 30.638 43.098 C 31.217 41.747 29.955 42.352 29.641 41.411 C 29.281 40.331 31.696 39.124 30.331 39.801 Z " fill="rgb(255,255,255)" vector-effect="non-scaling-stroke" stroke-width="1" stroke="rgb(0,0,0)" stroke-linejoin="miter" stroke-linecap="square" stroke-miterlimit="3"/><path d=" M 30.561 45.791 C 30.363 45.631 27.692 44.871 27.647 45.629 C 27.647 45.629 28.567 47.086 28.567 47.086 C 28.453 47.316 27.719 47.041 27.647 47.469 C 27.528 48.183 28.671 48.197 29.028 48.236 C 29.714 48.236 30.408 47.758 30.408 47.239 C 30.408 47.239 30.331 44.479 30.561 45.791 Z " fill="rgb(255,255,255)" vector-effect="non-scaling-stroke" stroke-width="1" stroke="rgb(0,0,0)" stroke-linejoin="miter" stroke-linecap="square" stroke-miterlimit="3"/><path d=" M 34.166 2.377 C 33.506 2.122 30.638 0.735 30.638 2.531 C 30.638 2.899 34.329 4.178 34.779 4.678 C 37.021 6.173 35.096 2.224 34.166 2.377 Z " fill="rgb(255,255,255)" vector-effect="non-scaling-stroke" stroke-width="1" stroke="rgb(0,0,0)" stroke-linejoin="miter" stroke-linecap="square" stroke-miterlimit="3"/><path d=" M 33.276 5.521 C 32.71 5.025 31.964 4.47 31.635 3.758 C 31.592 3.664 34.859 5.255 35.239 5.445 C 35.985 5.818 35.929 6.312 35.929 7.055 C 35.929 8.25 30.781 7.438 31.021 5.752 C 31.117 5.08 33.081 5.828 33.276 5.521 Z " fill="rgb(255,255,255)" vector-effect="non-scaling-stroke" stroke-width="1" stroke="rgb(0,0,0)" stroke-linejoin="miter" stroke-linecap="square" stroke-miterlimit="3"/><path d=" M 35.929 10.692 C 34.593 9.954 31.175 9.985 31.175 8.129 C 31.175 7.058 33.485 7.674 33.936 7.899 C 34.163 8.013 34.286 8.199 34.472 8.359 C 35.79 8.798 36.376 8.32 36.006 9.893 C 35.881 10.424 35.085 10.276 35.929 10.692 Z " fill="rgb(255,255,255)" vector-effect="non-scaling-stroke" stroke-width="1" stroke="rgb(0,0,0)" stroke-linejoin="miter" stroke-linecap="square" stroke-miterlimit="3"/><path d=" M 36.006 13.804 C 35.478 13.202 29.699 12.413 30.868 10.66 C 31.318 9.985 34.671 10.613 35.316 10.89 C 35.421 10.935 35.52 10.992 35.623 11.043 C 37.245 12.124 36.228 12.693 36.006 13.804 Z " fill="rgb(255,255,255)" vector-effect="non-scaling-stroke" stroke-width="1" stroke="rgb(0,0,0)" stroke-linejoin="miter" stroke-linecap="square" stroke-miterlimit="3"/><path d=" M 36.006 18.175 C 30.857 18.828 29.844 13.77 34.779 14.264 C 35.724 14.264 36.62 14.74 36.62 15.491 C 36.62 16.933 37.434 17.056 36.006 18.175 Z " fill="rgb(255,255,255)" vector-effect="non-scaling-stroke" stroke-width="1" stroke="rgb(0,0,0)" stroke-linejoin="miter" stroke-linecap="square" stroke-miterlimit="3"/><path d=" M 36.62 19.095 C 35.687 19.194 33.614 18.106 32.862 18.482 C 28.564 20.63 32.192 21.305 32.862 21.472 C 32.462 23.072 40.298 22.62 36.696 19.018 L 36.543 18.865 L 36.62 19.095 Z " fill="rgb(255,255,255)" vector-effect="non-scaling-stroke" stroke-width="1" stroke="rgb(0,0,0)" stroke-linejoin="miter" stroke-linecap="square" stroke-miterlimit="3"/><path d=" M 36.16 26.304 C 35.628 27.065 32.091 28.361 31.635 26.994 C 31.425 26.365 31.885 24.994 31.942 24.31 C 33.15 23.504 39.074 22.891 37.31 25.537 C 37.01 25.987 36.146 26.241 36.16 26.304 Z " fill="rgb(255,255,255)" vector-effect="non-scaling-stroke" stroke-width="1" stroke="rgb(0,0,0)" stroke-linejoin="miter" stroke-linecap="square" stroke-miterlimit="3"/><path d=" M 37.003 27.147 C 36.597 31.036 28.255 32.214 32.555 28.451 C 33.969 27.508 35.716 27.572 37.003 27.147 Z " fill="rgb(255,255,255)" vector-effect="non-scaling-stroke" stroke-width="1" stroke="rgb(0,0,0)" stroke-linejoin="miter" stroke-linecap="square" stroke-miterlimit="3"/><path d=" M 32.632 32.047 C 34.048 31.599 34.468 31.34 36.083 31.902 C 36.083 31.902 35.699 33.972 35.699 33.972 C 35.527 35.008 34.624 34.868 33.706 35.276 C 30.799 35.857 32.632 33.322 32.632 32.047 Z " fill="rgb(255,255,255)" vector-effect="non-scaling-stroke" stroke-width="1" stroke="rgb(0,0,0)" stroke-linejoin="miter" stroke-linecap="square" stroke-miterlimit="3"/><path d=" M 36.083 35.642 C 37.801 37.988 33.317 41.587 31.865 39.264 C 29.458 36.857 34.475 36.476 35.699 35.66 L 36.083 35.642 Z " fill="rgb(255,255,255)" vector-effect="non-scaling-stroke" stroke-width="1" stroke="rgb(0,0,0)" stroke-linejoin="miter" stroke-linecap="square" stroke-miterlimit="3"/><path d=" M 35.699 39.801 C 36.538 43.005 31.328 45.235 31.328 41.258 C 31.328 40.672 31.853 40.666 32.248 40.567 C 32.632 40.491 35.699 39.801 35.699 39.801 Z " fill="rgb(255,255,255)" vector-effect="non-scaling-stroke" stroke-width="1" stroke="rgb(0,0,0)" stroke-linejoin="miter" stroke-linecap="square" stroke-miterlimit="3"/><path d=" M 35.239 43.405 C 35.239 43.405 32.325 44.555 32.325 44.555 C 31.046 45.146 32.531 46.803 33.936 45.399 C 33.987 45.348 34.032 45.289 34.089 45.245 C 34.727 44.755 35.123 44.436 35.623 43.865 L 35.776 43.558 L 35.239 43.405 Z " fill="rgb(255,255,255)" vector-effect="non-scaling-stroke" stroke-width="1" stroke="rgb(0,0,0)" stroke-linejoin="miter" stroke-linecap="square" stroke-miterlimit="3"/><path d=" M 34.779 45.629 C 34.779 45.629 34.089 47.163 34.089 47.163 C 31.035 49.835 29.729 47.292 33.015 46.396 C 33.515 46.259 33.836 46.1 34.319 45.859 L 34.549 45.706 L 34.779 45.629 Z " fill="rgb(255,255,255)" vector-effect="non-scaling-stroke" stroke-width="1" stroke="rgb(0,0,0)" stroke-linejoin="miter" stroke-linecap="square" stroke-miterlimit="3"/><path d=" M 17.63 1.178 C 16.253 2.704 14.974 4.384 14.534 6.365 C 14.534 8.476 13.383 10.169 13.383 11.963 C 13.383 13.911 13.077 15.643 13.077 17.331 C 13.077 19.399 13 21.158 13 22.929 C 13 25.166 13.077 27.151 13.077 29.141 C 13.077 31.779 13.509 34.933 14.074 37.193 C 14.674 39.595 14.324 41.806 15.147 43.865 C 16.079 46.194 16.969 47.594 18.061 49.233 C 18.215 49.463 18.828 49.847 18.828 49.847 M 32.642 0.844 C 34.303 2.223 35.504 4.015 36.16 5.982 C 36.16 7.532 36.588 9.875 37.003 11.12 C 37.5 12.61 37.463 14.76 37.463 16.104 C 37.463 17.82 37.54 19.274 37.54 20.782 C 37.54 22.255 37.219 24.267 37.617 25.46 C 37.961 26.494 37.809 29.255 37.54 30.061 C 37.042 31.555 37.08 33.328 37.08 34.663 C 37.08 36.097 37.229 38.356 36.85 39.494 C 36.377 40.911 36.006 42.927 36.006 44.172 C 36.006 45.919 34.584 47.44 34.166 48.696 M 18.828 49.847 C 18.828 49.847 22.509 50 22.509 50 C 23.21 50 23.873 50 24.58 50 C 26.433 50 28.026 50 29.641 50 C 31.342 50 32.924 49.432 34.166 48.696 M 17.63 1.178 C 19.43 0.13 21.344 0.27 23.276 0.077 C 25.095 0.077 26.683 0.153 28.261 0.153 C 29.348 0.153 31.867 0.069 32.642 0.844" fill-rule="evenodd" fill="none" vector-effect="non-scaling-stroke" stroke-width="1" stroke="rgb(0,0,0)" stroke-linejoin="miter" stroke-linecap="square" stroke-miterlimit="3"/></g></svg>