<?xml version="1.0" encoding="UTF-8" standalone="no"?><!-- Generator: Gravit.io --><svg xmlns="http://www.w3.org/2000/svg" xmlns:xlink="http://www.w3.org/1999/xlink" style="isolation:isolate" viewBox="0 0 50 50" width="50pt" height="50pt"><defs><clipPath id="_clipPath_axkuFMLH4gLzZVEu43sZm5X3UtHLzzXt"><rect width="50" height="50"/></clipPath></defs><g clip-path="url(#_clipPath_axkuFMLH4gLzZVEu43sZm5X3UtHLzzXt)"><g><path d=" M 15.58 7.864 C 15.58 7.864 18.316 6.914 18.316 6.914 C 19.39 6.735 20.176 6.824 19.347 5.497 C 17.275 4.116 16.328 6.997 15.739 7.88 L 15.61 8.074 L 15.58 7.864 Z " fill="none" vector-effect="non-scaling-stroke" stroke-width="1" stroke="rgb(255,255,255)" stroke-linejoin="miter" stroke-linecap="square" stroke-miterlimit="3"/><path d=" M 15.288 9.995 C 17.26 8.023 18.161 8.46 20.248 9.62 C 19.838 10.852 19.645 11.03 18.767 10.779 C 17.325 10.367 16.475 11.599 15.482 12.261 C 14.64 12.822 14.598 10.245 15.288 9.995 Z " fill="none" vector-effect="non-scaling-stroke" stroke-width="1" stroke="rgb(255,255,255)" stroke-linejoin="miter" stroke-linecap="square" stroke-miterlimit="3"/><path d=" M 14.902 15.501 C 14.902 15.501 17.736 13.936 17.736 13.936 C 18.063 13.879 18.273 14.601 18.702 14.064 C 19.22 13.418 19.28 12.188 19.089 11.423 C 17.525 9.859 14.837 12.856 14.837 14.193 C 14.837 14.747 15.031 15.52 14.902 15.501 Z " fill="none" vector-effect="non-scaling-stroke" stroke-width="1" stroke="rgb(255,255,255)" stroke-linejoin="miter" stroke-linecap="square" stroke-miterlimit="3"/><path d=" M 15.288 17.81 C 16.471 16.982 17.126 16.71 18.445 17.543 C 19.189 18.013 19.483 15.746 18.831 15.095 C 17.199 14.007 14.394 15.255 14.902 17.285 C 14.966 17.543 15.933 17.221 15.288 17.81 Z " fill="none" vector-effect="non-scaling-stroke" stroke-width="1" stroke="rgb(255,255,255)" stroke-linejoin="miter" stroke-linecap="square" stroke-miterlimit="3"/><path d=" M 14.902 22.072 C 15.553 20.955 18.46 21.771 18.445 21.666 C 18.285 20.544 18.931 19.546 18.38 18.445 C 16.98 17.045 15.147 18.792 14.644 19.798 C 14.333 20.42 14.392 20.833 14.902 22.072 Z " fill="none" vector-effect="non-scaling-stroke" stroke-width="1" stroke="rgb(255,255,255)" stroke-linejoin="miter" stroke-linecap="square" stroke-miterlimit="3"/><path d=" M 14.644 25.98 C 14.644 25.98 15.031 22.632 15.031 22.632 C 15.485 21.724 18.126 22.506 18.638 22.89 C 19.179 23.431 19.387 25.508 18.831 26.175 C 18.388 26.706 17.086 24.941 16.319 25.402 C 15.14 26.109 14.77 26.183 14.644 25.98 Z " fill="none" vector-effect="non-scaling-stroke" stroke-width="1" stroke="rgb(255,255,255)" stroke-linejoin="miter" stroke-linecap="square" stroke-miterlimit="3"/><path d=" M 14.902 29.354 C 18.167 29.752 18.606 31.197 18.96 27.656 C 17.659 25.053 14.902 25.593 14.902 28.043 C 14.902 28.64 15.011 29.46 14.902 29.354 Z " fill="none" vector-effect="non-scaling-stroke" stroke-width="1" stroke="rgb(255,255,255)" stroke-linejoin="miter" stroke-linecap="square" stroke-miterlimit="3"/><path d=" M 15.804 32.729 C 16.229 32.815 17.242 32.513 17.736 32.81 C 19.212 33.695 18.918 34.053 19.475 32.939 C 19.852 32.186 19.123 31.374 18.702 30.813 C 17.815 29.926 14.077 29.35 15.482 31.457 C 15.899 32.083 15.898 32.325 15.804 32.729 Z " fill="none" vector-effect="non-scaling-stroke" stroke-width="1" stroke="rgb(255,255,255)" stroke-linejoin="miter" stroke-linecap="square" stroke-miterlimit="3"/><path d=" M 15.804 35.393 C 17.755 37.831 20.673 35.4 18.702 33.712 C 16.732 31.741 13.891 33.151 16.061 35.322 L 15.804 35.393 Z " fill="none" vector-effect="non-scaling-stroke" stroke-width="1" stroke="rgb(255,255,255)" stroke-linejoin="miter" stroke-linecap="square" stroke-miterlimit="3"/><path d=" M 16.646 38.412 C 16.989 38.411 19.016 39.419 19.153 39.316 C 20.599 38.232 19.671 37.42 18.574 36.933 C 17.853 36.452 17.378 36.192 16.706 36.224 C 14.794 36.315 15.599 38.414 16.646 38.412 Z " fill="none" vector-effect="non-scaling-stroke" stroke-width="1" stroke="rgb(255,255,255)" stroke-linejoin="miter" stroke-linecap="square" stroke-miterlimit="3"/><path d=" M 18.896 8.397 C 20.004 5.744 15.587 7.69 15.997 8.782 C 17.224 8.476 18.283 8.331 18.896 8.397 Z " fill="none" vector-effect="non-scaling-stroke" stroke-width="1" stroke="rgb(255,255,255)" stroke-linejoin="miter" stroke-linecap="square" stroke-miterlimit="3"/><path d=" M 19.347 8.525 C 19.256 8.67 19.575 7.001 20.055 7.107 C 20.206 7.141 20.3 7.302 20.442 7.365 C 20.501 7.391 20.571 7.376 20.635 7.365 C 20.688 7.356 19.606 5.883 21.086 5.883 C 21.15 5.883 21.215 5.883 21.279 5.883 C 21.344 5.883 21.409 5.873 21.472 5.883 C 21.539 5.895 21.601 5.926 21.666 5.948 C 23.778 7.356 20.46 6.426 22.117 7.752 C 22.419 7.993 22.658 8.176 22.31 8.525 C 22.181 8.653 19.604 8.331 19.347 8.525 Z " fill="none" vector-effect="non-scaling-stroke" stroke-width="1" stroke="rgb(255,255,255)" stroke-linejoin="miter" stroke-linecap="square" stroke-miterlimit="3"/><path d=" M 19.843 11.238 C 19.843 11.238 20.699 9.104 20.699 9.104 C 21.193 8.822 22.337 11.087 22.374 11.423 C 22.803 12.709 20.127 11.3 22.374 13.098 C 22.422 13.136 22.46 13.184 22.503 13.227 C 22.881 13.605 22.597 13.668 22.439 14.064 C 21.485 16.45 18.561 14.464 19.218 13.807 C 19.615 13.41 20.795 12.955 20.828 12.905 C 21.102 12.494 18.775 11.335 19.475 11.101 L 19.669 11.037 L 19.843 11.238 Z " fill="none" vector-effect="non-scaling-stroke" stroke-width="1" stroke="rgb(255,255,255)" stroke-linejoin="miter" stroke-linecap="square" stroke-miterlimit="3"/><path d=" M 19.347 18.058 C 19.347 18.058 20.248 15.61 20.248 15.61 C 20.655 15.475 21.791 17.922 21.923 18.187 C 22.251 19.497 21.153 19.221 20.699 18.767 C 20.699 18.767 22.245 20.506 22.245 20.506 C 22.245 22.63 21.362 23.374 19.862 22.374 C 19.143 21.895 18.574 21.729 18.574 20.957 C 18.574 20.258 19.438 19.051 20.184 19.798 C 20.377 19.991 19.347 18.574 19.347 18.574 C 19.118 18.253 19.032 17.664 19.347 18.058 Z " fill="none" vector-effect="non-scaling-stroke" stroke-width="1" stroke="rgb(255,255,255)" stroke-linejoin="miter" stroke-linecap="square" stroke-miterlimit="3"/><path d=" M 19.475 27.656 C 19.994 29.792 19.52 30.402 21.601 31.65 C 22.098 31.485 22.45 29.176 22.31 28.687 C 22.131 28.061 20.893 27.819 20.893 27.463 C 20.893 26.245 22.536 28.823 22.117 26.304 C 22.106 26.24 22.117 26.175 22.117 26.11 C 22.117 25.821 22.057 25.551 21.988 25.273 C 21.537 23.47 19.669 23.194 19.669 24.887 C 19.669 26.297 20.887 28.147 20.248 27.721 C 20.055 27.592 19.347 27.399 19.475 27.656 Z " fill="none" vector-effect="non-scaling-stroke" stroke-width="1" stroke="rgb(255,255,255)" stroke-linejoin="miter" stroke-linecap="square" stroke-miterlimit="3"/><path d=" M 21.086 34.742 C 23.167 37.015 22.257 32.4 21.15 31.908 C 18.38 31.908 20.14 34.289 20.506 35.387 C 20.571 35.58 19.347 36.031 19.347 36.031 C 19.347 36.968 20.42 37.569 21.215 37.834 C 22.375 38.221 22.121 37.136 22.374 36.546 C 22.374 36.546 21.859 34.936 21.086 34.742 Z " fill="none" vector-effect="non-scaling-stroke" stroke-width="1" stroke="rgb(255,255,255)" stroke-linejoin="miter" stroke-linecap="square" stroke-miterlimit="3"/><path d=" M 20.442 38.235 C 21.358 38.492 22.486 38.896 22.954 39.831 C 22.954 39.831 21.666 40.153 21.666 40.153 C 21.666 40.153 22.954 40.862 22.954 40.862 C 23.422 42.735 19.008 42.2 19.411 40.991 C 19.831 39.732 21.299 40.517 19.798 39.316 C 19.737 39.268 19.644 39.254 19.604 39.187 C 19.38 38.814 19.998 38.407 20.184 38.221 L 20.313 38.092 L 20.442 38.235 Z " fill="none" vector-effect="non-scaling-stroke" stroke-width="1" stroke="rgb(255,255,255)" stroke-linejoin="miter" stroke-linecap="square" stroke-miterlimit="3"/><path d=" M 20.699 41.964 C 21.394 42.33 21.937 42.579 22.567 43.052 C 23.57 43.804 22.149 43.825 21.794 43.825 C 21.73 43.825 21.601 43.761 21.601 43.825 C 21.601 43.894 23.077 43.881 22.761 44.276 C 22.712 44.337 22.632 44.362 22.567 44.405 C 21.797 44.662 21.09 44.405 20.506 44.405 C 18.783 44.405 20.597 43.2 20.506 42.988 C 20.468 42.899 20.377 42.826 20.377 42.73 C 20.377 41.893 20.321 41.908 20.699 41.964 Z " fill="none" vector-effect="non-scaling-stroke" stroke-width="1" stroke="rgb(255,255,255)" stroke-linejoin="miter" stroke-linecap="square" stroke-miterlimit="3"/><path d=" M 16.823 40.604 C 14.622 39.198 18.725 38.663 19.218 39.896 C 19.428 40.421 18.845 41.336 18.702 41.764 C 20.329 43.39 18.163 43.37 17.285 42.601 C 16.688 42.079 16.84 41.319 16.319 40.798 L 16.19 40.669 L 16.823 40.604 Z " fill="none" vector-effect="non-scaling-stroke" stroke-width="1" stroke="rgb(255,255,255)" stroke-linejoin="miter" stroke-linecap="square" stroke-miterlimit="3"/><path d=" M 21.923 5.497 C 21.175 5.773 19.291 5.538 20.442 4.531 C 20.724 4.284 20.375 3.951 21.472 3.951 C 22.244 3.951 22.68 4.265 21.794 4.531 C 23.222 5.007 22.295 5.305 21.923 5.497 Z " fill="none" vector-effect="non-scaling-stroke" stroke-width="1" stroke="rgb(255,255,255)" stroke-linejoin="miter" stroke-linecap="square" stroke-miterlimit="3"/><path d=" M 19.411 4.273 C 19.411 4.273 18.123 4.273 18.123 4.273 C 18.131 4.239 19.828 4.172 19.862 4.273 C 19.979 4.625 18.248 5.212 17.994 4.788 C 17.961 4.733 17.994 4.66 17.994 4.595 C 18.35 4.238 18.419 4.377 19.411 4.273 Z " fill="none" vector-effect="non-scaling-stroke" stroke-width="1" stroke="rgb(255,255,255)" stroke-linejoin="miter" stroke-linecap="square" stroke-miterlimit="3"/><path d=" M 24.993 4.273 C 24.522 4.762 21.576 3.5 23.534 3.5 C 25.605 3.5 24.477 3.951 23.92 3.951 L 24.178 4.015 L 24.993 4.273 Z " fill="none" vector-effect="non-scaling-stroke" stroke-width="1" stroke="rgb(255,255,255)" stroke-linejoin="miter" stroke-linecap="square" stroke-miterlimit="3"/><path d=" M 23.92 4.788 C 24.549 3.524 27.02 5.125 25.531 5.497 C 24.55 5.742 24.496 6.009 25.531 6.785 C 25.268 7.048 23.115 6.726 22.825 6.592 C 20.878 5.693 25.267 5.497 23.598 5.497 C 22.547 5.497 24.145 4.691 23.92 4.788 Z " fill="none" vector-effect="non-scaling-stroke" stroke-width="1" stroke="rgb(255,255,255)" stroke-linejoin="miter" stroke-linecap="square" stroke-miterlimit="3"/><path d=" M 23.92 7.88 C 22.262 6.096 27.333 7.076 25.595 8.525 C 25.315 8.758 25.378 8.909 25.337 9.233 C 25.337 10.076 24.693 9.33 24.307 9.62 C 24.307 9.62 25.337 10.65 25.337 10.65 C 25.372 10.709 25.391 10.777 25.402 10.844 C 25.412 10.907 25.441 10.985 25.402 11.037 C 25.361 11.091 25.276 11.09 25.209 11.101 C 25.145 11.112 25.079 11.112 25.015 11.101 C 22.918 10.752 26.639 11.288 24.629 11.037 C 24.52 11.023 24.415 10.986 24.307 10.972 C 24.243 10.964 24.177 10.985 24.113 10.972 C 21.089 10.368 23.018 9.458 23.018 8.009 C 23.018 7.687 23.856 7.494 23.92 7.88 Z " fill="none" vector-effect="non-scaling-stroke" stroke-width="1" stroke="rgb(255,255,255)" stroke-linejoin="miter" stroke-linecap="square" stroke-miterlimit="3"/><path d=" M 23.727 12.905 C 21.463 11.105 24.821 10.714 25.724 11.617 C 26.022 12.511 26.499 13.256 26.046 13.936 C 26.046 13.936 25.015 16.319 25.015 16.319 C 22.677 16.319 25.833 16.251 25.337 17.736 C 25.318 17.794 25.265 17.842 25.209 17.865 C 25.209 17.865 24.822 17.929 24.822 17.929 C 24.759 17.94 24.69 17.95 24.629 17.929 C 23.236 17.465 20.544 17.164 21.794 15.288 C 22.626 14.041 23.147 13.629 23.727 12.905 Z " fill="none" vector-effect="non-scaling-stroke" stroke-width="1" stroke="rgb(255,255,255)" stroke-linejoin="miter" stroke-linecap="square" stroke-miterlimit="3"/><path d=" M 24.113 20.506 C 21.136 19.175 24.472 16.764 25.402 19.089 C 26.608 20.697 25.531 22.001 25.531 23.598 C 25.531 25.016 23.92 23.14 23.92 24.049 C 23.92 24.499 25.281 24.524 25.466 25.08 C 26.296 27.569 22.736 25.183 22.374 24.822 C 21.783 24.231 22.317 22.656 22.825 22.439 C 23.345 22.216 23.033 21.299 23.212 20.764 C 23.312 20.462 24.051 20.569 24.113 20.506 Z " fill="none" vector-effect="non-scaling-stroke" stroke-width="1" stroke="rgb(255,255,255)" stroke-linejoin="miter" stroke-linecap="square" stroke-miterlimit="3"/><path d=" M 22.567 27.721 C 22.417 25.303 24.909 26.489 26.046 27.463 C 26.046 28.472 26.579 28.615 26.11 29.396 C 25.669 30.131 25.209 30.624 25.209 31.457 C 25.209 32.218 23.926 32.371 24.049 32.617 C 24.279 33.077 25.388 32.921 25.66 33.261 C 25.799 33.435 25.613 33.731 25.466 33.84 C 24.491 34.572 21.686 33.329 22.052 32.23 C 22.117 32.037 22.954 28.365 22.954 28.365 C 23.221 28.276 24.371 29.039 24.371 28.494 C 24.371 28.494 22.696 27.721 22.567 27.721 Z " fill="none" vector-effect="non-scaling-stroke" stroke-width="1" stroke="rgb(255,255,255)" stroke-linejoin="miter" stroke-linecap="square" stroke-miterlimit="3"/><path d=" M 23.212 35.322 C 23.32 32.931 25.989 34.417 26.69 35.644 C 27.424 36.378 25.902 36.649 25.66 37.255 C 25.26 38.253 26.739 38.543 25.015 38.543 C 24.947 38.543 24.852 38.547 24.822 38.607 C 24.792 38.668 24.819 38.801 24.887 38.801 C 26.596 38.801 25.602 40.456 24.113 39.96 C 24.049 39.939 23.986 39.914 23.92 39.896 C 23.835 39.871 23.75 39.842 23.663 39.831 C 23.367 39.794 23.156 39.816 22.89 39.638 C 22.203 39.181 23.298 35.746 23.663 35.837 C 23.929 35.904 24.548 36.044 24.5 35.902 C 24.5 35.902 23.663 35.451 23.212 35.322 Z " fill="none" vector-effect="non-scaling-stroke" stroke-width="1" stroke="rgb(255,255,255)" stroke-linejoin="miter" stroke-linecap="square" stroke-miterlimit="3"/><path d=" M 24.5 41.254 C 21.634 40.391 24.989 39.533 26.239 40.604 C 26.736 41.35 25.654 41.468 25.788 42.408 C 25.872 42.992 24.887 42.501 24.887 42.601 C 24.887 42.89 26.476 42.464 25.853 43.503 C 25.822 43.555 25.783 43.647 25.724 43.632 C 24.983 43.447 23.085 43.191 22.954 42.537 C 22.954 42.537 24.242 41.506 24.242 41.506 C 24.178 41.313 24.371 40.991 24.5 41.254 Z " fill="none" vector-effect="non-scaling-stroke" stroke-width="1" stroke="rgb(255,255,255)" stroke-linejoin="miter" stroke-linecap="square" stroke-miterlimit="3"/><path d=" M 23.534 43.825 C 24.184 43.746 25.934 43.424 26.368 44.147 C 26.768 44.814 25.057 44.43 25.015 44.598 C 24.883 45.128 26.443 44.786 25.273 45.371 C 24.702 45.371 22.379 45.535 23.469 44.663 C 23.469 44.663 23.663 43.632 23.534 43.825 Z " fill="none" vector-effect="non-scaling-stroke" stroke-width="1" stroke="rgb(255,255,255)" stroke-linejoin="miter" stroke-linecap="square" stroke-miterlimit="3"/><path d=" M 26.69 4.015 C 27.425 3.82 28.126 3.762 28.88 3.951 C 28.88 3.951 27.656 4.337 27.656 4.337 C 27.714 4.481 28.923 5.187 28.107 5.304 C 27.694 5.363 27.579 5.182 27.27 5.11 C 26.997 4.929 26.106 4.452 26.046 4.273 C 25.968 4.038 26.883 4.28 26.883 4.209 C 26.883 4.145 26.263 4.023 26.239 3.951 C 26.22 3.893 26.307 3.822 26.368 3.822 C 26.579 3.822 26.998 3.991 26.69 4.015 Z " fill="none" vector-effect="non-scaling-stroke" stroke-width="1" stroke="rgb(255,255,255)" stroke-linejoin="miter" stroke-linecap="square" stroke-miterlimit="3"/><path d=" M 28.545 5.883 C 27.795 5.638 26.646 4.832 25.982 5.497 C 25.61 5.868 27.364 6.615 27.012 6.85 C 26.596 7.127 25.819 6.008 26.433 7.236 C 26.715 8.085 27.666 8.773 28.301 8.138 C 29.327 7.112 27.318 6.576 28.043 6.721 C 29.523 7.017 28.648 5.805 28.545 5.883 Z " fill="none" vector-effect="non-scaling-stroke" stroke-width="1" stroke="rgb(255,255,255)" stroke-linejoin="miter" stroke-linecap="square" stroke-miterlimit="3"/><path d=" M 28.88 9.233 C 28.254 8.892 26.814 7.68 26.11 8.525 C 25.157 9.669 26.544 9.988 26.948 10.715 C 27.705 11.472 25.796 10.106 25.982 11.037 C 26.169 11.972 26.991 12.497 27.592 13.098 C 27.896 13.402 28.415 12.099 28.494 11.745 C 28.582 11.347 27.528 10.393 27.721 10.199 C 27.939 9.981 28.275 10.676 28.494 10.457 C 28.623 10.328 28.88 8.782 28.88 9.233 Z " fill="none" vector-effect="non-scaling-stroke" stroke-width="1" stroke="rgb(255,255,255)" stroke-linejoin="miter" stroke-linecap="square" stroke-miterlimit="3"/><path d=" M 28.88 14.79 C 27.171 11.863 24.794 15.948 26.561 16.706 C 27.136 16.897 27.579 17.556 27.785 17.865 C 27.785 17.865 26.368 16.641 26.368 16.641 C 26.231 16.732 26.309 17.944 26.368 18.123 C 26.625 18.894 26.733 19.282 27.077 19.798 C 28.043 21.247 27.714 20.384 28.558 19.54 C 29 19.098 29.148 18.135 28.88 17.801 C 28.63 17.487 27.841 16.468 28.107 16.512 C 28.231 16.533 28.669 16.571 28.752 16.448 C 28.88 16.255 28.88 14.322 28.88 14.79 Z " fill="none" vector-effect="non-scaling-stroke" stroke-width="1" stroke="rgb(255,255,255)" stroke-linejoin="miter" stroke-linecap="square" stroke-miterlimit="3"/><path d=" M 28.301 24.559 C 31.933 23.543 27.451 20.23 26.497 21.344 C 26.497 22.343 25.3 23.8 26.175 24.5 C 26.552 24.802 27.305 24.699 27.528 25.144 C 27.6 25.29 27.722 25.724 27.334 25.595 C 24.779 24.743 26.306 26.694 27.206 28.043 C 28.446 29.903 29.64 26.605 28.88 25.466 C 28.628 25.088 28.396 24.178 28.301 24.559 Z " fill="none" vector-effect="non-scaling-stroke" stroke-width="1" stroke="rgb(255,255,255)" stroke-linejoin="miter" stroke-linecap="square" stroke-miterlimit="3"/><path d=" M 29.611 30.42 C 27.806 29.412 24.93 29.483 26.239 32.101 C 27.95 33.242 24.85 33.418 26.883 35.451 C 28.176 36.744 29.731 34.04 28.301 33.325 C 27.264 32.807 28.65 31.99 28.945 31.779 C 29.151 31.632 29.98 29.911 29.611 30.42 Z " fill="none" vector-effect="non-scaling-stroke" stroke-width="1" stroke="rgb(255,255,255)" stroke-linejoin="miter" stroke-linecap="square" stroke-miterlimit="3"/><path d=" M 28.558 36.933 C 27.303 36.189 27.38 35.925 26.046 37.126 C 24.432 38.579 28.449 38.635 26.626 39.445 C 25.802 39.651 27.048 41.299 27.656 41.055 C 27.888 40.962 28.713 39.944 28.816 39.702 C 29.302 38.567 28.242 39.076 27.979 38.285 C 27.676 37.378 29.705 36.364 28.558 36.933 Z " fill="none" vector-effect="non-scaling-stroke" stroke-width="1" stroke="rgb(255,255,255)" stroke-linejoin="miter" stroke-linecap="square" stroke-miterlimit="3"/><path d=" M 28.752 41.964 C 28.585 41.83 26.341 41.192 26.304 41.828 C 26.304 41.828 27.077 43.052 27.077 43.052 C 26.98 43.245 26.364 43.014 26.304 43.374 C 26.204 43.973 27.164 43.985 27.463 44.018 C 28.04 44.018 28.623 43.617 28.623 43.181 C 28.623 43.181 28.558 40.862 28.752 41.964 Z " fill="none" vector-effect="non-scaling-stroke" stroke-width="1" stroke="rgb(255,255,255)" stroke-linejoin="miter" stroke-linecap="square" stroke-miterlimit="3"/><path d=" M 31.779 5.497 C 31.225 5.283 28.816 4.117 28.816 5.626 C 28.816 5.935 31.916 7.009 32.294 7.429 C 34.178 8.685 32.561 5.368 31.779 5.497 Z " fill="none" vector-effect="non-scaling-stroke" stroke-width="1" stroke="rgb(255,255,255)" stroke-linejoin="miter" stroke-linecap="square" stroke-miterlimit="3"/><path d=" M 31.032 8.138 C 30.556 7.721 29.93 7.255 29.653 6.656 C 29.617 6.578 32.362 7.914 32.681 8.074 C 33.308 8.387 33.261 8.802 33.261 9.426 C 33.261 10.43 28.936 9.748 29.138 8.331 C 29.219 7.768 30.868 8.396 31.032 8.138 Z " fill="none" vector-effect="non-scaling-stroke" stroke-width="1" stroke="rgb(255,255,255)" stroke-linejoin="miter" stroke-linecap="square" stroke-miterlimit="3"/><path d=" M 33.261 12.482 C 32.139 11.861 29.267 11.888 29.267 10.328 C 29.267 9.429 31.208 9.946 31.586 10.135 C 31.777 10.231 31.88 10.387 32.037 10.521 C 33.144 10.89 33.636 10.489 33.325 11.81 C 33.22 12.256 32.552 12.132 33.261 12.482 Z " fill="none" vector-effect="non-scaling-stroke" stroke-width="1" stroke="rgb(255,255,255)" stroke-linejoin="miter" stroke-linecap="square" stroke-miterlimit="3"/><path d=" M 33.325 15.095 C 32.882 14.589 28.027 13.927 29.009 12.454 C 29.387 11.887 32.203 12.415 32.745 12.647 C 32.834 12.685 32.917 12.733 33.003 12.776 C 34.366 13.684 33.511 14.162 33.325 15.095 Z " fill="none" vector-effect="non-scaling-stroke" stroke-width="1" stroke="rgb(255,255,255)" stroke-linejoin="miter" stroke-linecap="square" stroke-miterlimit="3"/><path d=" M 33.325 18.767 C 29 19.315 28.149 15.067 32.294 15.482 C 33.088 15.482 33.84 15.881 33.84 16.512 C 33.84 17.724 34.524 17.827 33.325 18.767 Z " fill="none" vector-effect="non-scaling-stroke" stroke-width="1" stroke="rgb(255,255,255)" stroke-linejoin="miter" stroke-linecap="square" stroke-miterlimit="3"/><path d=" M 33.84 19.54 C 33.057 19.623 31.316 18.709 30.684 19.025 C 27.074 20.83 30.121 21.396 30.684 21.537 C 30.348 22.88 36.93 22.501 33.905 19.475 L 33.776 19.347 L 33.84 19.54 Z " fill="none" vector-effect="non-scaling-stroke" stroke-width="1" stroke="rgb(255,255,255)" stroke-linejoin="miter" stroke-linecap="square" stroke-miterlimit="3"/><path d=" M 33.454 25.595 C 33.008 26.234 30.036 27.323 29.653 26.175 C 29.477 25.647 29.863 24.495 29.911 23.92 C 30.926 23.244 35.902 22.728 34.42 24.951 C 34.168 25.329 33.442 25.542 33.454 25.595 Z " fill="none" vector-effect="non-scaling-stroke" stroke-width="1" stroke="rgb(255,255,255)" stroke-linejoin="miter" stroke-linecap="square" stroke-miterlimit="3"/><path d=" M 34.163 26.304 C 33.821 29.57 26.814 30.56 30.426 27.399 C 31.614 26.607 33.082 26.661 34.163 26.304 Z " fill="none" vector-effect="non-scaling-stroke" stroke-width="1" stroke="rgb(255,255,255)" stroke-linejoin="miter" stroke-linecap="square" stroke-miterlimit="3"/><path d=" M 30.491 30.42 C 31.68 30.043 32.033 29.826 33.39 30.298 C 33.39 30.298 33.067 32.037 33.067 32.037 C 32.922 32.907 32.164 32.789 31.393 33.132 C 28.951 33.62 30.491 31.491 30.491 30.42 Z " fill="none" vector-effect="non-scaling-stroke" stroke-width="1" stroke="rgb(255,255,255)" stroke-linejoin="miter" stroke-linecap="square" stroke-miterlimit="3"/><path d=" M 33.39 33.439 C 34.833 35.41 31.066 38.433 29.847 36.482 C 27.825 34.46 32.039 34.14 33.067 33.454 L 33.39 33.439 Z " fill="none" vector-effect="non-scaling-stroke" stroke-width="1" stroke="rgb(255,255,255)" stroke-linejoin="miter" stroke-linecap="square" stroke-miterlimit="3"/><path d=" M 33.067 36.933 C 33.772 39.624 29.396 41.498 29.396 38.156 C 29.396 37.664 29.837 37.66 30.169 37.577 C 30.491 37.512 33.067 36.933 33.067 36.933 Z " fill="none" vector-effect="non-scaling-stroke" stroke-width="1" stroke="rgb(255,255,255)" stroke-linejoin="miter" stroke-linecap="square" stroke-miterlimit="3"/><path d=" M 32.681 39.96 C 32.681 39.96 30.233 40.926 30.233 40.926 C 29.158 41.422 30.406 42.814 31.586 41.635 C 31.629 41.592 31.667 41.543 31.715 41.506 C 32.251 41.094 32.583 40.827 33.003 40.347 L 33.132 40.089 L 32.681 39.96 Z " fill="none" vector-effect="non-scaling-stroke" stroke-width="1" stroke="rgb(255,255,255)" stroke-linejoin="miter" stroke-linecap="square" stroke-miterlimit="3"/><path d=" M 32.294 41.828 C 32.294 41.828 31.715 43.117 31.715 43.117 C 29.149 45.361 28.052 43.225 30.813 42.472 C 31.233 42.358 31.502 42.224 31.908 42.021 L 32.101 41.893 L 32.294 41.828 Z " fill="none" vector-effect="non-scaling-stroke" stroke-width="1" stroke="rgb(255,255,255)" stroke-linejoin="miter" stroke-linecap="square" stroke-miterlimit="3"/><path d=" M 17.889 4.489 C 16.732 5.771 15.658 7.182 15.288 8.847 C 15.288 10.62 14.322 12.042 14.322 13.549 C 14.322 15.185 14.064 16.64 14.064 18.058 C 14.064 19.795 14 21.273 14 22.761 C 14 24.639 14.064 26.307 14.064 27.979 C 14.064 30.194 14.427 32.844 14.902 34.742 C 15.406 36.76 15.112 38.617 15.804 40.347 C 16.586 42.303 17.334 43.479 18.252 44.856 C 18.38 45.049 18.896 45.371 18.896 45.371 M 30.499 4.209 C 31.895 5.367 32.903 6.873 33.454 8.525 C 33.454 9.827 33.814 11.795 34.163 12.84 C 34.58 14.093 34.549 15.898 34.549 17.028 C 34.549 18.469 34.614 19.69 34.614 20.957 C 34.614 22.194 34.344 23.885 34.678 24.887 C 34.967 25.755 34.839 28.074 34.614 28.752 C 34.195 30.007 34.227 31.496 34.227 32.617 C 34.227 33.821 34.352 35.719 34.034 36.675 C 33.637 37.865 33.325 39.558 33.325 40.604 C 33.325 42.072 32.131 43.35 31.779 44.405 M 18.896 45.371 C 18.896 45.371 21.988 45.5 21.988 45.5 C 22.576 45.5 23.133 45.5 23.727 45.5 C 25.283 45.5 26.622 45.5 27.979 45.5 C 29.407 45.5 30.736 45.022 31.779 44.405 M 17.889 4.489 C 19.401 3.609 21.009 3.727 22.632 3.564 C 24.16 3.564 25.494 3.629 26.819 3.629 C 27.733 3.629 29.848 3.558 30.499 4.209" fill-rule="evenodd" fill="none" vector-effect="non-scaling-stroke" stroke-width="1" stroke="rgb(255,255,255)" stroke-linejoin="miter" stroke-linecap="square" stroke-miterlimit="3"/></g></g></svg>