<?xml version="1.0" encoding="UTF-8" standalone="no"?><!-- Generator: Gravit.io --><svg xmlns="http://www.w3.org/2000/svg" xmlns:xlink="http://www.w3.org/1999/xlink" style="isolation:isolate" viewBox="0 0 50 50" width="50pt" height="50pt"><defs><clipPath id="_clipPath_qlhX7Q5FW0g4tKZkdnXGw5hQKked7hPy"><rect width="50" height="50"/></clipPath></defs><g clip-path="url(#_clipPath_qlhX7Q5FW0g4tKZkdnXGw5hQKked7hPy)"><g><path d=" M 27.964 48.079 C 25.877 47.176 23.988 45.34 22.197 43.947 C 19.388 41.138 18.01 38.54 16.602 35.254 C 14.889 31.257 14.536 27.201 14.536 23.548 C 14.536 19.685 15.596 16.437 17.033 13.564 C 18.386 10.856 20.559 9.09 22.627 7.538 C 25.132 5.66 27.31 4.698 29.599 4.698 C 32.375 4.806 33.238 5.743 35.108 6.678 C 37.41 8.141 39.212 10.07 40.53 11.799 C 42.263 14.258 43.134 15.263 44.995 20.062 C 45.713 22.933 46.197 25.315 46.197 27.938 C 46.197 30.915 46.162 33.988 45.523 36.545 C 44.855 39.216 43.385 41.881 41.649 43.689 C 39.627 45.669 38.637 46.615 35.969 47.907 C 33.677 48.67 32.175 48.423 30.116 48.423 C 29.359 48.423 28.377 48.257 27.964 48.079 Z " fill="none" vector-effect="non-scaling-stroke" stroke-width="1" stroke="rgb(255,255,255)" stroke-linejoin="miter" stroke-linecap="square" stroke-miterlimit="3"/><path d=" M 31.245 39.977 C 28.812 38.972 28.582 39.057 26.662 37.363 C 25.381 36.082 25.024 35.495 23.838 33.183 C 23.285 31.526 22.76 29.721 22.518 28.196 C 22.288 26.634 22.39 25.697 22.651 23.826 C 22.922 21.902 23.499 20.482 24.435 18.706 C 25.339 16.867 26.769 15.409 28.394 14.596 C 29.947 13.82 31.576 13.736 33.23 14.018 C 35.301 14.812 35.257 15.073 36.463 15.995 C 37.752 17.284 38.422 17.932 39.282 19.373 C 40.358 21.138 40.565 21.66 40.953 23.015 C 41.029 23.318 41.426 24.632 41.534 25.945 C 41.679 27.663 41.691 27.696 41.691 29.213 C 41.546 30.81 41.292 31.997 40.711 33.473 C 40.125 34.991 39.746 35.887 38.379 37.664 C 37.087 38.998 36.317 39.852 34.38 40.239 C 33.194 40.36 33.128 40.343 31.245 39.977 Z " fill="none" vector-effect="non-scaling-stroke" stroke-width="1" stroke="rgb(255,255,255)" stroke-linejoin="miter" stroke-linecap="square" stroke-miterlimit="3"/><path d=" M 32.138 28.454 C 30.391 28.168 30.406 24.525 32.375 25.312 C 33.39 25.82 33.427 28.54 32.138 28.454 Z " fill="none" vector-effect="non-scaling-stroke" stroke-width="1" stroke="rgb(255,255,255)" stroke-linejoin="miter" stroke-linecap="square" stroke-miterlimit="3"/><path d=" M 32.343 28.422 C 31.17 28.583 30.89 28.616 30.1 28.494 C 29.439 28.045 29.223 27.37 29.276 26.316 C 29.371 25.969 29.398 25.794 29.51 25.662 C 29.623 25.53 29.689 25.466 29.873 25.364 C 30.847 25.269 31.256 25.205 32.052 25.205" fill="none" vector-effect="non-scaling-stroke" stroke-width="1" stroke="rgb(255,255,255)" stroke-linejoin="miter" stroke-linecap="square" stroke-miterlimit="3"/><path d=" M 29.642 29.035 C 29.642 29.035 31.318 29.261 31.318 29.261 C 31.845 28.766 31.869 28.766 32.095 28.519" fill="none" vector-effect="non-scaling-stroke" stroke-width="1" stroke="rgb(255,255,255)" stroke-linejoin="miter" stroke-linecap="square" stroke-miterlimit="3"/><path d=" M 29.578 28.992 C 28.997 28.045 28.717 27.055 28.48 26.238 C 29.104 25.399 29.233 25.269 30.03 24.409 C 30.955 24.43 31.127 24.538 31.837 24.667 C 31.837 24.667 32.192 25.226 32.192 25.226" fill="none" vector-effect="non-scaling-stroke" stroke-width="1" stroke="rgb(255,255,255)" stroke-linejoin="miter" stroke-linecap="square" stroke-miterlimit="3"/><path d=" M 30.011 24.407 Q 30.011 24.407 29.26 24.359 Q 27.868 26.114 27.868 26.114 C 28.122 26.84 28.401 28.111 28.703 28.874 C 29.575 29.055 29.2 28.958 29.635 29.067 C 30.289 29.116 31.257 29.285 31.257 29.285" fill="none" vector-effect="non-scaling-stroke" stroke-width="1" stroke="rgb(255,255,255)" stroke-linejoin="miter" stroke-linecap="square" stroke-miterlimit="3"/><path d=" M 32.359 28.535 C 32.151 29.543 31.719 30.063 30.664 30.278 C 29.631 30.342 28.807 30.281 28.122 29.14 C 27.268 27.432 27.227 26.259 27.808 24.807 C 28.197 23.943 28.838 23.512 29.914 23.451 C 30.664 23.475 31.593 24.293 31.643 24.624" fill="none" vector-effect="non-scaling-stroke" stroke-width="1" stroke="rgb(255,255,255)" stroke-linejoin="miter" stroke-linecap="square" stroke-miterlimit="3"/><path d=" M 24.2 23.267 C 24.473 23.363 24.267 23.292 24.689 23.431 C 25.255 23.636 26.039 23.923 26.156 23.806 C 26.156 23.806 25.468 22.257 25.468 22.257 C 25.126 21.574 25.282 21.165 24.779 22.171 C 24.693 22.343 24.223 23.215 24.2 23.267 Z " fill="none" vector-effect="non-scaling-stroke" stroke-width="1" stroke="rgb(255,255,255)" stroke-linejoin="miter" stroke-linecap="square" stroke-miterlimit="3"/><path d=" M 25.468 20.966 C 25.468 20.966 27.017 24.581 27.017 24.581 C 27.025 24.581 27.781 22.968 27.878 22.773 C 27.878 21.751 26.725 18.366 25.812 20.191 C 25.598 20.619 25.473 20.777 25.468 20.966 Z " fill="none" vector-effect="non-scaling-stroke" stroke-width="1" stroke="rgb(255,255,255)" stroke-linejoin="miter" stroke-linecap="square" stroke-miterlimit="3"/><path d=" M 27.017 19.158 C 27.017 19.158 28.308 21.224 28.308 21.224 C 28.722 21.224 28.853 18.643 28.911 18.298 C 28.911 18.074 26.753 19.067 27.017 19.158 Z " fill="none" vector-effect="non-scaling-stroke" stroke-width="1" stroke="rgb(255,255,255)" stroke-linejoin="miter" stroke-linecap="square" stroke-miterlimit="3"/><path d=" M 29.599 17.953 C 29.599 17.953 29.341 20.794 29.341 20.794 C 29.341 21.658 28.512 23.265 29.771 22.257 C 31.017 21.634 30.804 19.994 30.804 18.728 C 30.804 17.25 30.346 17.953 29.599 17.953 Z " fill="none" vector-effect="non-scaling-stroke" stroke-width="1" stroke="rgb(255,255,255)" stroke-linejoin="miter" stroke-linecap="square" stroke-miterlimit="3"/><path d=" M 31.407 17.953 C 31.393 17.939 30.803 20.965 30.976 21.052 C 31.289 21.208 32.58 19.033 32.784 18.728 C 32.489 18.139 31.448 18.07 31.407 17.953 Z " fill="none" vector-effect="non-scaling-stroke" stroke-width="1" stroke="rgb(255,255,255)" stroke-linejoin="miter" stroke-linecap="square" stroke-miterlimit="3"/><path d=" M 33.386 18.9 C 33.386 18.9 32.009 21.224 32.009 21.224 C 31.458 22.327 30.493 23.115 32.009 23.548 C 33.28 23.548 34.052 20.753 34.419 20.019 C 34.505 19.847 33.042 18.814 33.386 18.9 Z " fill="none" vector-effect="non-scaling-stroke" stroke-width="1" stroke="rgb(255,255,255)" stroke-linejoin="miter" stroke-linecap="square" stroke-miterlimit="3"/><path d=" M 34.85 20.363 C 34.665 20.133 33.81 22.727 33.903 22.773 C 34.332 22.988 35.736 21.887 35.882 21.74 C 35.882 21.219 35.177 20.449 34.85 20.363 Z " fill="none" vector-effect="non-scaling-stroke" stroke-width="1" stroke="rgb(255,255,255)" stroke-linejoin="miter" stroke-linecap="square" stroke-miterlimit="3"/><path d=" M 32.784 25.097 C 32.784 25.097 33.731 23.376 33.731 23.376 C 34.198 23.096 34.762 22.86 35.28 22.687 C 36.392 22.316 36.401 22.175 36.915 23.204 C 37.643 24.66 35.214 25.7 34.247 25.7 C 33.28 25.7 33.086 25.791 32.87 24.925 C 32.854 24.863 32.784 24.689 32.784 25.097 Z " fill="none" vector-effect="non-scaling-stroke" stroke-width="1" stroke="rgb(255,255,255)" stroke-linejoin="miter" stroke-linecap="square" stroke-miterlimit="3"/><path d=" M 34.85 26.216 C 34.85 26.216 37.26 25.011 37.26 25.011 C 38.01 25.512 37.487 26.706 37.26 26.991 C 37.087 26.905 34.763 26.044 34.85 26.216 Z " fill="none" vector-effect="non-scaling-stroke" stroke-width="1" stroke="rgb(255,255,255)" stroke-linejoin="miter" stroke-linecap="square" stroke-miterlimit="3"/><path d=" M 33.817 26.905 C 33.817 26.905 37.001 27.421 37.001 27.421 C 37.562 27.281 37.346 28.619 37.346 28.971 C 37.346 29.854 33.598 29.434 33.386 28.798 C 33.066 27.839 33.643 27.165 33.817 26.905 Z " fill="none" vector-effect="non-scaling-stroke" stroke-width="1" stroke="rgb(255,255,255)" stroke-linejoin="miter" stroke-linecap="square" stroke-miterlimit="3"/><path d=" M 34.763 30.176 C 34.677 30.163 36.968 29.981 37.26 30.176 C 37.302 30.204 37.429 32.582 36.055 31.208 C 35.796 31.036 35.194 30.434 34.763 30.176 Z " fill="none" vector-effect="non-scaling-stroke" stroke-width="1" stroke="rgb(255,255,255)" stroke-linejoin="miter" stroke-linecap="square" stroke-miterlimit="3"/><path d=" M 32.009 31.208 C 32.008 31.21 32.48 29.745 33.042 29.745 C 33.807 29.745 35.478 31.416 36.055 31.897 C 36.813 32.655 35.714 33.655 34.936 33.188 C 34.546 32.955 33.689 32.63 33.386 32.327 C 33.128 32.069 32.353 31.381 32.009 31.208 Z " fill="none" vector-effect="non-scaling-stroke" stroke-width="1" stroke="rgb(255,255,255)" stroke-linejoin="miter" stroke-linecap="square" stroke-miterlimit="3"/><path d=" M 33.128 32.93 C 33.128 32.93 34.419 35.512 34.419 35.512 C 34.419 35.512 35.28 34.135 35.28 34.135 C 35.37 33.774 34.897 33.543 34.677 33.36 C 34.229 32.912 33.649 32.816 33.128 32.93 Z " fill="none" vector-effect="non-scaling-stroke" stroke-width="1" stroke="rgb(255,255,255)" stroke-linejoin="miter" stroke-linecap="square" stroke-miterlimit="3"/><path d=" M 30.202 31.467 C 30.202 31.467 30.89 33.016 30.89 33.016 C 31.356 34.102 32.287 37.386 33.817 35.856 C 33.817 34.91 32.631 31.993 31.923 31.639 C 31.445 31.4 30.844 31.507 30.202 31.467 Z " fill="none" vector-effect="non-scaling-stroke" stroke-width="1" stroke="rgb(255,255,255)" stroke-linejoin="miter" stroke-linecap="square" stroke-miterlimit="3"/><path d=" M 30.116 33.446 C 30.116 33.446 29.771 35.856 29.771 35.856 C 31.888 36.703 31.313 35.363 30.718 33.877 L 30.546 33.618 L 30.116 33.446 Z " fill="none" vector-effect="non-scaling-stroke" stroke-width="1" stroke="rgb(255,255,255)" stroke-linejoin="miter" stroke-linecap="square" stroke-miterlimit="3"/><path d=" M 27.964 30.778 C 28.368 31.648 27.023 33.797 27.792 34.565 C 28.331 35.105 29.006 35.915 29.255 35.168 C 29.984 33.71 29.722 31.807 28.566 31.036 C 28.308 30.864 27.964 30.692 27.964 30.778 Z " fill="none" vector-effect="non-scaling-stroke" stroke-width="1" stroke="rgb(255,255,255)" stroke-linejoin="miter" stroke-linecap="square" stroke-miterlimit="3"/><path d=" M 24.263 24.15 C 24.263 24.15 24.349 26.388 24.349 26.388 C 24.414 26.65 25.619 26.866 25.812 26.905 C 26.755 27.093 26.564 26.885 26.845 26.044 C 26.845 25.217 26.2 24.57 25.554 24.409 C 25.554 24.409 24.004 23.978 24.263 24.15 Z " fill="none" vector-effect="non-scaling-stroke" stroke-width="1" stroke="rgb(255,255,255)" stroke-linejoin="miter" stroke-linecap="square" stroke-miterlimit="3"/><path d=" M 24.435 27.335 C 24.337 26.995 24.509 29.192 24.779 29.057 C 26.376 28.258 25.194 27.295 24.435 27.335 Z " fill="none" vector-effect="non-scaling-stroke" stroke-width="1" stroke="rgb(255,255,255)" stroke-linejoin="miter" stroke-linecap="square" stroke-miterlimit="3"/><path d=" M 25.037 30.348 C 25.037 30.348 25.64 31.811 25.64 31.811 C 26.715 32.528 27.404 29.562 27.017 28.884 C 26.331 27.512 25.132 29.032 25.037 30.348 Z " fill="none" vector-effect="non-scaling-stroke" stroke-width="1" stroke="rgb(255,255,255)" stroke-linejoin="miter" stroke-linecap="square" stroke-miterlimit="3"/><path d=" M 26.328 32.5 C 26.011 32.183 26.842 33.249 27.189 33.532 C 27.189 33.532 27.447 31.381 27.447 31.381 C 27.295 31.228 26.592 32.213 26.501 32.327 L 26.328 32.5 Z " fill="none" vector-effect="non-scaling-stroke" stroke-width="1" stroke="rgb(255,255,255)" stroke-linejoin="miter" stroke-linecap="square" stroke-miterlimit="3"/><path d=" M 31.041 38.557 C 31.859 38.772 32.084 38.88 32.908 38.912 C 35.066 39.013 35.57 38.751 37.001 37.664 C 38.355 36.31 38.786 35.083 39.597 33.425 C 40.481 31.355 40.614 30.076 40.614 29.067 C 40.614 27.473 40.434 25.877 40.208 24.495 C 39.691 22.429 39.621 22.144 38.266 19.981 C 36.878 17.996 36.044 17.179 34.505 15.974 C 32.956 14.769 30.562 14.666 28.986 15.43 C 26.952 16.931 26.371 17.383 25.123 19.589 C 24.166 21.504 23.574 23.399 23.574 25.355 C 23.259 28.46 23.991 30.77 25.032 33.118 C 25.988 35.188 27.544 36.803 28.835 37.75 C 29.911 38.202 29.922 38.299 31.041 38.557 Z " fill="none" vector-effect="non-scaling-stroke" stroke-width="1" stroke="rgb(255,255,255)" stroke-linejoin="miter" stroke-linecap="square" stroke-miterlimit="3"/><path d=" M 35.022 48.208 C 32.655 48.638 28.004 48.541 25.511 48.251 C 23.647 47.985 20.085 47.804 18.481 47.505 C 16.846 47.247 16.027 47.03 14.655 46.626 C 12.978 45.788 12.299 45.367 10.835 44.162 C 9.142 42.469 9.2 42.742 7.651 40.418 C 6.79 39.041 5.155 36.029 4.638 34.479 C 3.691 32.241 3.519 29.932 3.519 27.679 C 3.519 25.504 3.347 25.872 4.036 21.568 C 4.859 19.098 5.068 18.211 6.704 15.543 C 9.028 12.359 9.028 12.272 10.835 10.551 C 13.073 8.916 13.923 8.491 15.483 7.711 C 17.186 6.859 19.18 6.224 20.86 5.804 C 22.461 5.403 23.729 5.065 25.64 4.698 C 27.189 4.44 28.158 4.666 29.224 4.666" fill="none" vector-effect="non-scaling-stroke" stroke-width="1" stroke="rgb(255,255,255)" stroke-linejoin="miter" stroke-linecap="square" stroke-miterlimit="3"/><path d=" M 27.663 48.401 C 26.328 48.229 24.822 47.498 22.845 46.352 C 20.844 45.128 19.521 43.814 18.926 43.086 C 17.743 41.709 16.839 40.526 16 38.998 C 15.073 37.325 14.445 36.139 13.719 34.565 C 13.009 33.121 13.202 33.468 12.428 31.144 C 12.299 30.735 12.017 29.184 11.933 28.508 C 11.775 27.244 11.691 25.676 11.61 24.495 C 11.61 22.355 11.882 20.323 12.471 18.556 C 13.277 15.706 14.246 13.48 15.97 11.444 C 17.748 9.666 19.041 8.459 20.906 7.216 C 22.607 6.082 25.351 4.88 27.481 4.557 C 27.739 4.557 28.534 4.617 28.534 4.617" fill="none" vector-effect="non-scaling-stroke" stroke-width="1" stroke="rgb(255,255,255)" stroke-linejoin="miter" stroke-linecap="square" stroke-miterlimit="3"/><line x1="11.943" y1="27.228" x2="14.622" y2="26.991" vector-effect="non-scaling-stroke" stroke-width="1" stroke="rgb(255,255,255)" stroke-linejoin="miter" stroke-linecap="square" stroke-miterlimit="3"/><line x1="12.847" y1="32.327" x2="15.397" y2="31.983" vector-effect="non-scaling-stroke" stroke-width="1" stroke="rgb(255,255,255)" stroke-linejoin="miter" stroke-linecap="square" stroke-miterlimit="3"/><line x1="15.01" y1="37.072" x2="17.291" y2="36.846" vector-effect="non-scaling-stroke" stroke-width="1" stroke="rgb(255,255,255)" stroke-linejoin="miter" stroke-linecap="square" stroke-miterlimit="3"/><line x1="12.772" y1="17.48" x2="15.483" y2="17.286" vector-effect="non-scaling-stroke" stroke-width="1" stroke="rgb(255,255,255)" stroke-linejoin="miter" stroke-linecap="square" stroke-miterlimit="3"/><line x1="14.838" y1="13.09" x2="17.248" y2="12.961" vector-effect="non-scaling-stroke" stroke-width="1" stroke="rgb(255,255,255)" stroke-linejoin="miter" stroke-linecap="square" stroke-miterlimit="3"/><line x1="17.527" y1="10.024" x2="19.686" y2="9.977" vector-effect="non-scaling-stroke" stroke-width="1" stroke="rgb(255,255,255)" stroke-linejoin="miter" stroke-linecap="square" stroke-miterlimit="3"/><line x1="19.873" y1="7.926" x2="22.111" y2="8.012" vector-effect="non-scaling-stroke" stroke-width="1" stroke="rgb(255,255,255)" stroke-linejoin="miter" stroke-linecap="square" stroke-miterlimit="3"/><line x1="11.75" y1="22.58" x2="14.579" y2="22.408" vector-effect="non-scaling-stroke" stroke-width="1" stroke="rgb(255,255,255)" stroke-linejoin="miter" stroke-linecap="square" stroke-miterlimit="3"/><line x1="16.946" y1="40.547" x2="19.356" y2="40.504" vector-effect="non-scaling-stroke" stroke-width="1" stroke="rgb(255,255,255)" stroke-linejoin="miter" stroke-linecap="square" stroke-miterlimit="3"/><line x1="19.098" y1="43.345" x2="21.767" y2="43.517" vector-effect="non-scaling-stroke" stroke-width="1" stroke="rgb(255,255,255)" stroke-linejoin="miter" stroke-linecap="square" stroke-miterlimit="3"/><line x1="22.929" y1="46.529" x2="25.425" y2="46.572" vector-effect="non-scaling-stroke" stroke-width="1" stroke="rgb(255,255,255)" stroke-linejoin="miter" stroke-linecap="square" stroke-miterlimit="3"/><line x1="22.627" y1="6.161" x2="24.435" y2="6.247" vector-effect="non-scaling-stroke" stroke-width="1" stroke="rgb(255,255,255)" stroke-linejoin="miter" stroke-linecap="square" stroke-miterlimit="3"/><line x1="25.64" y1="4.999" x2="27.017" y2="5.085" vector-effect="non-scaling-stroke" stroke-width="1" stroke="rgb(255,255,255)" stroke-linejoin="miter" stroke-linecap="square" stroke-miterlimit="3"/><line x1="27.941" y1="26.162" x2="28.51" y2="26.223" vector-effect="non-scaling-stroke" stroke-width="1" stroke="rgb(255,255,255)" stroke-linejoin="miter" stroke-linecap="square" stroke-miterlimit="3"/><line x1="14.998" y1="4.715" x2="32.052" y2="3.511" vector-effect="non-scaling-stroke" stroke-width="1" stroke-dasharray="1,2" stroke="rgb(255,255,255)" stroke-linejoin="miter" stroke-linecap="round" stroke-miterlimit="3"/><line x1="31.96" y1="1.5" x2="32.031" y2="7.307" vector-effect="non-scaling-stroke" stroke-width="1" stroke="rgb(255,255,255)" stroke-linejoin="miter" stroke-linecap="square" stroke-miterlimit="3"/><line x1="14.462" y1="2.973" x2="14.533" y2="8.78" vector-effect="non-scaling-stroke" stroke-width="1" stroke="rgb(255,255,255)" stroke-linejoin="miter" stroke-linecap="square" stroke-miterlimit="3"/><path d=" M 22.498 5.537 C 15.871 8.787 11.827 14.06 10.362 21.353 C 9.788 26.079 10.448 29.433 11.976 34.232 C 12.363 35.426 13.384 37.14 13.912 38.073 C 17.141 43.774 19.735 46.271 23.015 48.021" fill="none" vector-effect="non-scaling-stroke" stroke-width="1" stroke="rgb(255,255,255)" stroke-linejoin="miter" stroke-linecap="square" stroke-miterlimit="3"/><path d=" M 19.686 6.168 C 13.059 9.418 9.015 14.691 7.55 21.984 C 6.839 26.79 7.585 30.176 9.248 34.893 C 12.904 42.688 14.959 45.897 19.012 47.691" fill="none" vector-effect="non-scaling-stroke" stroke-width="1" stroke="rgb(255,255,255)" stroke-linejoin="miter" stroke-linecap="square" stroke-miterlimit="3"/><path d=" M 18.309 6.398 C 11.682 9.647 7.638 14.921 6.173 22.214 C 5.599 26.94 5.875 30.552 7.747 35.157 C 11.642 42.71 13.073 44.722 16.301 47.175" fill="none" vector-effect="non-scaling-stroke" stroke-width="1" stroke="rgb(255,255,255)" stroke-linejoin="miter" stroke-linecap="square" stroke-miterlimit="3"/><line x1="10.201" y1="22.741" x2="7.425" y2="22.967" vector-effect="non-scaling-stroke" stroke-width="1" stroke="rgb(255,255,255)" stroke-linejoin="miter" stroke-linecap="square" stroke-miterlimit="3"/><line x1="10.305" y1="27.421" x2="7.473" y2="27.712" vector-effect="non-scaling-stroke" stroke-width="1" stroke="rgb(255,255,255)" stroke-linejoin="miter" stroke-linecap="square" stroke-miterlimit="3"/><line x1="11.419" y1="32.553" x2="8.49" y2="32.65" vector-effect="non-scaling-stroke" stroke-width="1" stroke="rgb(255,255,255)" stroke-linejoin="miter" stroke-linecap="square" stroke-miterlimit="3"/><line x1="13.317" y1="37.291" x2="10.563" y2="37.52" vector-effect="non-scaling-stroke" stroke-width="1" stroke="rgb(255,255,255)" stroke-linejoin="miter" stroke-linecap="square" stroke-miterlimit="3"/><line x1="15.44" y1="40.791" x2="12.399" y2="40.906" vector-effect="non-scaling-stroke" stroke-width="1" stroke="rgb(255,255,255)" stroke-linejoin="miter" stroke-linecap="square" stroke-miterlimit="3"/><line x1="17.391" y1="43.546" x2="14.12" y2="43.66" vector-effect="non-scaling-stroke" stroke-width="1" stroke="rgb(255,255,255)" stroke-linejoin="miter" stroke-linecap="square" stroke-miterlimit="3"/><line x1="20.547" y1="46.587" x2="16.703" y2="46.472" vector-effect="non-scaling-stroke" stroke-width="1" stroke="rgb(255,255,255)" stroke-linejoin="miter" stroke-linecap="square" stroke-miterlimit="3"/><line x1="11.423" y1="17.724" x2="8.784" y2="17.896" vector-effect="non-scaling-stroke" stroke-width="1" stroke="rgb(255,255,255)" stroke-linejoin="miter" stroke-linecap="square" stroke-miterlimit="3"/><line x1="13.547" y1="13.191" x2="11.137" y2="13.363" vector-effect="non-scaling-stroke" stroke-width="1" stroke="rgb(255,255,255)" stroke-linejoin="miter" stroke-linecap="square" stroke-miterlimit="3"/><line x1="16.129" y1="10.035" x2="13.891" y2="10.149" vector-effect="non-scaling-stroke" stroke-width="1" stroke="rgb(255,255,255)" stroke-linejoin="miter" stroke-linecap="square" stroke-miterlimit="3"/><line x1="18.711" y1="7.739" x2="16.817" y2="7.797" vector-effect="non-scaling-stroke" stroke-width="1" stroke="rgb(255,255,255)" stroke-linejoin="miter" stroke-linecap="square" stroke-miterlimit="3"/><line x1="21.465" y1="6.075" x2="19.514" y2="6.305" vector-effect="non-scaling-stroke" stroke-width="1" stroke="rgb(255,255,255)" stroke-linejoin="miter" stroke-linecap="square" stroke-miterlimit="3"/><line x1="15.096" y1="46.271" x2="13.633" y2="46.271" vector-effect="non-scaling-stroke" stroke-width="1" stroke="rgb(255,255,255)" stroke-linejoin="miter" stroke-linecap="square" stroke-miterlimit="3"/><line x1="12.801" y1="43.947" x2="10.62" y2="44.005" vector-effect="non-scaling-stroke" stroke-width="1" stroke="rgb(255,255,255)" stroke-linejoin="miter" stroke-linecap="square" stroke-miterlimit="3"/><line x1="10.907" y1="41.078" x2="8.21" y2="41.193" vector-effect="non-scaling-stroke" stroke-width="1" stroke="rgb(255,255,255)" stroke-linejoin="miter" stroke-linecap="square" stroke-miterlimit="3"/><line x1="8.956" y1="37.693" x2="6.202" y2="37.75" vector-effect="non-scaling-stroke" stroke-width="1" stroke="rgb(255,255,255)" stroke-linejoin="miter" stroke-linecap="square" stroke-miterlimit="3"/><line x1="6.833" y1="32.758" x2="4.136" y2="32.93" vector-effect="non-scaling-stroke" stroke-width="1" stroke="rgb(255,255,255)" stroke-linejoin="miter" stroke-linecap="square" stroke-miterlimit="3"/><line x1="5.857" y1="27.938" x2="3.562" y2="27.995" vector-effect="non-scaling-stroke" stroke-width="1" stroke="rgb(255,255,255)" stroke-linejoin="miter" stroke-linecap="square" stroke-miterlimit="3"/><line x1="6.03" y1="23.175" x2="3.792" y2="23.29" vector-effect="non-scaling-stroke" stroke-width="1" stroke="rgb(255,255,255)" stroke-linejoin="miter" stroke-linecap="square" stroke-miterlimit="3"/><line x1="7.407" y1="17.953" x2="5.226" y2="18.183" vector-effect="non-scaling-stroke" stroke-width="1" stroke="rgb(255,255,255)" stroke-linejoin="miter" stroke-linecap="square" stroke-miterlimit="3"/><line x1="9.759" y1="13.42" x2="8.21" y2="13.592" vector-effect="non-scaling-stroke" stroke-width="1" stroke="rgb(255,255,255)" stroke-linejoin="miter" stroke-linecap="square" stroke-miterlimit="3"/><line x1="12.686" y1="10.264" x2="11.137" y2="10.321" vector-effect="non-scaling-stroke" stroke-width="1" stroke="rgb(255,255,255)" stroke-linejoin="miter" stroke-linecap="square" stroke-miterlimit="3"/><line x1="15.325" y1="8.084" x2="14.694" y2="8.141" vector-effect="non-scaling-stroke" stroke-width="1" stroke="rgb(255,255,255)" stroke-linejoin="miter" stroke-linecap="square" stroke-miterlimit="3"/></g></g></svg>