<?xml version="1.0" encoding="UTF-8" standalone="no"?><!-- Generator: Gravit.io --><svg xmlns="http://www.w3.org/2000/svg" xmlns:xlink="http://www.w3.org/1999/xlink" style="isolation:isolate" viewBox="0 0 50 50" width="50pt" height="50pt"><defs><clipPath id="_clipPath_iGmnx92RSA1QwhQEzWzhNrBy8WnxL1lx"><rect width="50" height="50"/></clipPath></defs><g clip-path="url(#_clipPath_iGmnx92RSA1QwhQEzWzhNrBy8WnxL1lx)"><g><path d=" M 27.93 47.579 C 25.846 46.678 23.96 44.845 22.171 43.454 C 19.366 40.648 17.99 38.054 16.584 34.772 C 14.873 30.781 14.521 26.731 14.521 23.083 C 14.521 19.225 15.579 15.981 17.014 13.112 C 18.366 10.408 20.535 8.645 22.601 7.095 C 25.102 5.22 27.277 4.259 29.563 4.259 C 32.335 4.366 33.197 5.303 35.064 6.236 C 37.363 7.697 39.163 9.623 40.479 11.35 C 42.209 13.805 43.079 14.81 44.938 19.602 C 45.654 22.469 46.137 24.848 46.137 27.466 C 46.137 30.439 46.102 33.508 45.464 36.062 C 44.797 38.729 43.33 41.391 41.596 43.196 C 39.576 45.173 38.588 46.118 35.923 47.407 C 33.635 48.17 32.135 47.923 30.079 47.923 C 29.323 47.923 28.342 47.758 27.93 47.579 Z " fill="none" vector-effect="non-scaling-stroke" stroke-width="1" stroke="rgb(255,255,255)" stroke-linejoin="miter" stroke-linecap="square" stroke-miterlimit="3"/><path d=" M 31.207 39.489 C 28.777 38.486 28.548 38.57 26.63 36.878 C 25.351 35.599 24.994 35.013 23.809 32.704 C 23.258 31.049 22.734 29.247 22.492 27.724 C 22.262 26.165 22.363 25.229 22.625 23.361 C 22.895 21.439 23.471 20.021 24.406 18.248 C 25.308 16.411 26.737 14.955 28.359 14.144 C 29.91 13.368 31.537 13.284 33.189 13.566 C 35.257 14.358 35.212 14.619 36.418 15.54 C 37.705 16.828 38.373 17.474 39.233 18.914 C 40.307 20.676 40.514 21.197 40.901 22.551 C 40.977 22.853 41.373 24.165 41.481 25.476 C 41.626 27.192 41.638 27.225 41.638 28.739 C 41.493 30.335 41.239 31.519 40.659 32.994 C 40.074 34.51 39.696 35.405 38.33 37.179 C 37.041 38.511 36.271 39.364 34.337 39.751 C 33.153 39.872 33.087 39.854 31.207 39.489 Z " fill="none" vector-effect="non-scaling-stroke" stroke-width="1" stroke="rgb(255,255,255)" stroke-linejoin="miter" stroke-linecap="square" stroke-miterlimit="3"/><path d=" M 32.098 27.982 C 30.353 27.696 30.369 24.058 32.335 24.845 C 33.349 25.352 33.385 28.068 32.098 27.982 Z " fill="none" vector-effect="non-scaling-stroke" stroke-width="1" stroke="rgb(255,255,255)" stroke-linejoin="miter" stroke-linecap="square" stroke-miterlimit="3"/><path d=" M 32.303 27.95 C 31.131 28.111 30.852 28.143 30.063 28.022 C 29.403 27.573 29.187 26.9 29.241 25.847 C 29.335 25.5 29.362 25.326 29.474 25.194 C 29.587 25.062 29.652 24.998 29.837 24.896 C 30.809 24.802 31.217 24.737 32.012 24.737" fill="none" vector-effect="non-scaling-stroke" stroke-width="1" stroke="rgb(255,255,255)" stroke-linejoin="miter" stroke-linecap="square" stroke-miterlimit="3"/><path d=" M 29.606 28.562 C 29.606 28.562 31.279 28.788 31.279 28.788 C 31.806 28.294 31.83 28.294 32.055 28.046" fill="none" vector-effect="non-scaling-stroke" stroke-width="1" stroke="rgb(255,255,255)" stroke-linejoin="miter" stroke-linecap="square" stroke-miterlimit="3"/><path d=" M 29.541 28.519 C 28.961 27.574 28.682 26.585 28.445 25.769 C 29.069 24.931 29.198 24.802 29.993 23.942 C 30.917 23.964 31.089 24.071 31.798 24.2 C 31.798 24.2 32.152 24.759 32.152 24.759" fill="none" vector-effect="non-scaling-stroke" stroke-width="1" stroke="rgb(255,255,255)" stroke-linejoin="miter" stroke-linecap="square" stroke-miterlimit="3"/><path d=" M 29.974 23.941 Q 29.974 23.941 29.224 23.893 Q 27.834 25.645 27.834 25.645 C 28.088 26.37 28.366 27.64 28.668 28.401 C 29.539 28.582 29.164 28.486 29.599 28.594 C 30.252 28.643 31.219 28.812 31.219 28.812" fill="none" vector-effect="non-scaling-stroke" stroke-width="1" stroke="rgb(255,255,255)" stroke-linejoin="miter" stroke-linecap="square" stroke-miterlimit="3"/><path d=" M 32.319 28.063 C 32.111 29.069 31.679 29.588 30.627 29.803 C 29.595 29.868 28.772 29.806 28.088 28.667 C 27.235 26.961 27.194 25.79 27.774 24.34 C 28.162 23.477 28.802 23.047 29.877 22.986 C 30.627 23.01 31.554 23.826 31.604 24.157" fill="none" vector-effect="non-scaling-stroke" stroke-width="1" stroke="rgb(255,255,255)" stroke-linejoin="miter" stroke-linecap="square" stroke-miterlimit="3"/><path d=" M 24.171 22.802 C 24.444 22.898 24.238 22.827 24.66 22.966 C 25.225 23.17 26.008 23.457 26.125 23.341 C 26.125 23.341 25.437 21.793 25.437 21.793 C 25.096 21.112 25.252 20.703 24.749 21.707 C 24.664 21.879 24.194 22.75 24.171 22.802 Z " fill="none" vector-effect="non-scaling-stroke" stroke-width="1" stroke="rgb(255,255,255)" stroke-linejoin="miter" stroke-linecap="square" stroke-miterlimit="3"/><path d=" M 25.437 20.504 C 25.437 20.504 26.984 24.114 26.984 24.114 C 26.992 24.114 27.747 22.503 27.844 22.309 C 27.844 21.289 26.692 17.908 25.781 19.731 C 25.567 20.157 25.443 20.316 25.437 20.504 Z " fill="none" vector-effect="non-scaling-stroke" stroke-width="1" stroke="rgb(255,255,255)" stroke-linejoin="miter" stroke-linecap="square" stroke-miterlimit="3"/><path d=" M 26.984 18.699 C 26.984 18.699 28.274 20.762 28.274 20.762 C 28.687 20.762 28.818 18.184 28.875 17.84 C 28.875 17.617 26.721 18.608 26.984 18.699 Z " fill="none" vector-effect="non-scaling-stroke" stroke-width="1" stroke="rgb(255,255,255)" stroke-linejoin="miter" stroke-linecap="square" stroke-miterlimit="3"/><path d=" M 29.563 17.496 C 29.563 17.496 29.305 20.332 29.305 20.332 C 29.305 21.196 28.477 22.8 29.735 21.793 C 30.979 21.171 30.766 19.533 30.766 18.269 C 30.766 16.793 30.309 17.496 29.563 17.496 Z " fill="none" vector-effect="non-scaling-stroke" stroke-width="1" stroke="rgb(255,255,255)" stroke-linejoin="miter" stroke-linecap="square" stroke-miterlimit="3"/><path d=" M 31.368 17.496 C 31.354 17.482 30.765 20.503 30.938 20.59 C 31.25 20.746 32.54 18.574 32.743 18.269 C 32.449 17.681 31.409 17.612 31.368 17.496 Z " fill="none" vector-effect="non-scaling-stroke" stroke-width="1" stroke="rgb(255,255,255)" stroke-linejoin="miter" stroke-linecap="square" stroke-miterlimit="3"/><path d=" M 33.345 18.441 C 33.345 18.441 31.97 20.762 31.97 20.762 C 31.419 21.863 30.455 22.65 31.97 23.083 C 33.239 23.083 34.009 20.292 34.376 19.559 C 34.462 19.387 33.001 18.355 33.345 18.441 Z " fill="none" vector-effect="non-scaling-stroke" stroke-width="1" stroke="rgb(255,255,255)" stroke-linejoin="miter" stroke-linecap="square" stroke-miterlimit="3"/><path d=" M 34.806 19.902 C 34.622 19.672 33.768 22.263 33.86 22.309 C 34.29 22.524 35.691 21.424 35.837 21.278 C 35.837 20.757 35.133 19.988 34.806 19.902 Z " fill="none" vector-effect="non-scaling-stroke" stroke-width="1" stroke="rgb(255,255,255)" stroke-linejoin="miter" stroke-linecap="square" stroke-miterlimit="3"/><path d=" M 32.743 24.63 C 32.743 24.63 33.689 22.911 33.689 22.911 C 34.155 22.631 34.719 22.395 35.236 22.223 C 36.347 21.853 36.355 21.712 36.869 22.739 C 37.596 24.193 35.17 25.231 34.204 25.231 C 33.239 25.231 33.045 25.323 32.829 24.458 C 32.814 24.396 32.743 24.222 32.743 24.63 Z " fill="none" vector-effect="non-scaling-stroke" stroke-width="1" stroke="rgb(255,255,255)" stroke-linejoin="miter" stroke-linecap="square" stroke-miterlimit="3"/><path d=" M 34.806 25.747 C 34.806 25.747 37.213 24.544 37.213 24.544 C 37.962 25.044 37.44 26.236 37.213 26.521 C 37.041 26.435 34.72 25.575 34.806 25.747 Z " fill="none" vector-effect="non-scaling-stroke" stroke-width="1" stroke="rgb(255,255,255)" stroke-linejoin="miter" stroke-linecap="square" stroke-miterlimit="3"/><path d=" M 33.775 26.435 C 33.775 26.435 36.955 26.951 36.955 26.951 C 37.515 26.811 37.299 28.147 37.299 28.498 C 37.299 29.38 33.556 28.96 33.345 28.326 C 33.025 27.367 33.601 26.694 33.775 26.435 Z " fill="none" vector-effect="non-scaling-stroke" stroke-width="1" stroke="rgb(255,255,255)" stroke-linejoin="miter" stroke-linecap="square" stroke-miterlimit="3"/><path d=" M 34.72 29.701 C 34.634 29.689 36.921 29.507 37.213 29.701 C 37.255 29.729 37.381 32.105 36.009 30.732 C 35.751 30.561 35.15 29.959 34.72 29.701 Z " fill="none" vector-effect="non-scaling-stroke" stroke-width="1" stroke="rgb(255,255,255)" stroke-linejoin="miter" stroke-linecap="square" stroke-miterlimit="3"/><path d=" M 31.97 30.732 C 31.968 30.734 32.44 29.271 33.001 29.271 C 33.764 29.271 35.433 30.94 36.009 31.42 C 36.767 32.177 35.67 33.176 34.892 32.709 C 34.503 32.476 33.647 32.152 33.345 31.85 C 33.087 31.592 32.313 30.904 31.97 30.732 Z " fill="none" vector-effect="non-scaling-stroke" stroke-width="1" stroke="rgb(255,255,255)" stroke-linejoin="miter" stroke-linecap="square" stroke-miterlimit="3"/><path d=" M 33.087 32.452 C 33.087 32.452 34.376 35.03 34.376 35.03 C 34.376 35.03 35.236 33.655 35.236 33.655 C 35.326 33.294 34.853 33.064 34.634 32.881 C 34.187 32.434 33.607 32.338 33.087 32.452 Z " fill="none" vector-effect="non-scaling-stroke" stroke-width="1" stroke="rgb(255,255,255)" stroke-linejoin="miter" stroke-linecap="square" stroke-miterlimit="3"/><path d=" M 30.165 30.99 C 30.165 30.99 30.852 32.537 30.852 32.537 C 31.317 33.622 32.247 36.902 33.775 35.374 C 33.775 34.429 32.591 31.516 31.884 31.162 C 31.407 30.924 30.806 31.03 30.165 30.99 Z " fill="none" vector-effect="non-scaling-stroke" stroke-width="1" stroke="rgb(255,255,255)" stroke-linejoin="miter" stroke-linecap="square" stroke-miterlimit="3"/><path d=" M 30.079 32.967 C 30.079 32.967 29.735 35.374 29.735 35.374 C 31.849 36.219 31.274 34.881 30.68 33.397 L 30.508 33.139 L 30.079 32.967 Z " fill="none" vector-effect="non-scaling-stroke" stroke-width="1" stroke="rgb(255,255,255)" stroke-linejoin="miter" stroke-linecap="square" stroke-miterlimit="3"/><path d=" M 27.93 30.303 C 28.334 31.172 26.99 33.317 27.758 34.085 C 28.296 34.623 28.97 35.433 29.219 34.686 C 29.947 33.231 29.685 31.33 28.531 30.561 C 28.274 30.389 27.93 30.217 27.93 30.303 Z " fill="none" vector-effect="non-scaling-stroke" stroke-width="1" stroke="rgb(255,255,255)" stroke-linejoin="miter" stroke-linecap="square" stroke-miterlimit="3"/><path d=" M 24.234 23.684 C 24.234 23.684 24.32 25.919 24.32 25.919 C 24.385 26.18 25.589 26.396 25.781 26.435 C 26.722 26.623 26.532 26.415 26.812 25.575 C 26.812 24.749 26.169 24.104 25.523 23.942 C 25.523 23.942 23.976 23.512 24.234 23.684 Z " fill="none" vector-effect="non-scaling-stroke" stroke-width="1" stroke="rgb(255,255,255)" stroke-linejoin="miter" stroke-linecap="square" stroke-miterlimit="3"/><path d=" M 24.406 26.865 C 24.308 26.525 24.48 28.719 24.749 28.584 C 26.344 27.786 25.163 26.824 24.406 26.865 Z " fill="none" vector-effect="non-scaling-stroke" stroke-width="1" stroke="rgb(255,255,255)" stroke-linejoin="miter" stroke-linecap="square" stroke-miterlimit="3"/><path d=" M 25.007 29.873 C 25.007 29.873 25.609 31.334 25.609 31.334 C 26.683 32.05 27.371 29.088 26.984 28.412 C 26.299 27.041 25.101 28.559 25.007 29.873 Z " fill="none" vector-effect="non-scaling-stroke" stroke-width="1" stroke="rgb(255,255,255)" stroke-linejoin="miter" stroke-linecap="square" stroke-miterlimit="3"/><path d=" M 26.297 32.022 C 25.98 31.705 26.81 32.77 27.156 33.053 C 27.156 33.053 27.414 30.904 27.414 30.904 C 27.262 30.752 26.56 31.736 26.469 31.85 L 26.297 32.022 Z " fill="none" vector-effect="non-scaling-stroke" stroke-width="1" stroke="rgb(255,255,255)" stroke-linejoin="miter" stroke-linecap="square" stroke-miterlimit="3"/><path d=" M 31.003 38.071 C 31.819 38.286 32.045 38.393 32.867 38.425 C 35.022 38.526 35.526 38.264 36.955 37.179 C 38.307 35.827 38.737 34.602 39.547 32.946 C 40.429 30.879 40.562 29.602 40.562 28.594 C 40.562 27.002 40.382 25.409 40.157 24.028 C 39.641 21.965 39.571 21.681 38.217 19.521 C 36.831 17.539 35.999 16.722 34.462 15.519 C 32.915 14.315 30.524 14.213 28.95 14.976 C 26.92 16.475 26.34 16.926 25.093 19.129 C 24.137 21.041 23.546 22.934 23.546 24.888 C 23.232 27.988 23.962 30.295 25.002 32.64 C 25.957 34.706 27.511 36.319 28.8 37.265 C 29.874 37.716 29.885 37.813 31.003 38.071 Z " fill="none" vector-effect="non-scaling-stroke" stroke-width="1" stroke="rgb(255,255,255)" stroke-linejoin="miter" stroke-linecap="square" stroke-miterlimit="3"/><path d=" M 34.978 47.708 C 32.614 48.138 27.97 48.041 25.48 47.751 C 23.619 47.485 20.062 47.305 18.461 47.006 C 16.827 46.748 16.009 46.532 14.639 46.129 C 12.965 45.292 12.286 44.872 10.825 43.668 C 9.134 41.978 9.192 42.25 7.645 39.929 C 6.785 38.554 5.152 35.546 4.636 33.999 C 3.691 31.764 3.519 29.458 3.519 27.208 C 3.519 25.036 3.347 25.403 4.035 21.106 C 4.857 18.639 5.066 17.754 6.699 15.089 C 9.02 11.909 9.02 11.823 10.825 10.104 C 13.06 8.471 13.909 8.046 15.467 7.267 C 17.167 6.417 19.158 5.782 20.836 5.363 C 22.435 4.963 23.701 4.626 25.609 4.259 C 27.156 4.001 28.124 4.227 29.188 4.227" fill="none" vector-effect="non-scaling-stroke" stroke-width="1" stroke="rgb(255,255,255)" stroke-linejoin="miter" stroke-linecap="square" stroke-miterlimit="3"/><path d=" M 27.629 47.902 C 26.297 47.73 24.792 46.999 22.818 45.855 C 20.82 44.633 19.499 43.321 18.905 42.594 C 17.723 41.219 16.82 40.037 15.982 38.511 C 15.057 36.841 14.43 35.656 13.705 34.085 C 12.995 32.642 13.189 32.989 12.415 30.668 C 12.286 30.26 12.005 28.711 11.921 28.036 C 11.764 26.773 11.679 25.208 11.599 24.028 C 11.599 21.891 11.87 19.862 12.458 18.097 C 13.263 15.251 14.231 13.029 15.953 10.996 C 17.728 9.22 19.02 8.014 20.882 6.773 C 22.58 5.641 25.32 4.44 27.448 4.118 C 27.705 4.118 28.499 4.178 28.499 4.178" fill="none" vector-effect="non-scaling-stroke" stroke-width="1" stroke="rgb(255,255,255)" stroke-linejoin="miter" stroke-linecap="square" stroke-miterlimit="3"/><line x1="11.932" y1="26.757" x2="14.607" y2="26.521" vector-effect="non-scaling-stroke" stroke-width="1" stroke="rgb(255,255,255)" stroke-linejoin="miter" stroke-linecap="square" stroke-miterlimit="3"/><line x1="12.834" y1="31.85" x2="15.381" y2="31.506" vector-effect="non-scaling-stroke" stroke-width="1" stroke="rgb(255,255,255)" stroke-linejoin="miter" stroke-linecap="square" stroke-miterlimit="3"/><line x1="14.994" y1="36.588" x2="17.272" y2="36.362" vector-effect="non-scaling-stroke" stroke-width="1" stroke="rgb(255,255,255)" stroke-linejoin="miter" stroke-linecap="square" stroke-miterlimit="3"/><line x1="12.759" y1="17.023" x2="15.467" y2="16.83" vector-effect="non-scaling-stroke" stroke-width="1" stroke="rgb(255,255,255)" stroke-linejoin="miter" stroke-linecap="square" stroke-miterlimit="3"/><line x1="14.822" y1="12.639" x2="17.229" y2="12.51" vector-effect="non-scaling-stroke" stroke-width="1" stroke="rgb(255,255,255)" stroke-linejoin="miter" stroke-linecap="square" stroke-miterlimit="3"/><line x1="17.508" y1="9.577" x2="19.664" y2="9.531" vector-effect="non-scaling-stroke" stroke-width="1" stroke="rgb(255,255,255)" stroke-linejoin="miter" stroke-linecap="square" stroke-miterlimit="3"/><line x1="19.85" y1="7.482" x2="22.085" y2="7.568" vector-effect="non-scaling-stroke" stroke-width="1" stroke="rgb(255,255,255)" stroke-linejoin="miter" stroke-linecap="square" stroke-miterlimit="3"/><line x1="11.738" y1="22.116" x2="14.564" y2="21.944" vector-effect="non-scaling-stroke" stroke-width="1" stroke="rgb(255,255,255)" stroke-linejoin="miter" stroke-linecap="square" stroke-miterlimit="3"/><line x1="16.928" y1="40.058" x2="19.334" y2="40.015" vector-effect="non-scaling-stroke" stroke-width="1" stroke="rgb(255,255,255)" stroke-linejoin="miter" stroke-linecap="square" stroke-miterlimit="3"/><line x1="19.077" y1="42.852" x2="21.741" y2="43.024" vector-effect="non-scaling-stroke" stroke-width="1" stroke="rgb(255,255,255)" stroke-linejoin="miter" stroke-linecap="square" stroke-miterlimit="3"/><line x1="22.901" y1="46.032" x2="25.394" y2="46.075" vector-effect="non-scaling-stroke" stroke-width="1" stroke="rgb(255,255,255)" stroke-linejoin="miter" stroke-linecap="square" stroke-miterlimit="3"/><line x1="22.601" y1="5.72" x2="24.406" y2="5.806" vector-effect="non-scaling-stroke" stroke-width="1" stroke="rgb(255,255,255)" stroke-linejoin="miter" stroke-linecap="square" stroke-miterlimit="3"/><line x1="25.609" y1="4.56" x2="26.984" y2="4.646" vector-effect="non-scaling-stroke" stroke-width="1" stroke="rgb(255,255,255)" stroke-linejoin="miter" stroke-linecap="square" stroke-miterlimit="3"/><line x1="27.907" y1="25.693" x2="28.475" y2="25.754" vector-effect="non-scaling-stroke" stroke-width="1" stroke="rgb(255,255,255)" stroke-linejoin="miter" stroke-linecap="square" stroke-miterlimit="3"/><line x1="31.927" y1="26.177" x2="32.012" y2="4.001" vector-effect="non-scaling-stroke" stroke-width="1" stroke-dasharray="1,2" stroke="rgb(255,255,255)" stroke-linejoin="miter" stroke-linecap="round" stroke-miterlimit="3"/><line x1="29.176" y1="3" x2="34.964" y2="3.68" vector-effect="non-scaling-stroke" stroke-width="1" stroke="rgb(255,255,255)" stroke-linejoin="miter" stroke-linecap="square" stroke-miterlimit="3"/><path d=" M 22.472 5.097 C 15.853 8.342 11.815 13.608 10.352 20.891 C 9.779 25.61 10.438 28.96 11.964 33.752 C 12.351 34.944 13.371 36.656 13.898 37.587 C 17.122 43.281 19.712 45.774 22.987 47.522" fill="none" vector-effect="non-scaling-stroke" stroke-width="1" stroke="rgb(255,255,255)" stroke-linejoin="miter" stroke-linecap="square" stroke-miterlimit="3"/><path d=" M 19.664 5.727 C 13.046 8.972 9.007 14.238 7.545 21.521 C 6.835 26.32 7.579 29.701 9.24 34.412 C 12.891 42.196 14.943 45.401 18.991 47.192" fill="none" vector-effect="non-scaling-stroke" stroke-width="1" stroke="rgb(255,255,255)" stroke-linejoin="miter" stroke-linecap="square" stroke-miterlimit="3"/><path d=" M 18.289 5.957 C 11.67 9.201 7.632 14.468 6.169 21.75 C 5.596 26.47 5.872 30.077 7.742 34.676 C 11.631 42.218 13.06 44.227 16.283 46.677" fill="none" vector-effect="non-scaling-stroke" stroke-width="1" stroke="rgb(255,255,255)" stroke-linejoin="miter" stroke-linecap="square" stroke-miterlimit="3"/><line x1="10.191" y1="22.277" x2="7.419" y2="22.502" vector-effect="non-scaling-stroke" stroke-width="1" stroke="rgb(255,255,255)" stroke-linejoin="miter" stroke-linecap="square" stroke-miterlimit="3"/><line x1="10.296" y1="26.951" x2="7.468" y2="27.241" vector-effect="non-scaling-stroke" stroke-width="1" stroke="rgb(255,255,255)" stroke-linejoin="miter" stroke-linecap="square" stroke-miterlimit="3"/><line x1="11.408" y1="32.076" x2="8.483" y2="32.172" vector-effect="non-scaling-stroke" stroke-width="1" stroke="rgb(255,255,255)" stroke-linejoin="miter" stroke-linecap="square" stroke-miterlimit="3"/><line x1="13.303" y1="36.806" x2="10.553" y2="37.036" vector-effect="non-scaling-stroke" stroke-width="1" stroke="rgb(255,255,255)" stroke-linejoin="miter" stroke-linecap="square" stroke-miterlimit="3"/><line x1="15.424" y1="40.302" x2="12.387" y2="40.417" vector-effect="non-scaling-stroke" stroke-width="1" stroke="rgb(255,255,255)" stroke-linejoin="miter" stroke-linecap="square" stroke-miterlimit="3"/><line x1="17.372" y1="43.052" x2="14.106" y2="43.167" vector-effect="non-scaling-stroke" stroke-width="1" stroke="rgb(255,255,255)" stroke-linejoin="miter" stroke-linecap="square" stroke-miterlimit="3"/><line x1="20.523" y1="46.089" x2="16.684" y2="45.975" vector-effect="non-scaling-stroke" stroke-width="1" stroke="rgb(255,255,255)" stroke-linejoin="miter" stroke-linecap="square" stroke-miterlimit="3"/><line x1="11.412" y1="17.267" x2="8.777" y2="17.438" vector-effect="non-scaling-stroke" stroke-width="1" stroke="rgb(255,255,255)" stroke-linejoin="miter" stroke-linecap="square" stroke-miterlimit="3"/><line x1="13.533" y1="12.74" x2="11.126" y2="12.912" vector-effect="non-scaling-stroke" stroke-width="1" stroke="rgb(255,255,255)" stroke-linejoin="miter" stroke-linecap="square" stroke-miterlimit="3"/><line x1="16.111" y1="9.588" x2="13.876" y2="9.703" vector-effect="non-scaling-stroke" stroke-width="1" stroke="rgb(255,255,255)" stroke-linejoin="miter" stroke-linecap="square" stroke-miterlimit="3"/><line x1="18.69" y1="7.296" x2="16.799" y2="7.353" vector-effect="non-scaling-stroke" stroke-width="1" stroke="rgb(255,255,255)" stroke-linejoin="miter" stroke-linecap="square" stroke-miterlimit="3"/><line x1="21.44" y1="5.634" x2="19.492" y2="5.863" vector-effect="non-scaling-stroke" stroke-width="1" stroke="rgb(255,255,255)" stroke-linejoin="miter" stroke-linecap="square" stroke-miterlimit="3"/><line x1="15.08" y1="45.774" x2="13.619" y2="45.774" vector-effect="non-scaling-stroke" stroke-width="1" stroke="rgb(255,255,255)" stroke-linejoin="miter" stroke-linecap="square" stroke-miterlimit="3"/><line x1="12.788" y1="43.454" x2="10.61" y2="43.511" vector-effect="non-scaling-stroke" stroke-width="1" stroke="rgb(255,255,255)" stroke-linejoin="miter" stroke-linecap="square" stroke-miterlimit="3"/><line x1="10.897" y1="40.588" x2="8.204" y2="40.703" vector-effect="non-scaling-stroke" stroke-width="1" stroke="rgb(255,255,255)" stroke-linejoin="miter" stroke-linecap="square" stroke-miterlimit="3"/><line x1="8.948" y1="37.208" x2="6.198" y2="37.265" vector-effect="non-scaling-stroke" stroke-width="1" stroke="rgb(255,255,255)" stroke-linejoin="miter" stroke-linecap="square" stroke-miterlimit="3"/><line x1="6.828" y1="32.28" x2="4.135" y2="32.452" vector-effect="non-scaling-stroke" stroke-width="1" stroke="rgb(255,255,255)" stroke-linejoin="miter" stroke-linecap="square" stroke-miterlimit="3"/><line x1="5.854" y1="27.466" x2="3.562" y2="27.524" vector-effect="non-scaling-stroke" stroke-width="1" stroke="rgb(255,255,255)" stroke-linejoin="miter" stroke-linecap="square" stroke-miterlimit="3"/><line x1="6.026" y1="22.71" x2="3.791" y2="22.825" vector-effect="non-scaling-stroke" stroke-width="1" stroke="rgb(255,255,255)" stroke-linejoin="miter" stroke-linecap="square" stroke-miterlimit="3"/><line x1="7.401" y1="17.496" x2="5.224" y2="17.725" vector-effect="non-scaling-stroke" stroke-width="1" stroke="rgb(255,255,255)" stroke-linejoin="miter" stroke-linecap="square" stroke-miterlimit="3"/><line x1="9.751" y1="12.969" x2="8.204" y2="13.141" vector-effect="non-scaling-stroke" stroke-width="1" stroke="rgb(255,255,255)" stroke-linejoin="miter" stroke-linecap="square" stroke-miterlimit="3"/><line x1="12.673" y1="9.817" x2="11.126" y2="9.875" vector-effect="non-scaling-stroke" stroke-width="1" stroke="rgb(255,255,255)" stroke-linejoin="miter" stroke-linecap="square" stroke-miterlimit="3"/><line x1="15.309" y1="7.64" x2="14.679" y2="7.697" vector-effect="non-scaling-stroke" stroke-width="1" stroke="rgb(255,255,255)" stroke-linejoin="miter" stroke-linecap="square" stroke-miterlimit="3"/></g></g></svg>