<?xml version="1.0" encoding="UTF-8" standalone="no"?><!-- Generator: Gravit.io --><svg xmlns="http://www.w3.org/2000/svg" xmlns:xlink="http://www.w3.org/1999/xlink" style="isolation:isolate" viewBox="0 0 500 300" width="500pt" height="300pt"><defs><clipPath id="_clipPath_aXmgLezYDiYrL7k7nazwLHJ0BAyDlSpD"><rect width="500" height="300"/></clipPath></defs><g clip-path="url(#_clipPath_aXmgLezYDiYrL7k7nazwLHJ0BAyDlSpD)"><g clip-path="url(#_clipPath_P2fPkbFczA0NiDCQcneNxBb0PUnKJtNK)"><text transform="matrix(1,0,0,1,16,65.328)" style="font-family:'News Cycle';font-weight:400;font-size:48px;font-style:normal;fill:#000000;stroke:none;">Steering Sensitivity</text></g><defs><clipPath id="_clipPath_P2fPkbFczA0NiDCQcneNxBb0PUnKJtNK"><rect x="0" y="0" width="435.332" height="80.48" transform="matrix(1,0,0,1,16,5)"/></clipPath></defs><g clip-path="url(#_clipPath_CX3zphGvN2FUfvn8BYbo1gXwGr2pCX05)"><text transform="matrix(1,0,0,1,212,141.65)" style="font-family:'News Cycle';font-weight:400;font-size:22px;font-style:normal;fill:#000000;stroke:none;">Control how responsive the car </text><text transform="matrix(1,0,0,1,212,177.83)" style="font-family:'News Cycle';font-weight:400;font-size:22px;font-style:normal;fill:#000000;stroke:none;">is to the driver's steering. The </text><text transform="matrix(1,0,0,1,212,214.01)" style="font-family:'News Cycle';font-weight:400;font-size:22px;font-style:normal;fill:#000000;stroke:none;">more sensitive the steering, the </text><text transform="matrix(1,0,0,1,212,250.189)" style="font-family:'News Cycle';font-weight:400;font-size:22px;font-style:normal;fill:#000000;stroke:none;">more sharply the car will turn.</text></g><defs><clipPath id="_clipPath_CX3zphGvN2FUfvn8BYbo1gXwGr2pCX05"><rect x="0" y="0" width="278" height="167.323" transform="matrix(1,0,0,1,212,114)"/></clipPath></defs><g><path d=" M 40.771 174.943 L 34.471 179.636 C 32.929 180.793 32.029 181.821 30.679 184.714 C 30.357 185.743 29.618 187.537 29.891 188.571 C 29.923 190.532 30.472 191.555 31.121 192.332 C 32.128 193.489 33.368 194.836 35.098 195.731 L 39.743 198.6 L 38.2 204.514 L 37.879 209.336 C 37.621 212.036 37.993 215.043 38.843 218.336 C 40.159 220.154 41.921 222.023 44.371 223.8 L 52.6 229.457 L 56.433 239.703 C 56.542 241.619 57.301 245.127 58 247.007 L 62.371 251.057 L 67.257 253.114 L 73.943 254.4 L 81.143 255.429 L 86.8 255.171 L 84.486 221.229 L 77.286 214.8 L 72.4 209.4 L 67.771 203.743 L 64.171 198.857 L 45.143 199.629 L 40 198.857" fill="none" vector-effect="non-scaling-stroke" stroke-width="1" stroke="rgb(0,0,0)" stroke-linejoin="miter" stroke-linecap="square" stroke-miterlimit="3"/><path d=" M 40.771 174.943 L 33.829 170.314 C 33.302 168.65 32.965 167.198 32.8 165.943 C 32.755 164.541 32.963 162.993 33.411 161.282 C 33.539 159.418 34.463 157.713 35.468 156.332 C 36.422 155.304 37.971 152.257 40.891 148.148 Q 43.596 144.341 50.031 135.961 C 55.305 130.336 58.557 128.175 64.943 123 C 67.975 120.782 70.012 119.027 74.457 116.829 C 79.973 114.105 84.783 112.996 89.701 111.694 C 93.968 110.754 97.222 110.175 101.457 109.886 C 104.463 109.823 107.058 110.175 111.47 110.681 C 117.545 111.694 122.607 112.996 127.814 115.31 C 132.443 117.479 137.288 120.662 142.857 124.8 C 148.232 129.413 152.834 133.788 155.383 137.484 C 158.064 141.008 162.165 145.139 165.344 150.023 C 167.028 152.611 168.768 156.521 170.031 158.227 C 171.722 159.844 171.515 161.717 172.961 164.32 C 173.124 165.753 173.573 167.209 173.078 168.305 C 172.04 170.604 172.161 172.244 170.918 173.095 L 165.229 177.514 C 168.398 179.78 170.629 181.267 172.147 182.786 C 174.1 184.594 175 186.836 175.161 188.475 C 175.096 191.079 174.422 192.517 172.943 194.486 L 167.543 199.629 L 165.229 200.914 L 167.029 207.857 C 167.224 210.332 167.149 212.673 166.948 214.993 C 165.468 219.28 163.815 221.797 163.171 222.514 C 162.621 223.238 160.74 224.786 157.514 227.143 C 155.243 229.109 153.597 230.446 152.211 230.904 C 151.186 231.205 145.44 240.882 144.529 243.15 C 144.314 244.971 142.905 247.184 140.286 249.771 C 135.434 252.032 130.269 253.382 124.777 253.805 L 117.159 254.239 L 119.714 221.743 L 127.943 214.029 L 134.886 207.343 L 139.514 202.714 L 141.571 200.657 L 165.486 200.914" fill="none" vector-effect="non-scaling-stroke" stroke-width="1" stroke="rgb(0,0,0)" stroke-linejoin="miter" stroke-linecap="square" stroke-miterlimit="3"/><path d=" M 40.771 174.943 L 68.029 170.571 L 73.573 167.237 C 74.453 165.389 75.808 163.441 77.623 161.379 C 79.326 159.677 81.104 158.118 82.943 156.686 C 84.591 155.581 87.157 154.062 88.761 153.447 C 91.249 152.433 94.437 151.49 96.957 151.037 C 99.798 150.548 103.279 150.422 106.455 150.659 C 109.354 151.037 112.107 151.763 115.343 152.829 L 121.771 155.914 C 125.726 158.812 128.854 161.844 131.141 164.995 L 133.504 168.514 L 137.457 171.343 L 140.286 172.886 L 165.229 177.257" fill="none" vector-effect="non-scaling-stroke" stroke-width="1" stroke="rgb(0,0,0)" stroke-linejoin="miter" stroke-linecap="square" stroke-miterlimit="3"/><mask id="_mask_Gl8l4KSZ2jJL6ucsqr6ZgViv5kDoKDLK"><ellipse vector-effect="non-scaling-stroke" cx="102.99999999999811" cy="184.97142857142848" rx="11.828571428571436" ry="12.085714285714289" fill="white" stroke="none"/></mask><ellipse vector-effect="non-scaling-stroke" cx="102.99999999999811" cy="184.97142857142848" rx="11.828571428571436" ry="12.085714285714289" fill="none"/><ellipse vector-effect="non-scaling-stroke" cx="102.99999999999811" cy="184.97142857142848" rx="11.828571428571436" ry="12.085714285714289" fill="none" mask="url(#_mask_Gl8l4KSZ2jJL6ucsqr6ZgViv5kDoKDLK)" stroke-width="2" stroke="rgb(0,0,0)" stroke-linejoin="miter" stroke-linecap="square" stroke-miterlimit="3"/><mask id="_mask_DF68uF4k8Z5tPDuYlVjg8KG1aYaLSWH6"><ellipse vector-effect="non-scaling-stroke" cx="102.9999999999982" cy="184.3285714285713" rx="90.00000000000004" ry="88.32857142857142" fill="white" stroke="none"/></mask><ellipse vector-effect="non-scaling-stroke" cx="102.9999999999982" cy="184.3285714285713" rx="90.00000000000004" ry="88.32857142857142" fill="none"/><ellipse vector-effect="non-scaling-stroke" cx="102.9999999999982" cy="184.3285714285713" rx="90.00000000000004" ry="88.32857142857142" fill="none" mask="url(#_mask_DF68uF4k8Z5tPDuYlVjg8KG1aYaLSWH6)" stroke-width="4" stroke="rgb(0,0,0)" stroke-linejoin="miter" stroke-linecap="square" stroke-miterlimit="3"/><mask id="_mask_LfXRkDmzl0DuNEWTseVvG8IQtXwWZs0B"><ellipse vector-effect="non-scaling-stroke" cx="102.99999999999817" cy="184.07142857142824" rx="34.45714285714284" ry="33.81428571428569" fill="white" stroke="none"/></mask><ellipse vector-effect="non-scaling-stroke" cx="102.99999999999817" cy="184.07142857142824" rx="34.45714285714284" ry="33.81428571428569" fill="none"/><ellipse vector-effect="non-scaling-stroke" cx="102.99999999999817" cy="184.07142857142824" rx="34.45714285714284" ry="33.81428571428569" fill="none" mask="url(#_mask_LfXRkDmzl0DuNEWTseVvG8IQtXwWZs0B)" stroke-width="2" stroke="rgb(0,0,0)" stroke-linejoin="miter" stroke-linecap="square" stroke-miterlimit="3"/><path d=" M 86.639 255.3 C 96.351 260.819 106.518 260.508 117.111 254.336" fill="none" vector-effect="non-scaling-stroke" stroke-width="1" stroke="rgb(0,0,0)" stroke-linejoin="miter" stroke-linecap="square" stroke-miterlimit="3"/></g></g></svg>